M48
;Layer_Color=9474304
;FILE_FORMAT=2:5
INCH,LZ
;TYPE=PLATED
T1F00S00C0.01400
T2F00S00C0.01500
T4F00S00C0.02362
T6F00S00C0.03000
T7F00S00C0.03346
T9F00S00C0.03600
T10F00S00C0.03937
T11F00S00C0.04000
T12F00S00C0.04921
T13F00S00C0.05118
T14F00S00C0.12598
%
T01
X0262Y0009
X03225Y0008
X02015Y00095
X01405Y0009
X00995Y0043
X0052Y0027
X01075Y00805
X0112Y00975
X0111Y01085
X013Y0111
X0126Y0096
X01365Y0086
X0137Y00815
Y00765
X01735Y0075
X0169Y0083
X0158Y01115
X02775Y01035
X0243Y0154
T02
X02925Y00275
X01925Y01249
X01895Y0129
X0189Y0139
Y0164
X0166Y01435
X0164Y01286
X01665Y0125
X0162Y01155
X01225Y01249
X01175Y0126906
X02155Y0141
X02314Y01286
X0228323Y0125
X023Y0115
X02265Y0111
X0258Y01445
X02735Y0141
X02705Y0138
X0278Y0136
X02815Y0133
X0294Y0134
X03405Y0127
X03205Y0074
X02945Y0079
X02895Y00795
T04
X03285Y019111
Y020489
T06
X03525Y0060063
X0048Y0065
X004Y02045
X0078Y0065
T07
X03525Y0067937
T09
X01155Y0174972
Y02045
T10
X038Y0038
Y0048
Y0058
X0098Y00305
Y00205
Y00105
X00975Y011
X0196Y00835
X0206
X0216
X0352Y0082
Y0092
Y0102
X038
Y0092
Y0082
T11
X0162992Y0178937
X0287008Y0184055
Y0215945
X0162992Y0221063
T12
X0221185Y0009657
Y00195
X0242315
Y0009657
X0281685
Y00195
X0302815
Y0009657
X0342185
Y00195
X0181815
Y0009657
X0160185
Y00195
X0120815
Y0009657
X0016815Y0007472
X0006972
Y0046843
X0016815
T13
X0362Y0168884
Y0223116
T14
X0377953Y0017717
X007874
Y0181102
X0377953Y0236221
M30
