M48
;Layer_Color=9474304
;FILE_FORMAT=2:5
INCH,LZ
;TYPE=PLATED
T3F00S00C0.01968
T5F00S00C0.02953
T8F00S00C0.03543
%
G90
G05
T03
G00X0076Y0233122
M15
G01Y0235878
M16
G00X0115567Y0233122
M15
G01Y0235878
M16
G00X0135843Y0233122
M15
G01Y0235878
M16
G00X0055724Y0233122
M15
G01Y0235878
M16
T05
G00X0048886Y0105
M15
G01X0047114
M16
G00X0048886Y0135
M15
G01X0047114
M16
G00X0078886Y0125
M15
G01X0077114
M16
T08
G00X0221185Y0037807
M15
G01Y0040563
M16
G00X0242315Y0037807
M15
G01Y0040563
M16
G00X0252157Y0037807
M15
G01Y0040563
M16
G00X0271843Y0037807
M15
G01Y0040563
M16
G00X0281685Y0037807
M15
G01Y0040563
M16
G00X0302815Y0037807
M15
G01Y0040563
M16
G00X0312657Y0037807
M15
G01Y0040563
M16
G00X0332343Y0037807
M15
G01Y0040563
M16
G00X0342185Y0037807
M15
G01Y0040563
M16
G00X0323878Y00195
M15
G01X0321122
M16
G00X0263378Y00195
M15
G01X0260622
M16
G00X0202878Y00195
M15
G01X0200122
M16
G00X0211343Y0037807
M15
G01Y0040563
M16
G00X0191657Y0037807
M15
G01Y0040563
M16
G00X0181815Y0037807
M15
G01Y0040563
M16
G00X0160185Y0037807
M15
G01Y0040563
M16
G00X0150343Y0037807
M15
G01Y0040563
M16
G00X0130657Y0037807
M15
G01Y0040563
M16
G00X0120815Y0037807
M15
G01Y0040563
M16
G00X0141878Y00195
M15
G01X0139122
M16
G00X0035122Y0017315
M15
G01X0037878
M16
G00X0035122Y0007472
M15
G01X0037878
M16
G00X0035122Y0037
M15
G01X0037878
M16
G00X0035122Y0046843
M15
G01X0037878
M16
G00X0016815Y002578
M15
G01Y0028535
M16
M17
M30
