G04*
G04 #@! TF.GenerationSoftware,Altium Limited,Altium Designer,20.0.13 (296)*
G04*
G04 Layer_Physical_Order=2*
G04 Layer_Color=16711680*
%FSLAX25Y25*%
%MOIN*%
G70*
G01*
G75*
%ADD10C,0.01000*%
%ADD49R,0.04134X0.03740*%
%ADD50R,0.03543X0.04331*%
%ADD51R,0.03740X0.04134*%
%ADD52R,0.04331X0.03543*%
%ADD60C,0.02000*%
%ADD61C,0.01200*%
%ADD62C,0.01400*%
%ADD63C,0.03000*%
%ADD64C,0.06000*%
%ADD65C,0.06000*%
%ADD66O,0.06000X0.04921*%
%ADD67O,0.06000X0.09843*%
%ADD68O,0.09843X0.06000*%
%ADD69R,0.06000X0.07874*%
%ADD70R,0.07874X0.06000*%
%ADD71C,0.07874*%
%ADD72R,0.06000X0.07874*%
%ADD73R,0.07874X0.06000*%
%ADD74C,0.08000*%
%ADD75C,0.05118*%
%ADD76O,0.03937X0.07874*%
%ADD77C,0.07000*%
%ADD78C,0.07087*%
%ADD79C,0.02500*%
%ADD80C,0.03000*%
%ADD81C,0.02400*%
%ADD82C,0.02800*%
%ADD83C,0.15748*%
%ADD84C,0.05000*%
%ADD85R,0.05900X0.05900*%
%ADD86R,0.03100X0.01100*%
%ADD87R,0.01100X0.03100*%
G36*
X397500Y250000D02*
Y0D01*
X0D01*
X-494Y77007D01*
X493Y78000D01*
X43143D01*
X43679Y76707D01*
X34986Y68014D01*
X34522Y67319D01*
X34359Y66500D01*
Y50442D01*
X31963D01*
Y43242D01*
X34359D01*
Y40600D01*
X31963D01*
Y33400D01*
X41037D01*
Y40600D01*
X38641D01*
Y43242D01*
X41037D01*
Y50442D01*
X38641D01*
Y65613D01*
X51028Y78000D01*
X57359D01*
Y63887D01*
X46986Y53514D01*
X46522Y52819D01*
X46359Y52000D01*
Y30202D01*
X37423Y21266D01*
X37189Y20915D01*
X31963D01*
Y13715D01*
X34359D01*
Y11072D01*
X31963D01*
Y3872D01*
X41037D01*
Y11072D01*
X38641D01*
Y13715D01*
X41037D01*
Y18608D01*
X41078Y18815D01*
Y18865D01*
X48221Y26008D01*
X48633Y26013D01*
X49874Y25681D01*
X50198Y25198D01*
X51025Y24645D01*
X51500Y24551D01*
Y27000D01*
Y29956D01*
X50641Y30654D01*
Y51113D01*
X61014Y61486D01*
X61478Y62181D01*
X61641Y63000D01*
Y78000D01*
X87735D01*
Y75676D01*
X88869D01*
Y75219D01*
X88993Y74594D01*
X89346Y74065D01*
X90518Y72894D01*
X91047Y72540D01*
X91672Y72416D01*
X110780D01*
X111315Y71122D01*
X87846Y47653D01*
X87493Y47124D01*
X87369Y46500D01*
Y22520D01*
X85969Y22169D01*
X85820Y22447D01*
X84761Y23738D01*
X83471Y24796D01*
X81999Y25583D01*
X80401Y26068D01*
X78740Y26232D01*
X77079Y26068D01*
X75482Y25583D01*
X74010Y24796D01*
X72719Y23738D01*
X71660Y22447D01*
X70873Y20975D01*
X70389Y19378D01*
X70225Y17717D01*
X70389Y16055D01*
X70873Y14458D01*
X71660Y12986D01*
X72719Y11695D01*
X74010Y10637D01*
X75482Y9850D01*
X77079Y9365D01*
X78740Y9201D01*
X80401Y9365D01*
X81999Y9850D01*
X83471Y10637D01*
X84761Y11695D01*
X85820Y12986D01*
X86607Y14458D01*
X86892Y15399D01*
X88359Y15846D01*
X88439Y15833D01*
X92648Y11624D01*
X92571Y11440D01*
X92448Y10500D01*
X92571Y9560D01*
X92934Y8685D01*
X93511Y7932D01*
X94263Y7355D01*
X95139Y6993D01*
X96079Y6869D01*
X99921D01*
X100861Y6993D01*
X101737Y7355D01*
X102489Y7932D01*
X103066Y8685D01*
X103429Y9560D01*
X103552Y10500D01*
X103429Y11440D01*
X103066Y12315D01*
X102489Y13068D01*
X101737Y13645D01*
X100861Y14007D01*
X99921Y14131D01*
X96079D01*
X95139Y14007D01*
X94955Y13931D01*
X90631Y18255D01*
Y45824D01*
X105376Y60568D01*
X106776Y59989D01*
Y59000D01*
X109146D01*
Y61567D01*
X108354D01*
X107774Y62967D01*
X113776Y68968D01*
X115176Y68389D01*
Y64235D01*
X115176D01*
X115461Y63547D01*
X114561Y62647D01*
X114318Y62283D01*
X114299Y62185D01*
X113003Y61409D01*
X112516Y61567D01*
X111650Y61567D01*
X110146D01*
Y58500D01*
Y55433D01*
X111650D01*
X112516Y55433D01*
X113750Y55833D01*
X114751D01*
X115287Y54540D01*
X106846Y46099D01*
X106493Y45570D01*
X106369Y44946D01*
Y29254D01*
X101045Y23931D01*
X100861Y24007D01*
X99921Y24131D01*
X96079D01*
X95139Y24007D01*
X94263Y23645D01*
X93511Y23067D01*
X92934Y22316D01*
X92571Y21440D01*
X92448Y20500D01*
X92571Y19560D01*
X92934Y18685D01*
X93511Y17932D01*
X94263Y17355D01*
X95139Y16993D01*
X96079Y16869D01*
X99921D01*
X100861Y16993D01*
X101737Y17355D01*
X102489Y17932D01*
X103066Y18685D01*
X103429Y19560D01*
X103552Y20500D01*
X103429Y21440D01*
X103352Y21624D01*
X109153Y27425D01*
X109507Y27955D01*
X109631Y28579D01*
Y44270D01*
X121638Y56277D01*
X121991Y56806D01*
X121992Y56806D01*
X122116Y57430D01*
X122176Y57833D01*
X123302Y57833D01*
X126250D01*
X127484Y57433D01*
X128350Y57433D01*
X129854D01*
Y60500D01*
Y63567D01*
X128350D01*
X127484Y63567D01*
X126865Y63366D01*
X125824Y64344D01*
Y65878D01*
X133000D01*
X133000Y65878D01*
X133429Y65964D01*
X133793Y66207D01*
X140793Y73207D01*
X140793Y73207D01*
X141036Y73571D01*
X141122Y74000D01*
Y87000D01*
X141036Y87429D01*
X140793Y87793D01*
X140793Y87793D01*
X138293Y90293D01*
X137929Y90536D01*
X137500Y90622D01*
X137500Y90622D01*
X136072D01*
X135861Y90887D01*
X135246Y92160D01*
X137647Y94561D01*
X137647Y94561D01*
X137891Y94925D01*
X137976Y95354D01*
Y95833D01*
X139324D01*
Y101167D01*
X134384D01*
Y101167D01*
X133616D01*
Y101167D01*
X128676D01*
Y99622D01*
X123000D01*
X123000Y99622D01*
X122571Y99536D01*
X122207Y99293D01*
X122207Y99293D01*
X118608Y95695D01*
X117524Y94918D01*
X117054Y95177D01*
X116547Y95278D01*
X116096D01*
X113884Y97490D01*
X113886Y97500D01*
X113743Y98222D01*
X113631Y98388D01*
Y101158D01*
X114176Y102333D01*
X118250D01*
X119484Y101933D01*
X120350Y101933D01*
X121854D01*
Y105000D01*
Y108067D01*
X120350D01*
X119484Y108067D01*
X118277Y108532D01*
Y109968D01*
X119484Y110433D01*
X119484Y110433D01*
X121854D01*
Y113500D01*
X122354D01*
Y114000D01*
X125224D01*
Y116369D01*
X128324D01*
X144846Y99847D01*
X145376Y99493D01*
X146000Y99369D01*
X151176D01*
Y98235D01*
X155681D01*
X155919Y98235D01*
X157081D01*
X157319Y98235D01*
X161824D01*
Y99345D01*
X172357D01*
X173375Y97945D01*
X173335Y97819D01*
X173335Y97347D01*
Y95547D01*
X179665D01*
Y97347D01*
X179665Y97819D01*
X179964Y99095D01*
X184176D01*
Y97833D01*
X188484D01*
X189500Y97833D01*
X190516Y97833D01*
X194824D01*
Y98869D01*
X206824D01*
X214369Y91324D01*
Y88642D01*
X214184Y88566D01*
X213433Y87989D01*
X212855Y87237D01*
X212493Y86361D01*
X212369Y85421D01*
Y81579D01*
X212493Y80639D01*
X212855Y79763D01*
X213433Y79011D01*
X214184Y78434D01*
X215060Y78071D01*
X216000Y77948D01*
X216940Y78071D01*
X217815Y78434D01*
X218567Y79011D01*
X219145Y79763D01*
X219507Y80639D01*
X219631Y81579D01*
Y85421D01*
X219507Y86361D01*
X219145Y87237D01*
X218567Y87989D01*
X217815Y88566D01*
X217631Y88642D01*
Y92000D01*
X217631Y92000D01*
X217507Y92624D01*
X217154Y93154D01*
X208653Y101654D01*
X208124Y102007D01*
X207500Y102131D01*
X194824D01*
Y103167D01*
X190516D01*
X189500Y103167D01*
X188484Y103167D01*
X184176D01*
Y102358D01*
X179265D01*
Y103324D01*
X173735D01*
Y102608D01*
X161824D01*
Y103765D01*
X157319D01*
X157081Y103765D01*
X155919D01*
X155681Y103765D01*
X151176D01*
Y102631D01*
X146676D01*
X130154Y119153D01*
X129624Y119507D01*
X129000Y119631D01*
X122089D01*
X121553Y120925D01*
X123387Y122759D01*
X166400D01*
X166903Y122859D01*
X191997D01*
X192500Y122759D01*
X193003Y122859D01*
X228323D01*
X229142Y123022D01*
X229837Y123486D01*
X230301Y124181D01*
X230464Y125000D01*
X230452Y125059D01*
X231366Y126408D01*
X231489Y126477D01*
X232219Y126622D01*
X232914Y127086D01*
X233378Y127781D01*
X233541Y128600D01*
X233378Y129419D01*
X232914Y130114D01*
X232219Y130578D01*
X231400Y130741D01*
X190674D01*
X190319Y130978D01*
X189500Y131141D01*
X188681Y130978D01*
X188326Y130741D01*
X119194D01*
X118375Y130578D01*
X117681Y130114D01*
X116613Y129047D01*
X96905D01*
X96086Y128884D01*
X95391Y128419D01*
X94293Y127322D01*
X93000Y127857D01*
Y162000D01*
X183000Y162000D01*
X183000Y250000D01*
X397500Y250000D01*
D02*
G37*
G36*
X111220Y121031D02*
X111153Y120606D01*
X110534Y119539D01*
X110376Y119507D01*
X109846Y119153D01*
X103847Y113154D01*
X103493Y112624D01*
X103369Y112000D01*
Y90000D01*
X103493Y89376D01*
X103847Y88846D01*
X104376Y88493D01*
X104697Y88429D01*
X106248Y86878D01*
X105712Y85584D01*
X94359D01*
X94335Y85601D01*
X93296Y86984D01*
X93328Y87698D01*
X94081Y88235D01*
X94400Y88235D01*
X98824D01*
Y93765D01*
X98035D01*
Y96833D01*
X98824D01*
Y102167D01*
X94516D01*
X93884Y102167D01*
X93000Y103201D01*
Y103693D01*
X96022Y106715D01*
X96560Y106493D01*
X97500Y106369D01*
X98440Y106493D01*
X99316Y106855D01*
X100068Y107432D01*
X100645Y108185D01*
X101007Y109060D01*
X101131Y110000D01*
X101007Y110940D01*
X100645Y111816D01*
X100068Y112568D01*
X99316Y113145D01*
X98440Y113507D01*
X97500Y113631D01*
X96560Y113507D01*
X95684Y113145D01*
X94932Y112568D01*
X94412Y111889D01*
X93292Y112245D01*
X93080Y113552D01*
X100692Y121164D01*
X111131D01*
X111220Y121031D01*
D02*
G37*
G36*
X133592Y91566D02*
X134207Y90293D01*
X134207Y90293D01*
X132170Y88256D01*
X127556D01*
Y88603D01*
X123603D01*
Y91831D01*
X133381D01*
X133592Y91566D01*
D02*
G37*
G36*
X113196Y116317D02*
X113819Y114973D01*
X113818Y114969D01*
X113347Y114654D01*
X109942Y111249D01*
X109589Y110720D01*
X109464Y110096D01*
Y109532D01*
X109257Y109222D01*
X109114Y108500D01*
X109257Y107778D01*
X109666Y107166D01*
X110278Y106757D01*
X110855Y106642D01*
X111174Y106125D01*
X111473Y105280D01*
X110846Y104654D01*
X110493Y104124D01*
X110369Y103500D01*
Y98388D01*
X110257Y98222D01*
X110114Y97500D01*
X110257Y96778D01*
X110666Y96166D01*
X111278Y95757D01*
X112000Y95614D01*
X112010Y95616D01*
X114311Y93314D01*
X114610Y93015D01*
X114610Y93015D01*
X115040Y92728D01*
X115040Y92728D01*
X115397Y92556D01*
Y88603D01*
X111444D01*
Y87125D01*
X110044Y86830D01*
X106631Y90243D01*
Y111324D01*
X111676Y116369D01*
X112859D01*
X113196Y116317D01*
D02*
G37*
G36*
X105227Y81893D02*
X105749Y80921D01*
X105665Y80500D01*
X105804Y79798D01*
X106202Y79202D01*
X106798Y78804D01*
X107500Y78665D01*
X108202Y78804D01*
X108798Y79202D01*
X109094Y79646D01*
X109768D01*
X109768Y79646D01*
X110197Y79732D01*
X110293Y79796D01*
X111444Y80397D01*
X115397D01*
Y76445D01*
X114314Y75679D01*
X93265D01*
Y80419D01*
X93265D01*
Y80921D01*
X94359Y82321D01*
X104868D01*
X105227Y81893D01*
D02*
G37*
G36*
X127581Y80386D02*
X128735Y79864D01*
Y75581D01*
X128735D01*
Y75021D01*
X127665Y73622D01*
X121606D01*
Y76445D01*
X123603D01*
Y80397D01*
X127365D01*
X127581Y80386D01*
D02*
G37*
%LPC*%
G36*
X377953Y244736D02*
X376292Y244572D01*
X374694Y244087D01*
X373222Y243300D01*
X371932Y242242D01*
X370873Y240951D01*
X370086Y239479D01*
X369601Y237882D01*
X369438Y236221D01*
X369601Y234559D01*
X370086Y232962D01*
X370873Y231490D01*
X371932Y230199D01*
X373222Y229140D01*
X374694Y228354D01*
X376292Y227869D01*
X377953Y227706D01*
X379614Y227869D01*
X381211Y228354D01*
X382683Y229140D01*
X383974Y230199D01*
X385033Y231490D01*
X385820Y232962D01*
X386304Y234559D01*
X386468Y236221D01*
X386304Y237882D01*
X385820Y239479D01*
X385033Y240951D01*
X383974Y242242D01*
X382683Y243300D01*
X381211Y244087D01*
X379614Y244572D01*
X377953Y244736D01*
D02*
G37*
G36*
X362500Y227633D02*
Y223616D01*
X366517D01*
X366426Y224302D01*
X365969Y225407D01*
X365240Y226357D01*
X364291Y227085D01*
X363186Y227542D01*
X362500Y227633D01*
D02*
G37*
G36*
X361500Y227633D02*
X360814Y227542D01*
X359709Y227085D01*
X358760Y226357D01*
X358031Y225407D01*
X357574Y224302D01*
X357483Y223616D01*
X361500D01*
Y227633D01*
D02*
G37*
G36*
X366517Y222616D02*
X362500D01*
Y218600D01*
X363186Y218690D01*
X364291Y219148D01*
X365240Y219876D01*
X365969Y220825D01*
X366426Y221930D01*
X366517Y222616D01*
D02*
G37*
G36*
X361500D02*
X357483D01*
X357574Y221930D01*
X358031Y220825D01*
X358760Y219876D01*
X359709Y219148D01*
X360814Y218690D01*
X361500Y218600D01*
Y222616D01*
D02*
G37*
G36*
X287508Y220922D02*
Y216445D01*
X291985D01*
X291879Y217250D01*
X291375Y218466D01*
X290574Y219511D01*
X289529Y220312D01*
X288313Y220816D01*
X287508Y220922D01*
D02*
G37*
G36*
X286508D02*
X285703Y220816D01*
X284486Y220312D01*
X283442Y219511D01*
X282640Y218466D01*
X282137Y217250D01*
X282031Y216445D01*
X286508D01*
Y220922D01*
D02*
G37*
G36*
X291985Y215445D02*
X287508D01*
Y210968D01*
X288313Y211074D01*
X289529Y211577D01*
X290574Y212379D01*
X291375Y213423D01*
X291879Y214640D01*
X291985Y215445D01*
D02*
G37*
G36*
X286508D02*
X282031D01*
X282137Y214640D01*
X282640Y213423D01*
X283442Y212379D01*
X284486Y211577D01*
X285703Y211074D01*
X286508Y210968D01*
Y215445D01*
D02*
G37*
G36*
X329000Y208414D02*
Y205390D01*
X332024D01*
X331967Y205819D01*
X331609Y206685D01*
X331038Y207428D01*
X330295Y207999D01*
X329429Y208357D01*
X329000Y208414D01*
D02*
G37*
G36*
X328000D02*
X327571Y208357D01*
X326705Y207999D01*
X325962Y207428D01*
X325391Y206685D01*
X325033Y205819D01*
X324976Y205390D01*
X328000D01*
Y208414D01*
D02*
G37*
G36*
X332024Y204390D02*
X329000D01*
Y201366D01*
X329429Y201422D01*
X330295Y201781D01*
X331038Y202351D01*
X331609Y203095D01*
X331967Y203961D01*
X332024Y204390D01*
D02*
G37*
G36*
X328000D02*
X324976D01*
X325033Y203961D01*
X325391Y203095D01*
X325962Y202351D01*
X326705Y201781D01*
X327571Y201422D01*
X328000Y201366D01*
Y204390D01*
D02*
G37*
G36*
X328500Y194297D02*
X327675Y194188D01*
X326907Y193870D01*
X326247Y193363D01*
X325741Y192703D01*
X325422Y191935D01*
X325314Y191110D01*
X325422Y190286D01*
X325741Y189517D01*
X326247Y188857D01*
X326907Y188351D01*
X327675Y188032D01*
X328500Y187924D01*
X329325Y188032D01*
X330093Y188351D01*
X330753Y188857D01*
X331259Y189517D01*
X331578Y190286D01*
X331686Y191110D01*
X331578Y191935D01*
X331259Y192703D01*
X330753Y193363D01*
X330093Y193870D01*
X329325Y194188D01*
X328500Y194297D01*
D02*
G37*
G36*
X287008Y188695D02*
X285807Y188537D01*
X284688Y188073D01*
X283727Y187336D01*
X282990Y186375D01*
X282526Y185256D01*
X282368Y184055D01*
X282526Y182854D01*
X282990Y181735D01*
X283727Y180774D01*
X284688Y180037D01*
X285807Y179574D01*
X287008Y179415D01*
X288209Y179574D01*
X289328Y180037D01*
X290289Y180774D01*
X291026Y181735D01*
X291490Y182854D01*
X291648Y184055D01*
X291490Y185256D01*
X291026Y186375D01*
X290289Y187336D01*
X289328Y188073D01*
X288209Y188537D01*
X287008Y188695D01*
D02*
G37*
G36*
X362000Y173063D02*
X360918Y172921D01*
X359910Y172503D01*
X359045Y171839D01*
X358381Y170973D01*
X357963Y169966D01*
X357821Y168884D01*
X357963Y167802D01*
X358381Y166794D01*
X359045Y165929D01*
X359910Y165265D01*
X360918Y164847D01*
X362000Y164705D01*
X363082Y164847D01*
X364089Y165265D01*
X364955Y165929D01*
X365619Y166794D01*
X366037Y167802D01*
X366179Y168884D01*
X366037Y169966D01*
X365619Y170973D01*
X364955Y171839D01*
X364089Y172503D01*
X363082Y172921D01*
X362000Y173063D01*
D02*
G37*
G36*
X243500Y156449D02*
Y154500D01*
X245449D01*
X245355Y154975D01*
X244802Y155802D01*
X243975Y156355D01*
X243500Y156449D01*
D02*
G37*
G36*
X242500D02*
X242024Y156355D01*
X241198Y155802D01*
X240645Y154975D01*
X240550Y154500D01*
X242500D01*
Y156449D01*
D02*
G37*
G36*
X245449Y153500D02*
X243500D01*
Y151550D01*
X243975Y151645D01*
X244802Y152198D01*
X245355Y153024D01*
X245449Y153500D01*
D02*
G37*
G36*
X242500D02*
X240550D01*
X240645Y153024D01*
X241198Y152198D01*
X242024Y151645D01*
X242500Y151550D01*
Y153500D01*
D02*
G37*
G36*
X166500Y145949D02*
Y144000D01*
X168449D01*
X168355Y144475D01*
X167802Y145302D01*
X166975Y145855D01*
X166500Y145949D01*
D02*
G37*
G36*
X165500D02*
X165024Y145855D01*
X164198Y145302D01*
X163645Y144475D01*
X163550Y144000D01*
X165500D01*
Y145949D01*
D02*
G37*
G36*
X216000Y143449D02*
Y141500D01*
X217950D01*
X217855Y141975D01*
X217302Y142802D01*
X216476Y143355D01*
X216000Y143449D01*
D02*
G37*
G36*
X215000D02*
X214525Y143355D01*
X213698Y142802D01*
X213145Y141975D01*
X213051Y141500D01*
X215000D01*
Y143449D01*
D02*
G37*
G36*
X168449Y143000D02*
X166500D01*
Y141051D01*
X166975Y141145D01*
X167802Y141698D01*
X168355Y142525D01*
X168449Y143000D01*
D02*
G37*
G36*
X165500D02*
X163550D01*
X163645Y142525D01*
X164198Y141698D01*
X165024Y141145D01*
X165500Y141051D01*
Y143000D01*
D02*
G37*
G36*
X217950Y140500D02*
X216000D01*
Y138550D01*
X216476Y138645D01*
X217302Y139198D01*
X217855Y140024D01*
X217950Y140500D01*
D02*
G37*
G36*
X215000D02*
X213051D01*
X213145Y140024D01*
X213698Y139198D01*
X214525Y138645D01*
X215000Y138550D01*
Y140500D01*
D02*
G37*
G36*
X189000Y166141D02*
X188181Y165978D01*
X187486Y165514D01*
X187022Y164819D01*
X186859Y164000D01*
X187022Y163181D01*
X187486Y162486D01*
X187777Y162292D01*
Y140708D01*
X187486Y140514D01*
X187022Y139819D01*
X186859Y139000D01*
X187022Y138181D01*
X187486Y137486D01*
X188181Y137022D01*
X189000Y136859D01*
X189819Y137022D01*
X190514Y137486D01*
X190978Y138181D01*
X191141Y139000D01*
X190978Y139819D01*
X190514Y140514D01*
X190224Y140708D01*
Y162292D01*
X190514Y162486D01*
X190978Y163181D01*
X191141Y164000D01*
X190978Y164819D01*
X190514Y165514D01*
X189819Y165978D01*
X189000Y166141D01*
D02*
G37*
G36*
X258000Y146641D02*
X257181Y146478D01*
X256486Y146014D01*
X256022Y145319D01*
X255859Y144500D01*
X256022Y143681D01*
X256486Y142986D01*
X257181Y142522D01*
X258000Y142359D01*
X258819Y142522D01*
X259514Y142986D01*
X259708Y143277D01*
X270812D01*
X271560Y141876D01*
X271522Y141819D01*
X271359Y141000D01*
X270500Y140141D01*
X269681Y139978D01*
X268986Y139514D01*
X268522Y138819D01*
X268359Y138000D01*
X268522Y137181D01*
X268986Y136486D01*
X269175Y136360D01*
Y119549D01*
X265951Y116325D01*
X231640D01*
X231514Y116514D01*
X230819Y116978D01*
X230000Y117141D01*
X229181Y116978D01*
X228486Y116514D01*
X228022Y115819D01*
X227859Y115000D01*
X228022Y114181D01*
X228040Y114154D01*
X227633Y113490D01*
X227114Y113019D01*
X226500Y113141D01*
X225681Y112978D01*
X224986Y112514D01*
X224522Y111819D01*
X224359Y111000D01*
X224522Y110181D01*
X224826Y109725D01*
X224554Y108844D01*
X224206Y108326D01*
X222549D01*
X214437Y116437D01*
X214007Y116725D01*
X213500Y116825D01*
X163640D01*
X163514Y117014D01*
X162819Y117478D01*
X162000Y117641D01*
X161181Y117478D01*
X160486Y117014D01*
X160022Y116319D01*
X159859Y115500D01*
X160022Y114681D01*
X159066Y113591D01*
X158819Y113478D01*
X158000Y113641D01*
X157181Y113478D01*
X156486Y113014D01*
X156022Y112319D01*
X155859Y111500D01*
X156022Y110681D01*
X156486Y109986D01*
X157181Y109522D01*
X158000Y109359D01*
X158819Y109522D01*
X159514Y109986D01*
X159640Y110175D01*
X212951D01*
X219563Y103563D01*
X219993Y103275D01*
X220500Y103174D01*
X267000D01*
X267507Y103275D01*
X267937Y103563D01*
X282437Y118063D01*
X282725Y118493D01*
X282825Y119000D01*
Y131360D01*
X283014Y131486D01*
X283478Y132181D01*
X283641Y133000D01*
X283478Y133819D01*
X283014Y134514D01*
X282319Y134978D01*
X281500Y135141D01*
X281394Y135120D01*
X280218Y135946D01*
X280105Y136182D01*
X279978Y136819D01*
X279514Y137514D01*
X278819Y137978D01*
X278000Y138141D01*
X277181Y137978D01*
X276486Y137514D01*
X276225Y137124D01*
X274826Y137435D01*
Y139360D01*
X275014Y139486D01*
X275478Y140181D01*
X275641Y141000D01*
X275478Y141819D01*
X275440Y141876D01*
X276188Y143277D01*
X322493D01*
X338427Y127343D01*
X338359Y127000D01*
X338522Y126181D01*
X338986Y125486D01*
X339681Y125022D01*
X340500Y124859D01*
X341319Y125022D01*
X342014Y125486D01*
X342478Y126181D01*
X342641Y127000D01*
X342478Y127819D01*
X342014Y128514D01*
X341319Y128978D01*
X340500Y129141D01*
X340157Y129073D01*
X323865Y145365D01*
X323468Y145630D01*
X323000Y145723D01*
X259708D01*
X259514Y146014D01*
X258819Y146478D01*
X258000Y146641D01*
D02*
G37*
G36*
X125224Y113000D02*
X122854D01*
Y110433D01*
X125224D01*
Y113000D01*
D02*
G37*
G36*
X122854Y108067D02*
Y105500D01*
X125224D01*
Y108067D01*
X122854D01*
D02*
G37*
G36*
X278000Y105949D02*
Y104000D01*
X279949D01*
X279855Y104475D01*
X279302Y105302D01*
X278475Y105855D01*
X278000Y105949D01*
D02*
G37*
G36*
X277000D02*
X276524Y105855D01*
X275698Y105302D01*
X275145Y104475D01*
X275050Y104000D01*
X277000D01*
Y105949D01*
D02*
G37*
G36*
X381921Y106035D02*
X380500D01*
Y102500D01*
X385890D01*
X385818Y103044D01*
X385415Y104017D01*
X384774Y104853D01*
X383939Y105494D01*
X382965Y105897D01*
X381921Y106035D01*
D02*
G37*
G36*
X353921D02*
X352500D01*
Y102500D01*
X357890D01*
X357818Y103044D01*
X357415Y104017D01*
X356774Y104853D01*
X355939Y105494D01*
X354965Y105897D01*
X353921Y106035D01*
D02*
G37*
G36*
X379500D02*
X378079D01*
X377034Y105897D01*
X376062Y105494D01*
X375226Y104853D01*
X374585Y104017D01*
X374182Y103044D01*
X374110Y102500D01*
X379500D01*
Y106035D01*
D02*
G37*
G36*
X351500D02*
X350079D01*
X349035Y105897D01*
X348061Y105494D01*
X347226Y104853D01*
X346585Y104017D01*
X346182Y103044D01*
X346110Y102500D01*
X351500D01*
Y106035D01*
D02*
G37*
G36*
X125224Y104500D02*
X122854D01*
Y101933D01*
X125224D01*
Y104500D01*
D02*
G37*
G36*
X279949Y103000D02*
X278000D01*
Y101050D01*
X278475Y101145D01*
X279302Y101698D01*
X279855Y102524D01*
X279949Y103000D01*
D02*
G37*
G36*
X277000D02*
X275050D01*
X275145Y102524D01*
X275698Y101698D01*
X276524Y101145D01*
X277000Y101050D01*
Y103000D01*
D02*
G37*
G36*
X385890Y101500D02*
X380500D01*
Y97966D01*
X381921D01*
X382965Y98103D01*
X383939Y98506D01*
X384774Y99147D01*
X385415Y99983D01*
X385818Y100956D01*
X385890Y101500D01*
D02*
G37*
G36*
X379500D02*
X374110D01*
X374182Y100956D01*
X374585Y99983D01*
X375226Y99147D01*
X376062Y98506D01*
X377034Y98103D01*
X378079Y97966D01*
X379500D01*
Y101500D01*
D02*
G37*
G36*
X357890D02*
X352500D01*
Y97966D01*
X353921D01*
X354965Y98103D01*
X355939Y98506D01*
X356774Y99147D01*
X357415Y99983D01*
X357818Y100956D01*
X357890Y101500D01*
D02*
G37*
G36*
X351500D02*
X346110D01*
X346182Y100956D01*
X346585Y99983D01*
X347226Y99147D01*
X348061Y98506D01*
X349035Y98103D01*
X350079Y97966D01*
X351500D01*
Y101500D01*
D02*
G37*
G36*
X381921Y95631D02*
X378079D01*
X377139Y95507D01*
X376263Y95145D01*
X375511Y94568D01*
X374934Y93815D01*
X374689Y93224D01*
X371324D01*
Y94765D01*
X366819D01*
X366581Y94765D01*
X365419D01*
X365181Y94765D01*
X360676D01*
Y93224D01*
X357311D01*
X357066Y93815D01*
X356489Y94568D01*
X355737Y95145D01*
X354861Y95507D01*
X353921Y95631D01*
X350079D01*
X349139Y95507D01*
X348263Y95145D01*
X347511Y94568D01*
X346934Y93815D01*
X346571Y92940D01*
X346448Y92000D01*
X346571Y91060D01*
X346934Y90184D01*
X347511Y89432D01*
X348263Y88855D01*
X349139Y88493D01*
X350079Y88369D01*
X353921D01*
X354861Y88493D01*
X355737Y88855D01*
X356489Y89432D01*
X357066Y90184D01*
X357311Y90776D01*
X360676D01*
Y89235D01*
X365181D01*
X365419Y89235D01*
X366581D01*
X366819Y89235D01*
X371324D01*
Y90776D01*
X374689D01*
X374934Y90184D01*
X375511Y89432D01*
X376263Y88855D01*
X377139Y88493D01*
X378079Y88369D01*
X381921D01*
X382861Y88493D01*
X383737Y88855D01*
X384489Y89432D01*
X385066Y90184D01*
X385429Y91060D01*
X385552Y92000D01*
X385429Y92940D01*
X385066Y93815D01*
X384489Y94568D01*
X383737Y95145D01*
X382861Y95507D01*
X381921Y95631D01*
D02*
G37*
G36*
X179665Y94547D02*
X177000D01*
Y92276D01*
X179665D01*
Y94547D01*
D02*
G37*
G36*
X176000D02*
X173335D01*
Y92276D01*
X176000D01*
Y94547D01*
D02*
G37*
G36*
X353921Y85631D02*
X350079D01*
X349139Y85507D01*
X348263Y85145D01*
X347511Y84568D01*
X346934Y83815D01*
X346571Y82940D01*
X346448Y82000D01*
X346571Y81060D01*
X346934Y80185D01*
X347511Y79432D01*
X348263Y78855D01*
X349139Y78493D01*
X350079Y78369D01*
X353921D01*
X354861Y78493D01*
X355737Y78855D01*
X356489Y79432D01*
X357066Y80185D01*
X357429Y81060D01*
X357552Y82000D01*
X357429Y82940D01*
X357066Y83815D01*
X356489Y84568D01*
X355737Y85145D01*
X354861Y85507D01*
X353921Y85631D01*
D02*
G37*
G36*
X204828Y94131D02*
X191000D01*
X190376Y94007D01*
X189847Y93654D01*
X180824Y84631D01*
X169888D01*
X169722Y84743D01*
X169000Y84886D01*
X168278Y84743D01*
X167666Y84334D01*
X167257Y83722D01*
X167114Y83000D01*
X167257Y82278D01*
X167666Y81666D01*
X168278Y81257D01*
X169000Y81114D01*
X169722Y81257D01*
X169888Y81369D01*
X180082D01*
X180662Y79969D01*
X177324Y76631D01*
X174388D01*
X174222Y76743D01*
X173500Y76886D01*
X172778Y76743D01*
X172166Y76334D01*
X171757Y75722D01*
X171614Y75000D01*
X171757Y74278D01*
X172166Y73666D01*
X172778Y73257D01*
X173500Y73114D01*
X174222Y73257D01*
X174388Y73369D01*
X178000D01*
X178624Y73493D01*
X179154Y73847D01*
X187176Y81869D01*
X192369D01*
Y81579D01*
X192493Y80639D01*
X192855Y79763D01*
X193432Y79011D01*
X194185Y78434D01*
X195060Y78071D01*
X196000Y77948D01*
X196940Y78071D01*
X197816Y78434D01*
X198568Y79011D01*
X199145Y79763D01*
X199507Y80639D01*
X199631Y81579D01*
Y85421D01*
X199507Y86361D01*
X199145Y87237D01*
X198568Y87989D01*
X197816Y88566D01*
X196940Y88929D01*
X196000Y89052D01*
X195060Y88929D01*
X194185Y88566D01*
X193432Y87989D01*
X192855Y87237D01*
X192493Y86361D01*
X192369Y85421D01*
Y85131D01*
X187918D01*
X187338Y86531D01*
X191676Y90869D01*
X204153D01*
X204369Y90653D01*
Y88642D01*
X204185Y88566D01*
X203432Y87989D01*
X202855Y87237D01*
X202493Y86361D01*
X202369Y85421D01*
Y81579D01*
X202493Y80639D01*
X202855Y79763D01*
X203432Y79011D01*
X204185Y78434D01*
X205060Y78071D01*
X206000Y77948D01*
X206940Y78071D01*
X207816Y78434D01*
X208568Y79011D01*
X209145Y79763D01*
X209507Y80639D01*
X209631Y81579D01*
Y85421D01*
X209507Y86361D01*
X209145Y87237D01*
X208568Y87989D01*
X207816Y88566D01*
X207631Y88642D01*
Y91328D01*
X207507Y91953D01*
X207154Y92482D01*
X205982Y93654D01*
X205453Y94007D01*
X204828Y94131D01*
D02*
G37*
G36*
X381921Y85631D02*
X378079D01*
X377139Y85507D01*
X376263Y85145D01*
X375511Y84568D01*
X374934Y83815D01*
X374571Y82940D01*
X374448Y82000D01*
X374571Y81060D01*
X374934Y80185D01*
X375511Y79432D01*
X376263Y78855D01*
X377139Y78493D01*
X378079Y78369D01*
X378369D01*
Y76176D01*
X371824Y69631D01*
X367667D01*
Y70324D01*
X362333D01*
Y69527D01*
X355677D01*
X355222Y70120D01*
X354583Y70610D01*
X353838Y70919D01*
X353039Y71024D01*
X351961D01*
X351162Y70919D01*
X350417Y70610D01*
X349778Y70120D01*
X349287Y69481D01*
X348979Y68736D01*
X348874Y67937D01*
X348979Y67138D01*
X349287Y66394D01*
X349778Y65754D01*
X350417Y65263D01*
X351162Y64955D01*
X351522Y64908D01*
Y63496D01*
X351057Y63434D01*
X350215Y63086D01*
X349493Y62531D01*
X348938Y61808D01*
X348589Y60966D01*
X348536Y60563D01*
X352500D01*
X356464D01*
X356411Y60966D01*
X356062Y61808D01*
X355507Y62531D01*
X354785Y63086D01*
X353943Y63434D01*
X353478Y63496D01*
Y64908D01*
X353838Y64955D01*
X354583Y65263D01*
X355222Y65754D01*
X355614Y66264D01*
X361567D01*
X361933Y65016D01*
X361933Y64150D01*
Y62646D01*
X368067D01*
Y64150D01*
X368067Y65016D01*
X368181Y66369D01*
X372500D01*
X373124Y66493D01*
X373654Y66847D01*
X381153Y74347D01*
X381507Y74876D01*
X381631Y75500D01*
Y78369D01*
X381921D01*
X382861Y78493D01*
X383737Y78855D01*
X384489Y79432D01*
X385066Y80185D01*
X385429Y81060D01*
X385552Y82000D01*
X385429Y82940D01*
X385066Y83815D01*
X384489Y84568D01*
X383737Y85145D01*
X382861Y85507D01*
X381921Y85631D01*
D02*
G37*
G36*
X48500Y68969D02*
Y65500D01*
X51969D01*
X51897Y66044D01*
X51494Y67017D01*
X50853Y67853D01*
X50017Y68494D01*
X49044Y68897D01*
X48500Y68969D01*
D02*
G37*
G36*
X47500D02*
X46956Y68897D01*
X45983Y68494D01*
X45147Y67853D01*
X44506Y67017D01*
X44103Y66044D01*
X44031Y65500D01*
X47500D01*
Y68969D01*
D02*
G37*
G36*
X78000Y68631D02*
X77060Y68507D01*
X76184Y68145D01*
X75432Y67568D01*
X74855Y66816D01*
X74493Y65940D01*
X74369Y65000D01*
X74493Y64060D01*
X74855Y63184D01*
X75432Y62432D01*
X76184Y61855D01*
X77060Y61493D01*
X78000Y61369D01*
X78940Y61493D01*
X79816Y61855D01*
X80568Y62432D01*
X81145Y63184D01*
X81507Y64060D01*
X81631Y65000D01*
X81507Y65940D01*
X81145Y66816D01*
X80568Y67568D01*
X79816Y68145D01*
X78940Y68507D01*
X78000Y68631D01*
D02*
G37*
G36*
X51969Y64500D02*
X48500D01*
Y61031D01*
X49044Y61103D01*
X50017Y61506D01*
X50853Y62147D01*
X51494Y62983D01*
X51897Y63956D01*
X51969Y64500D01*
D02*
G37*
G36*
X47500D02*
X44031D01*
X44103Y63956D01*
X44506Y62983D01*
X45147Y62147D01*
X45983Y61506D01*
X46956Y61103D01*
X47500Y61031D01*
Y64500D01*
D02*
G37*
G36*
X130854Y63567D02*
Y61000D01*
X133224D01*
Y63567D01*
X130854D01*
D02*
G37*
G36*
X368067Y61646D02*
X365500D01*
Y59276D01*
X368067D01*
Y61646D01*
D02*
G37*
G36*
X364500D02*
X361933D01*
Y59276D01*
X364500D01*
Y61646D01*
D02*
G37*
G36*
X381921Y62034D02*
X380500D01*
Y58500D01*
X385890D01*
X385818Y59044D01*
X385415Y60017D01*
X384774Y60853D01*
X383939Y61494D01*
X382965Y61897D01*
X381921Y62034D01*
D02*
G37*
G36*
X379500D02*
X378079D01*
X377034Y61897D01*
X376062Y61494D01*
X375226Y60853D01*
X374585Y60017D01*
X374182Y59044D01*
X374110Y58500D01*
X379500D01*
Y62034D01*
D02*
G37*
G36*
X133224Y60000D02*
X130854D01*
Y57433D01*
X133224D01*
Y60000D01*
D02*
G37*
G36*
X356464Y59563D02*
X353000D01*
Y56573D01*
X353039D01*
X353943Y56691D01*
X354785Y57040D01*
X355507Y57595D01*
X356062Y58318D01*
X356411Y59160D01*
X356464Y59563D01*
D02*
G37*
G36*
X352000D02*
X348536D01*
X348589Y59160D01*
X348938Y58318D01*
X349493Y57595D01*
X350215Y57040D01*
X351057Y56691D01*
X351961Y56573D01*
X352000D01*
Y59563D01*
D02*
G37*
G36*
X109146Y58000D02*
X106776D01*
Y55433D01*
X109146D01*
Y58000D01*
D02*
G37*
G36*
X385890Y57500D02*
X380500D01*
Y53966D01*
X381921D01*
X382965Y54103D01*
X383939Y54506D01*
X384774Y55147D01*
X385415Y55983D01*
X385818Y56956D01*
X385890Y57500D01*
D02*
G37*
G36*
X379500D02*
X374110D01*
X374182Y56956D01*
X374585Y55983D01*
X375226Y55147D01*
X376062Y54506D01*
X377034Y54103D01*
X378079Y53966D01*
X379500D01*
Y57500D01*
D02*
G37*
G36*
X16815Y51419D02*
X15631Y51263D01*
X14527Y50806D01*
X13579Y50078D01*
X12852Y49131D01*
X12651Y48647D01*
X11136D01*
X10936Y49131D01*
X10208Y50078D01*
X9261Y50806D01*
X8157Y51263D01*
X6972Y51419D01*
X5788Y51263D01*
X4684Y50806D01*
X3737Y50078D01*
X3009Y49131D01*
X2552Y48027D01*
X2396Y46843D01*
X2552Y45658D01*
X3009Y44554D01*
X3737Y43607D01*
X4684Y42880D01*
X5788Y42422D01*
X6972Y42266D01*
X8157Y42422D01*
X9261Y42880D01*
X10208Y43607D01*
X10936Y44554D01*
X11136Y45039D01*
X12651D01*
X12852Y44554D01*
X13579Y43607D01*
X14527Y42880D01*
X15631Y42422D01*
X16815Y42266D01*
X17999Y42422D01*
X19103Y42880D01*
X20051Y43607D01*
X20778Y44554D01*
X21235Y45658D01*
X21391Y46843D01*
X21235Y48027D01*
X20778Y49131D01*
X20051Y50078D01*
X19103Y50806D01*
X17999Y51263D01*
X16815Y51419D01*
D02*
G37*
G36*
X381921Y51631D02*
X378079D01*
X377139Y51507D01*
X376263Y51145D01*
X375511Y50568D01*
X374934Y49815D01*
X374571Y48940D01*
X374448Y48000D01*
X374571Y47060D01*
X374934Y46185D01*
X375511Y45432D01*
X376263Y44855D01*
X377139Y44493D01*
X378079Y44369D01*
X381921D01*
X382861Y44493D01*
X383737Y44855D01*
X384489Y45432D01*
X385066Y46185D01*
X385429Y47060D01*
X385552Y48000D01*
X385429Y48940D01*
X385066Y49815D01*
X384489Y50568D01*
X383737Y51145D01*
X382861Y51507D01*
X381921Y51631D01*
D02*
G37*
G36*
X100000Y45348D02*
Y43500D01*
X101848D01*
X101761Y43936D01*
X101230Y44730D01*
X100436Y45261D01*
X100000Y45348D01*
D02*
G37*
G36*
X99000D02*
X98564Y45261D01*
X97770Y44730D01*
X97239Y43936D01*
X97152Y43500D01*
X99000D01*
Y45348D01*
D02*
G37*
G36*
X101848Y42500D02*
X100000D01*
Y40652D01*
X100436Y40739D01*
X101230Y41270D01*
X101761Y42064D01*
X101848Y42500D01*
D02*
G37*
G36*
X99000D02*
X97152D01*
X97239Y42064D01*
X97770Y41270D01*
X98564Y40739D01*
X99000Y40652D01*
Y42500D01*
D02*
G37*
G36*
X345785Y43722D02*
X338585D01*
Y34648D01*
X345785D01*
Y43722D01*
D02*
G37*
G36*
X335943D02*
X328743D01*
Y34648D01*
X335943D01*
Y43722D01*
D02*
G37*
G36*
X320500Y76141D02*
X319681Y75978D01*
X318986Y75514D01*
X318522Y74819D01*
X318359Y74000D01*
X318522Y73181D01*
X318869Y72662D01*
Y48640D01*
X313950Y43722D01*
X309057D01*
Y34648D01*
X316258D01*
Y41415D01*
X321654Y46811D01*
X322007Y47340D01*
X322131Y47965D01*
Y72662D01*
X322478Y73181D01*
X322641Y74000D01*
X322478Y74819D01*
X322014Y75514D01*
X321319Y75978D01*
X320500Y76141D01*
D02*
G37*
G36*
X306415Y43722D02*
X299215D01*
Y34648D01*
X306415D01*
Y43722D01*
D02*
G37*
G36*
X289500Y81641D02*
X288681Y81478D01*
X287986Y81014D01*
X287936Y80940D01*
X287309D01*
X286684Y80816D01*
X286155Y80462D01*
X251346Y45654D01*
X250993Y45124D01*
X250869Y44500D01*
Y43722D01*
X248557D01*
Y34648D01*
X255757D01*
Y43722D01*
X255757D01*
X255429Y45122D01*
X287392Y77085D01*
X288117Y76904D01*
X288547Y75354D01*
X280532Y67339D01*
X280178Y66809D01*
X280054Y66185D01*
Y43722D01*
X278085D01*
Y34648D01*
X285285D01*
Y43722D01*
X283316D01*
Y65509D01*
X294707Y76900D01*
X295319Y77022D01*
X296014Y77486D01*
X296478Y78181D01*
X296641Y79000D01*
X296478Y79819D01*
X296014Y80514D01*
X295319Y80978D01*
X294500Y81141D01*
X293681Y80978D01*
X292986Y80514D01*
X292894Y80377D01*
X292268Y80351D01*
X291343Y80522D01*
X291014Y81014D01*
X290319Y81478D01*
X289500Y81641D01*
D02*
G37*
G36*
X275443Y43722D02*
X268243D01*
Y34648D01*
X275443D01*
Y43722D01*
D02*
G37*
G36*
X245915D02*
X238715D01*
Y34648D01*
X245915D01*
Y43722D01*
D02*
G37*
G36*
X224785D02*
X217585D01*
Y34648D01*
X224785D01*
Y43722D01*
D02*
G37*
G36*
X214943D02*
X207743D01*
Y34648D01*
X214943D01*
Y43722D01*
D02*
G37*
G36*
X195257D02*
X188057D01*
Y34648D01*
X195257D01*
Y43722D01*
D02*
G37*
G36*
X185415D02*
X178215D01*
Y34648D01*
X185415D01*
Y43722D01*
D02*
G37*
G36*
X163785D02*
X156585D01*
Y34648D01*
X163785D01*
Y43722D01*
D02*
G37*
G36*
X153943D02*
X146742D01*
Y34648D01*
X153943D01*
Y43722D01*
D02*
G37*
G36*
X134257D02*
X127058D01*
Y34648D01*
X134257D01*
Y43722D01*
D02*
G37*
G36*
X124415D02*
X117215D01*
Y34648D01*
X124415D01*
Y43722D01*
D02*
G37*
G36*
X381921Y41631D02*
X378079D01*
X377139Y41507D01*
X376263Y41145D01*
X375511Y40567D01*
X374934Y39816D01*
X374571Y38940D01*
X374448Y38000D01*
X374571Y37060D01*
X374934Y36184D01*
X375511Y35432D01*
X376263Y34855D01*
X377139Y34493D01*
X378079Y34369D01*
X381921D01*
X382861Y34493D01*
X383737Y34855D01*
X384489Y35432D01*
X385066Y36184D01*
X385429Y37060D01*
X385552Y38000D01*
X385429Y38940D01*
X385066Y39816D01*
X384489Y40567D01*
X383737Y41145D01*
X382861Y41507D01*
X381921Y41631D01*
D02*
G37*
G36*
X99921Y34534D02*
X98500D01*
Y31000D01*
X103890D01*
X103818Y31544D01*
X103415Y32517D01*
X102774Y33353D01*
X101938Y33994D01*
X100965Y34397D01*
X99921Y34534D01*
D02*
G37*
G36*
X97500D02*
X96079D01*
X95034Y34397D01*
X94061Y33994D01*
X93226Y33353D01*
X92585Y32517D01*
X92182Y31544D01*
X92110Y31000D01*
X97500D01*
Y34534D01*
D02*
G37*
G36*
X20815Y32094D02*
X17315D01*
Y27657D01*
X20815D01*
Y32094D01*
D02*
G37*
G36*
X16315D02*
X12815D01*
Y27657D01*
X16315D01*
Y32094D01*
D02*
G37*
G36*
X52500Y29449D02*
Y27500D01*
X54449D01*
X54355Y27975D01*
X53802Y28802D01*
X52975Y29355D01*
X52500Y29449D01*
D02*
G37*
G36*
X103890Y30000D02*
X98500D01*
Y26465D01*
X99921D01*
X100965Y26603D01*
X101938Y27006D01*
X102774Y27647D01*
X103415Y28483D01*
X103818Y29456D01*
X103890Y30000D01*
D02*
G37*
G36*
X97500D02*
X92110D01*
X92182Y29456D01*
X92585Y28483D01*
X93226Y27647D01*
X94061Y27006D01*
X95034Y26603D01*
X96079Y26465D01*
X97500D01*
Y30000D01*
D02*
G37*
G36*
X294000Y136141D02*
X293181Y135978D01*
X292486Y135514D01*
X292022Y134819D01*
X291859Y134000D01*
X292022Y133181D01*
X292486Y132486D01*
X293181Y132022D01*
X294000Y131859D01*
X294222Y131903D01*
X298175Y127951D01*
Y76049D01*
X291563Y69437D01*
X291275Y69007D01*
X291175Y68500D01*
Y29140D01*
X290986Y29014D01*
X290522Y28319D01*
X290359Y27500D01*
X290522Y26681D01*
X290986Y25986D01*
X291681Y25522D01*
X292500Y25359D01*
X293319Y25522D01*
X294014Y25986D01*
X294478Y26681D01*
X294641Y27500D01*
X294478Y28319D01*
X294014Y29014D01*
X293826Y29140D01*
Y67951D01*
X300437Y74563D01*
X300725Y74993D01*
X300826Y75500D01*
Y128500D01*
X300725Y129007D01*
X300437Y129437D01*
X296097Y133778D01*
X296141Y134000D01*
X295978Y134819D01*
X295514Y135514D01*
X294819Y135978D01*
X294000Y136141D01*
D02*
G37*
G36*
X54449Y26500D02*
X52500D01*
Y24551D01*
X52975Y24645D01*
X53802Y25198D01*
X54355Y26024D01*
X54449Y26500D01*
D02*
G37*
G36*
X20815Y26658D02*
X17315D01*
Y22220D01*
X20815D01*
Y26658D01*
D02*
G37*
G36*
X16315D02*
X12815D01*
Y22220D01*
X16315D01*
Y26658D01*
D02*
G37*
G36*
X327437Y23500D02*
X323000D01*
Y20000D01*
X327437D01*
Y23500D01*
D02*
G37*
G36*
X266937D02*
X262500D01*
Y20000D01*
X266937D01*
Y23500D01*
D02*
G37*
G36*
X206437D02*
X202000D01*
Y20000D01*
X206437D01*
Y23500D01*
D02*
G37*
G36*
X145437D02*
X141000D01*
Y20000D01*
X145437D01*
Y23500D01*
D02*
G37*
G36*
X322000D02*
X317563D01*
Y20000D01*
X322000D01*
Y23500D01*
D02*
G37*
G36*
X261500D02*
X257063D01*
Y20000D01*
X261500D01*
Y23500D01*
D02*
G37*
G36*
X201000D02*
X196563D01*
Y20000D01*
X201000D01*
Y23500D01*
D02*
G37*
G36*
X140000D02*
X135563D01*
Y20000D01*
X140000D01*
Y23500D01*
D02*
G37*
G36*
X327437Y19000D02*
X323000D01*
Y15500D01*
X327437D01*
Y19000D01*
D02*
G37*
G36*
X322000D02*
X317563D01*
Y15500D01*
X322000D01*
Y19000D01*
D02*
G37*
G36*
X266937D02*
X262500D01*
Y15500D01*
X266937D01*
Y19000D01*
D02*
G37*
G36*
X261500D02*
X257063D01*
Y15500D01*
X261500D01*
Y19000D01*
D02*
G37*
G36*
X206437D02*
X202000D01*
Y15500D01*
X206437D01*
Y19000D01*
D02*
G37*
G36*
X201000D02*
X196563D01*
Y15500D01*
X201000D01*
Y19000D01*
D02*
G37*
G36*
X145437D02*
X141000D01*
Y15500D01*
X145437D01*
Y19000D01*
D02*
G37*
G36*
X140000D02*
X135563D01*
Y15500D01*
X140000D01*
Y19000D01*
D02*
G37*
G36*
X202000Y11949D02*
Y10000D01*
X203949D01*
X203855Y10475D01*
X203302Y11302D01*
X202476Y11855D01*
X202000Y11949D01*
D02*
G37*
G36*
X201000D02*
X200524Y11855D01*
X199698Y11302D01*
X199145Y10475D01*
X199050Y10000D01*
X201000D01*
Y11949D01*
D02*
G37*
G36*
X262500Y11450D02*
Y9500D01*
X264450D01*
X264355Y9975D01*
X263802Y10802D01*
X262976Y11355D01*
X262500Y11450D01*
D02*
G37*
G36*
X261500D02*
X261024Y11355D01*
X260198Y10802D01*
X259645Y9975D01*
X259550Y9500D01*
X261500D01*
Y11450D01*
D02*
G37*
G36*
X141000D02*
Y9500D01*
X142949D01*
X142855Y9975D01*
X142302Y10802D01*
X141475Y11355D01*
X141000Y11450D01*
D02*
G37*
G36*
X140000D02*
X139524Y11355D01*
X138698Y10802D01*
X138145Y9975D01*
X138050Y9500D01*
X140000D01*
Y11450D01*
D02*
G37*
G36*
X16815Y12049D02*
X15631Y11893D01*
X14527Y11435D01*
X13579Y10708D01*
X12852Y9760D01*
X12651Y9276D01*
X11136D01*
X10936Y9760D01*
X10208Y10708D01*
X9261Y11435D01*
X8157Y11893D01*
X6972Y12049D01*
X5788Y11893D01*
X4684Y11435D01*
X3737Y10708D01*
X3009Y9760D01*
X2552Y8657D01*
X2396Y7472D01*
X2552Y6288D01*
X3009Y5184D01*
X3737Y4237D01*
X4684Y3509D01*
X5788Y3052D01*
X6972Y2896D01*
X8157Y3052D01*
X9261Y3509D01*
X10208Y4237D01*
X10936Y5184D01*
X11136Y5668D01*
X12651D01*
X12852Y5184D01*
X13579Y4237D01*
X14527Y3509D01*
X15631Y3052D01*
X16815Y2896D01*
X17999Y3052D01*
X19103Y3509D01*
X20051Y4237D01*
X20778Y5184D01*
X21235Y6288D01*
X21391Y7472D01*
X21235Y8657D01*
X20778Y9760D01*
X20051Y10708D01*
X19103Y11435D01*
X17999Y11893D01*
X16815Y12049D01*
D02*
G37*
G36*
X377953Y26232D02*
X376292Y26068D01*
X374694Y25583D01*
X373222Y24796D01*
X371932Y23738D01*
X370873Y22447D01*
X370086Y20975D01*
X369601Y19378D01*
X369438Y17717D01*
X369601Y16055D01*
X370086Y14458D01*
X370873Y12986D01*
X371932Y11695D01*
X373222Y10637D01*
X374694Y9850D01*
X376292Y9365D01*
X377953Y9201D01*
X379614Y9365D01*
X381211Y9850D01*
X382683Y10637D01*
X383974Y11695D01*
X385033Y12986D01*
X385820Y14458D01*
X386304Y16055D01*
X386468Y17717D01*
X386304Y19378D01*
X385820Y20975D01*
X385033Y22447D01*
X383974Y23738D01*
X382683Y24796D01*
X381211Y25583D01*
X379614Y26068D01*
X377953Y26232D01*
D02*
G37*
G36*
X323000Y10449D02*
Y8500D01*
X324950D01*
X324855Y8975D01*
X324302Y9802D01*
X323476Y10355D01*
X323000Y10449D01*
D02*
G37*
G36*
X322000D02*
X321525Y10355D01*
X320698Y9802D01*
X320145Y8975D01*
X320051Y8500D01*
X322000D01*
Y10449D01*
D02*
G37*
G36*
X203949Y9000D02*
X202000D01*
Y7051D01*
X202476Y7145D01*
X203302Y7698D01*
X203855Y8525D01*
X203949Y9000D01*
D02*
G37*
G36*
X201000D02*
X199050D01*
X199145Y8525D01*
X199698Y7698D01*
X200524Y7145D01*
X201000Y7051D01*
Y9000D01*
D02*
G37*
G36*
X264450Y8500D02*
X262500D01*
Y6550D01*
X262976Y6645D01*
X263802Y7198D01*
X264355Y8025D01*
X264450Y8500D01*
D02*
G37*
G36*
X261500D02*
X259550D01*
X259645Y8025D01*
X260198Y7198D01*
X261024Y6645D01*
X261500Y6550D01*
Y8500D01*
D02*
G37*
G36*
X142949D02*
X141000D01*
Y6550D01*
X141475Y6645D01*
X142302Y7198D01*
X142855Y8025D01*
X142949Y8500D01*
D02*
G37*
G36*
X140000D02*
X138050D01*
X138145Y8025D01*
X138698Y7198D01*
X139524Y6645D01*
X140000Y6550D01*
Y8500D01*
D02*
G37*
G36*
X324950Y7500D02*
X323000D01*
Y5551D01*
X323476Y5645D01*
X324302Y6198D01*
X324855Y7025D01*
X324950Y7500D01*
D02*
G37*
G36*
X322000D02*
X320051D01*
X320145Y7025D01*
X320698Y6198D01*
X321525Y5645D01*
X322000Y5551D01*
Y7500D01*
D02*
G37*
G36*
X342185Y24076D02*
X341001Y23920D01*
X339897Y23463D01*
X338949Y22736D01*
X338222Y21788D01*
X337765Y20684D01*
X337609Y19500D01*
X337765Y18316D01*
X338222Y17212D01*
X338949Y16264D01*
X339897Y15537D01*
X340381Y15336D01*
Y13821D01*
X339897Y13621D01*
X338949Y12893D01*
X338222Y11946D01*
X337765Y10842D01*
X337609Y9657D01*
X337765Y8473D01*
X338222Y7369D01*
X338949Y6422D01*
X339897Y5694D01*
X341001Y5237D01*
X342185Y5081D01*
X343369Y5237D01*
X344473Y5694D01*
X345421Y6422D01*
X346148Y7369D01*
X346605Y8473D01*
X346761Y9657D01*
X346605Y10842D01*
X346148Y11946D01*
X345421Y12893D01*
X344473Y13621D01*
X343989Y13821D01*
Y15336D01*
X344473Y15537D01*
X345421Y16264D01*
X346148Y17212D01*
X346605Y18316D01*
X346761Y19500D01*
X346605Y20684D01*
X346148Y21788D01*
X345421Y22736D01*
X344473Y23463D01*
X343369Y23920D01*
X342185Y24076D01*
D02*
G37*
G36*
X302815D02*
X301631Y23920D01*
X300527Y23463D01*
X299579Y22736D01*
X298852Y21788D01*
X298395Y20684D01*
X298239Y19500D01*
X298395Y18316D01*
X298852Y17212D01*
X299579Y16264D01*
X300527Y15537D01*
X301011Y15336D01*
Y13821D01*
X300527Y13621D01*
X299579Y12893D01*
X298852Y11946D01*
X298395Y10842D01*
X298239Y9657D01*
X298395Y8473D01*
X298852Y7369D01*
X299579Y6422D01*
X300527Y5694D01*
X301631Y5237D01*
X302815Y5081D01*
X303999Y5237D01*
X305103Y5694D01*
X306051Y6422D01*
X306778Y7369D01*
X307235Y8473D01*
X307391Y9657D01*
X307235Y10842D01*
X306778Y11946D01*
X306051Y12893D01*
X305103Y13621D01*
X304619Y13821D01*
Y15336D01*
X305103Y15537D01*
X306051Y16264D01*
X306778Y17212D01*
X307235Y18316D01*
X307391Y19500D01*
X307235Y20684D01*
X306778Y21788D01*
X306051Y22736D01*
X305103Y23463D01*
X303999Y23920D01*
X302815Y24076D01*
D02*
G37*
G36*
X281685D02*
X280501Y23920D01*
X279397Y23463D01*
X278449Y22736D01*
X277722Y21788D01*
X277265Y20684D01*
X277109Y19500D01*
X277265Y18316D01*
X277722Y17212D01*
X278449Y16264D01*
X279397Y15537D01*
X279881Y15336D01*
Y13821D01*
X279397Y13621D01*
X278449Y12893D01*
X277722Y11946D01*
X277265Y10842D01*
X277109Y9657D01*
X277265Y8473D01*
X277722Y7369D01*
X278449Y6422D01*
X279397Y5694D01*
X280501Y5237D01*
X281685Y5081D01*
X282869Y5237D01*
X283973Y5694D01*
X284921Y6422D01*
X285648Y7369D01*
X286105Y8473D01*
X286261Y9657D01*
X286105Y10842D01*
X285648Y11946D01*
X284921Y12893D01*
X283973Y13621D01*
X283489Y13821D01*
Y15336D01*
X283973Y15537D01*
X284921Y16264D01*
X285648Y17212D01*
X286105Y18316D01*
X286261Y19500D01*
X286105Y20684D01*
X285648Y21788D01*
X284921Y22736D01*
X283973Y23463D01*
X282869Y23920D01*
X281685Y24076D01*
D02*
G37*
G36*
X242315D02*
X241131Y23920D01*
X240027Y23463D01*
X239079Y22736D01*
X238352Y21788D01*
X237895Y20684D01*
X237739Y19500D01*
X237895Y18316D01*
X238352Y17212D01*
X239079Y16264D01*
X240027Y15537D01*
X240511Y15336D01*
Y13821D01*
X240027Y13621D01*
X239079Y12893D01*
X238352Y11946D01*
X237895Y10842D01*
X237739Y9657D01*
X237895Y8473D01*
X238352Y7369D01*
X239079Y6422D01*
X240027Y5694D01*
X241131Y5237D01*
X242315Y5081D01*
X243499Y5237D01*
X244603Y5694D01*
X245551Y6422D01*
X246278Y7369D01*
X246735Y8473D01*
X246891Y9657D01*
X246735Y10842D01*
X246278Y11946D01*
X245551Y12893D01*
X244603Y13621D01*
X244119Y13821D01*
Y15336D01*
X244603Y15537D01*
X245551Y16264D01*
X246278Y17212D01*
X246735Y18316D01*
X246891Y19500D01*
X246735Y20684D01*
X246278Y21788D01*
X245551Y22736D01*
X244603Y23463D01*
X243499Y23920D01*
X242315Y24076D01*
D02*
G37*
G36*
X221185D02*
X220001Y23920D01*
X218897Y23463D01*
X217949Y22736D01*
X217222Y21788D01*
X216765Y20684D01*
X216609Y19500D01*
X216765Y18316D01*
X217222Y17212D01*
X217949Y16264D01*
X218897Y15537D01*
X219381Y15336D01*
Y13821D01*
X218897Y13621D01*
X217949Y12893D01*
X217222Y11946D01*
X216765Y10842D01*
X216609Y9657D01*
X216765Y8473D01*
X217222Y7369D01*
X217949Y6422D01*
X218897Y5694D01*
X220001Y5237D01*
X221185Y5081D01*
X222369Y5237D01*
X223473Y5694D01*
X224421Y6422D01*
X225148Y7369D01*
X225605Y8473D01*
X225761Y9657D01*
X225605Y10842D01*
X225148Y11946D01*
X224421Y12893D01*
X223473Y13621D01*
X222989Y13821D01*
Y15336D01*
X223473Y15537D01*
X224421Y16264D01*
X225148Y17212D01*
X225605Y18316D01*
X225761Y19500D01*
X225605Y20684D01*
X225148Y21788D01*
X224421Y22736D01*
X223473Y23463D01*
X222369Y23920D01*
X221185Y24076D01*
D02*
G37*
G36*
X181815D02*
X180631Y23920D01*
X179527Y23463D01*
X178579Y22736D01*
X177852Y21788D01*
X177395Y20684D01*
X177239Y19500D01*
X177395Y18316D01*
X177852Y17212D01*
X178579Y16264D01*
X179527Y15537D01*
X180011Y15336D01*
Y13821D01*
X179527Y13621D01*
X178579Y12893D01*
X177852Y11946D01*
X177395Y10842D01*
X177239Y9657D01*
X177395Y8473D01*
X177852Y7369D01*
X178579Y6422D01*
X179527Y5694D01*
X180631Y5237D01*
X181815Y5081D01*
X182999Y5237D01*
X184103Y5694D01*
X185051Y6422D01*
X185778Y7369D01*
X186235Y8473D01*
X186391Y9657D01*
X186235Y10842D01*
X185778Y11946D01*
X185051Y12893D01*
X184103Y13621D01*
X183619Y13821D01*
Y15336D01*
X184103Y15537D01*
X185051Y16264D01*
X185778Y17212D01*
X186235Y18316D01*
X186391Y19500D01*
X186235Y20684D01*
X185778Y21788D01*
X185051Y22736D01*
X184103Y23463D01*
X182999Y23920D01*
X181815Y24076D01*
D02*
G37*
G36*
X160185D02*
X159001Y23920D01*
X157897Y23463D01*
X156949Y22736D01*
X156222Y21788D01*
X155765Y20684D01*
X155609Y19500D01*
X155765Y18316D01*
X156222Y17212D01*
X156949Y16264D01*
X157897Y15537D01*
X158381Y15336D01*
Y13821D01*
X157897Y13621D01*
X156949Y12893D01*
X156222Y11946D01*
X155765Y10842D01*
X155609Y9657D01*
X155765Y8473D01*
X156222Y7369D01*
X156949Y6422D01*
X157897Y5694D01*
X159001Y5237D01*
X160185Y5081D01*
X161369Y5237D01*
X162473Y5694D01*
X163421Y6422D01*
X164148Y7369D01*
X164605Y8473D01*
X164761Y9657D01*
X164605Y10842D01*
X164148Y11946D01*
X163421Y12893D01*
X162473Y13621D01*
X161989Y13821D01*
Y15336D01*
X162473Y15537D01*
X163421Y16264D01*
X164148Y17212D01*
X164605Y18316D01*
X164761Y19500D01*
X164605Y20684D01*
X164148Y21788D01*
X163421Y22736D01*
X162473Y23463D01*
X161369Y23920D01*
X160185Y24076D01*
D02*
G37*
G36*
X120815D02*
X119631Y23920D01*
X118527Y23463D01*
X117579Y22736D01*
X116852Y21788D01*
X116395Y20684D01*
X116239Y19500D01*
X116395Y18316D01*
X116852Y17212D01*
X117579Y16264D01*
X118527Y15537D01*
X119011Y15336D01*
Y13821D01*
X118527Y13621D01*
X117579Y12893D01*
X116852Y11946D01*
X116395Y10842D01*
X116239Y9657D01*
X116395Y8473D01*
X116852Y7369D01*
X117579Y6422D01*
X118527Y5694D01*
X119631Y5237D01*
X120815Y5081D01*
X121999Y5237D01*
X123103Y5694D01*
X124051Y6422D01*
X124778Y7369D01*
X125235Y8473D01*
X125391Y9657D01*
X125235Y10842D01*
X124778Y11946D01*
X124051Y12893D01*
X123103Y13621D01*
X122619Y13821D01*
Y15336D01*
X123103Y15537D01*
X124051Y16264D01*
X124778Y17212D01*
X125235Y18316D01*
X125391Y19500D01*
X125235Y20684D01*
X124778Y21788D01*
X124051Y22736D01*
X123103Y23463D01*
X121999Y23920D01*
X120815Y24076D01*
D02*
G37*
%LPD*%
D10*
X123000Y96000D02*
X126000D01*
X120484Y93484D02*
X123000Y96000D01*
X120484Y90406D02*
Y93484D01*
X122453Y90406D02*
Y92953D01*
X134453D01*
X125406Y85484D02*
X135578D01*
X136094Y86000D01*
X136500D01*
X140000Y74000D02*
Y87000D01*
X135000Y89500D02*
X137500D01*
X140000Y87000D01*
X126724Y87134D02*
X132634D01*
X135000Y89500D01*
X130888Y83516D02*
X132904Y81500D01*
X126455Y87403D02*
X126724Y87134D01*
X125406Y87453D02*
X125455Y87403D01*
X126455D01*
X132904Y81500D02*
X137000D01*
X125406Y83516D02*
X130888D01*
X118516Y94016D02*
X123000Y98500D01*
X118516Y90406D02*
Y94016D01*
X123000Y98500D02*
X131146D01*
X134453Y92953D02*
X136854Y95354D01*
Y98500D01*
X107500Y80500D02*
X107768Y80768D01*
X109768D01*
X110547Y81547D01*
X113594D01*
X116547Y90406D02*
Y93953D01*
X133000Y67000D02*
X140000Y74000D01*
X109500Y85500D02*
X113578D01*
X113594Y85484D01*
X123453Y67000D02*
X133000D01*
X120484Y72500D02*
Y78594D01*
Y58500D02*
Y72500D01*
X131047D02*
X131500Y72047D01*
X120484Y72500D02*
X131047D01*
X125406Y81547D02*
X130453D01*
X108000Y83516D02*
X113594D01*
X124500Y60646D02*
X124646Y60500D01*
X123500Y64500D02*
X124500Y63500D01*
Y60646D02*
Y63500D01*
X123453Y67000D02*
X123500Y66953D01*
Y64500D02*
Y66953D01*
X115354Y58500D02*
Y61854D01*
X117500Y64000D01*
Y66953D02*
X117547Y67000D01*
X117500Y64000D02*
Y66953D01*
X117547Y67000D02*
Y71241D01*
X118647Y72341D01*
Y75295D01*
X118516Y75427D02*
X118647Y75295D01*
X118516Y75427D02*
Y78594D01*
X116547Y74047D02*
Y78594D01*
D49*
X365000Y67854D02*
D03*
Y62146D02*
D03*
D50*
X96453Y91000D02*
D03*
X90547D02*
D03*
X159453Y101000D02*
D03*
X153547D02*
D03*
X123453Y67000D02*
D03*
X117547D02*
D03*
X363047Y92000D02*
D03*
X368953D02*
D03*
D51*
X131146Y98500D02*
D03*
X136854D02*
D03*
X96354Y99500D02*
D03*
X90646D02*
D03*
X116646Y105000D02*
D03*
X122354D02*
D03*
X116646Y113500D02*
D03*
X122354D02*
D03*
X124646Y60500D02*
D03*
X130354D02*
D03*
X115354Y58500D02*
D03*
X109646D02*
D03*
X186646Y100500D02*
D03*
X192354D02*
D03*
D52*
X131500Y77953D02*
D03*
Y72047D02*
D03*
X90500Y83953D02*
D03*
Y78047D02*
D03*
X176500Y95047D02*
D03*
Y100953D02*
D03*
D60*
X97000Y110000D02*
X97500D01*
X90646Y103646D02*
X97000Y110000D01*
X90646Y99500D02*
Y103646D01*
X364959Y67896D02*
X365000Y67854D01*
X352541Y67896D02*
X364959D01*
X352500Y67937D02*
X352541Y67896D01*
X365000Y67854D02*
X365146Y68000D01*
X372500D02*
X380000Y75500D01*
X365146Y68000D02*
X372500D01*
X380000Y75500D02*
Y82000D01*
X252157Y39185D02*
Y40122D01*
X281685Y66185D02*
X294500Y79000D01*
X289309Y79309D02*
X289500Y79500D01*
X287309Y79309D02*
X289309D01*
X173500Y75000D02*
X178000D01*
X186500Y83500D02*
X196000D01*
X178000Y75000D02*
X186500Y83500D01*
X169000Y83000D02*
X181500D01*
X206000Y83500D02*
Y91328D01*
X204828Y92500D02*
X206000Y91328D01*
X191000Y92500D02*
X204828D01*
X181500Y83000D02*
X191000Y92500D01*
X216000Y83500D02*
Y92000D01*
X192354Y100500D02*
X207500D01*
X216000Y92000D01*
X131500Y77953D02*
X135547D01*
X137000Y76500D01*
X176500Y100953D02*
X176726Y100726D01*
X186419D01*
X186646Y100500D01*
X111000Y108500D02*
X111096Y108596D01*
Y110096D01*
X114500Y113500D01*
X116646D01*
X105000Y90000D02*
Y112000D01*
X111000Y118000D02*
X129000D01*
X105000Y112000D02*
X111000Y118000D01*
X116646Y105000D02*
Y113500D01*
X113500Y105000D02*
X116646D01*
X112000Y97500D02*
Y103500D01*
X113500Y105000D01*
X129000Y118000D02*
X146000Y101000D01*
X96403Y91049D02*
X96453Y91000D01*
X96403Y91049D02*
Y99451D01*
X96354Y99500D02*
X96403Y99451D01*
X90500Y83953D02*
X90524Y83976D01*
Y90976D01*
X90547Y91000D01*
X159453Y101000D02*
X159476Y100976D01*
X176476D01*
X176500Y100953D01*
X146000Y101000D02*
X153547D01*
X90500Y83953D02*
X107563D01*
X108000Y83516D01*
X90500Y75219D02*
Y78047D01*
X91672Y74047D02*
X116547D01*
X90500Y75219D02*
X91672Y74047D01*
X108000Y28579D02*
Y44946D01*
X120484Y57430D01*
Y58500D01*
X96079Y10500D02*
X98000D01*
X89000Y17579D02*
X96079Y10500D01*
X89000Y17579D02*
Y46500D01*
X116547Y74047D01*
X98000Y20500D02*
X99921D01*
X108000Y28579D01*
X252500Y44500D02*
X287309Y79309D01*
X252500Y39528D02*
Y44500D01*
X252157Y39185D02*
X252500Y39528D01*
X281685Y39185D02*
Y66185D01*
X312657Y39185D02*
Y40122D01*
X320500Y47965D01*
Y74000D01*
D61*
X131500Y77953D02*
Y80500D01*
X130453Y81547D02*
X131500Y80500D01*
X258000Y144500D02*
X323000D01*
X340500Y127000D01*
X189000Y139000D02*
Y164000D01*
X352000Y92000D02*
X363047D01*
X368953D02*
X380000D01*
D62*
X115547Y93953D02*
X116547D01*
X112000Y97500D02*
X115547Y93953D01*
X105000Y90000D02*
X109500Y85500D01*
X299500Y75500D02*
Y128500D01*
X294000Y134000D02*
X299500Y128500D01*
X292500Y27500D02*
Y68500D01*
X299500Y75500D01*
X265500Y107000D02*
X278000Y119500D01*
Y136000D01*
X281500Y119000D02*
Y133000D01*
X267000Y104500D02*
X281500Y119000D01*
X266000Y111000D02*
X273500Y118500D01*
Y141000D01*
X220500Y104500D02*
X267000D01*
X158000Y111500D02*
X213500D01*
X220500Y104500D01*
X222000Y107000D02*
X265500D01*
X213500Y115500D02*
X222000Y107000D01*
X162000Y115500D02*
X213500D01*
X226500Y111000D02*
X266000D01*
X270500Y119000D02*
Y138000D01*
X230000Y115000D02*
X266500D01*
X270500Y119000D01*
D63*
X113195Y123305D02*
X115400Y121100D01*
X118700D02*
X122500Y124900D01*
X115400Y121100D02*
X118700D01*
X122550Y124950D02*
X122600Y124900D01*
X59500Y83000D02*
X99805Y123305D01*
X113195D01*
X36500Y46843D02*
Y66500D01*
X96905Y126906D02*
X117500D01*
X36500Y66500D02*
X96905Y126906D01*
X48500Y52000D02*
X59500Y63000D01*
Y83000D01*
X189900Y128600D02*
X231400D01*
X189500Y129000D02*
X189900Y128600D01*
X192500Y125000D02*
X228323D01*
X164000Y128600D02*
X189100D01*
X189500Y129000D01*
X192400Y125000D02*
X192500Y124900D01*
X166500Y125000D02*
X192400D01*
X166400Y124900D02*
X166500Y125000D01*
X122600Y124900D02*
X166400D01*
X119194Y128600D02*
X164000D01*
X117500Y126906D02*
X119194Y128600D01*
X48500Y29315D02*
Y52000D01*
X36500Y17315D02*
X37437D01*
X38937Y18815D01*
Y19752D01*
X48500Y29315D01*
X36500Y7472D02*
Y17315D01*
Y37000D02*
Y46843D01*
X62986Y204500D02*
X85972D01*
X115500Y174972D01*
D64*
X40000Y204500D02*
X62986D01*
X48000Y105000D02*
X62986Y119986D01*
Y204500D01*
D65*
X97500Y110000D02*
D03*
X48000Y65000D02*
D03*
X78000D02*
D03*
D66*
X352500Y60063D02*
D03*
Y67937D02*
D03*
D67*
X206000Y83500D02*
D03*
X216000D02*
D03*
X196000D02*
D03*
D68*
X98000Y20500D02*
D03*
Y30500D02*
D03*
Y10500D02*
D03*
X380000Y48000D02*
D03*
Y58000D02*
D03*
Y38000D02*
D03*
X352000Y92000D02*
D03*
Y102000D02*
D03*
Y82000D02*
D03*
X380000Y92000D02*
D03*
Y102000D02*
D03*
Y82000D02*
D03*
D69*
X16815Y27158D02*
D03*
D70*
X36500Y37000D02*
D03*
Y17315D02*
D03*
Y7472D02*
D03*
Y46843D02*
D03*
D71*
X6972D02*
D03*
X16815D02*
D03*
X6972Y7472D02*
D03*
X16815D02*
D03*
X342185Y19500D02*
D03*
Y9657D02*
D03*
X302815Y19500D02*
D03*
Y9657D02*
D03*
X281685Y19500D02*
D03*
Y9657D02*
D03*
X242315Y19500D02*
D03*
Y9657D02*
D03*
X221185Y19500D02*
D03*
Y9657D02*
D03*
X181815Y19500D02*
D03*
Y9657D02*
D03*
X160185Y19500D02*
D03*
Y9657D02*
D03*
X120815Y19500D02*
D03*
Y9657D02*
D03*
X48000Y105000D02*
D03*
Y135000D02*
D03*
X78000Y125000D02*
D03*
D72*
X302815Y39185D02*
D03*
X342185D02*
D03*
X332343D02*
D03*
X312657D02*
D03*
X242315D02*
D03*
X281685D02*
D03*
X271843D02*
D03*
X252157D02*
D03*
X181815D02*
D03*
X221185D02*
D03*
X211343D02*
D03*
X191657D02*
D03*
X120815D02*
D03*
X160185D02*
D03*
X150343D02*
D03*
X130657D02*
D03*
D73*
X322500Y19500D02*
D03*
X262000D02*
D03*
X201500D02*
D03*
X140500D02*
D03*
D74*
X162992Y221063D02*
D03*
Y178937D02*
D03*
X287008Y184055D02*
D03*
Y215945D02*
D03*
D75*
X328500Y204890D02*
D03*
Y191110D02*
D03*
D76*
X115567Y234500D02*
D03*
X76000D02*
D03*
X135843D02*
D03*
X55724D02*
D03*
D77*
X115500Y174972D02*
D03*
Y204500D02*
D03*
D78*
X362000Y223116D02*
D03*
Y168884D02*
D03*
D79*
X130000Y111000D02*
D03*
X136500Y86000D02*
D03*
X126000Y96000D02*
D03*
X173500Y75000D02*
D03*
X169000Y83000D02*
D03*
X111000Y108500D02*
D03*
X112000Y97500D02*
D03*
X137000Y81500D02*
D03*
D80*
X294500Y79000D02*
D03*
X289500Y79500D02*
D03*
X294000Y134000D02*
D03*
X292500Y27500D02*
D03*
X52000Y27000D02*
D03*
X140500Y9000D02*
D03*
X201500Y9500D02*
D03*
X262000Y9000D02*
D03*
X322500Y8000D02*
D03*
X277500Y103500D02*
D03*
X243000Y154000D02*
D03*
X215500Y141000D02*
D03*
X166000Y143500D02*
D03*
X189000Y164000D02*
D03*
Y139000D02*
D03*
X278000Y136000D02*
D03*
X281500Y133000D02*
D03*
X273500Y141000D02*
D03*
X270500Y138000D02*
D03*
X226500Y111000D02*
D03*
X230000Y115000D02*
D03*
X158000Y111500D02*
D03*
X162000Y115500D02*
D03*
X320500Y74000D02*
D03*
X231400Y128600D02*
D03*
X228323Y125000D02*
D03*
X192500Y124900D02*
D03*
X189500Y129000D02*
D03*
X166500Y125000D02*
D03*
X164000Y128600D02*
D03*
X122500Y124900D02*
D03*
X117500Y126906D02*
D03*
X340500Y127000D02*
D03*
X258000Y144500D02*
D03*
D81*
X137000Y76500D02*
D03*
X107500Y80500D02*
D03*
D82*
X99500Y43000D02*
D03*
D83*
X377953Y17717D02*
D03*
Y236221D02*
D03*
X78740Y181102D02*
D03*
Y17717D02*
D03*
D84*
X40000Y204500D02*
D03*
D85*
X119500Y84500D02*
D03*
D86*
X113594Y87453D02*
D03*
Y85484D02*
D03*
Y81547D02*
D03*
Y83516D02*
D03*
X125406Y87453D02*
D03*
Y83516D02*
D03*
Y85484D02*
D03*
Y81547D02*
D03*
D87*
X116547Y90406D02*
D03*
X118516D02*
D03*
X120484D02*
D03*
X122453D02*
D03*
X118516Y78594D02*
D03*
X122453D02*
D03*
X120484D02*
D03*
X116547D02*
D03*
M02*
