G04*
G04 #@! TF.GenerationSoftware,Altium Limited,Altium Designer,20.0.13 (296)*
G04*
G04 Layer_Physical_Order=1*
G04 Layer_Color=255*
%FSLAX25Y25*%
%MOIN*%
G70*
G01*
G75*
%ADD10C,0.01000*%
%ADD24R,0.05315X0.01575*%
%ADD49R,0.04134X0.03740*%
%ADD50R,0.03543X0.04331*%
%ADD51R,0.03740X0.04134*%
%ADD52R,0.04331X0.03543*%
%ADD53R,0.02756X0.02559*%
%ADD54R,0.04724X0.04724*%
%ADD55R,0.20000X0.20000*%
%ADD56O,0.06102X0.01378*%
%ADD57R,0.05906X0.07874*%
%ADD58R,0.14961X0.07874*%
%ADD59R,0.03150X0.03543*%
%ADD60C,0.01400*%
%ADD61C,0.02000*%
%ADD62C,0.03000*%
%ADD63C,0.01200*%
%ADD64C,0.06000*%
%ADD65C,0.07087*%
%ADD66C,0.06000*%
%ADD67C,0.07874*%
%ADD68O,0.06000X0.04921*%
%ADD69O,0.06000X0.09843*%
%ADD70O,0.09843X0.06000*%
%ADD71R,0.06000X0.07874*%
%ADD72R,0.07874X0.06000*%
%ADD73R,0.06000X0.07874*%
%ADD74R,0.07874X0.06000*%
%ADD75C,0.08000*%
%ADD76C,0.05118*%
%ADD77O,0.03937X0.07874*%
%ADD78C,0.07000*%
%ADD79C,0.13780*%
%ADD80C,0.15748*%
%ADD81C,0.02400*%
%ADD82C,0.03000*%
%ADD83C,0.02500*%
%ADD84C,0.05000*%
G36*
X397500Y0D02*
X0D01*
X-500Y500D01*
Y78000D01*
X44211D01*
X45059Y76600D01*
X44993Y76440D01*
X44869Y75500D01*
X44993Y74560D01*
X45355Y73685D01*
X45932Y72932D01*
X46685Y72355D01*
X47560Y71993D01*
X48500Y71869D01*
X49440Y71993D01*
X50315Y72355D01*
X51068Y72932D01*
X51645Y73685D01*
X52007Y74560D01*
X52131Y75500D01*
X52007Y76440D01*
X51941Y76600D01*
X52789Y78000D01*
X74211D01*
X75059Y76600D01*
X74993Y76440D01*
X74869Y75500D01*
X74939Y74967D01*
X62997Y63025D01*
X26580D01*
X25955Y63839D01*
X25089Y64503D01*
X24082Y64921D01*
X23000Y65063D01*
X21918Y64921D01*
X20910Y64503D01*
X20045Y63839D01*
X19381Y62973D01*
X18963Y61966D01*
X18821Y60884D01*
X18963Y59802D01*
X19381Y58794D01*
X20045Y57929D01*
X20910Y57265D01*
X21918Y56847D01*
X23000Y56705D01*
X24082Y56847D01*
X25089Y57265D01*
X25955Y57929D01*
X26580Y58743D01*
X63884D01*
X64703Y58906D01*
X65398Y59370D01*
X77967Y71939D01*
X78500Y71869D01*
X79440Y71993D01*
X80316Y72355D01*
X81068Y72932D01*
X81645Y73685D01*
X82007Y74560D01*
X82131Y75500D01*
X82061Y76033D01*
X84028Y78000D01*
X92500D01*
X93000Y78500D01*
Y107675D01*
X94259Y108138D01*
X94400Y108126D01*
X94932Y107432D01*
X95684Y106855D01*
X96560Y106493D01*
X97500Y106369D01*
X98440Y106493D01*
X99316Y106855D01*
X100068Y107432D01*
X100645Y108185D01*
X101007Y109060D01*
X101131Y110000D01*
X101007Y110940D01*
X100645Y111816D01*
X100068Y112568D01*
X99316Y113145D01*
X98440Y113507D01*
X97500Y113631D01*
X96560Y113507D01*
X95684Y113145D01*
X94932Y112568D01*
X94400Y111874D01*
X94259Y111862D01*
X93000Y112325D01*
Y134972D01*
X120028Y162000D01*
X134941D01*
X135476Y160707D01*
X124135Y149365D01*
X107635Y132865D01*
X107370Y132468D01*
X107276Y132000D01*
Y109500D01*
X107370Y109032D01*
X107635Y108635D01*
X108635Y107635D01*
X109032Y107370D01*
X109500Y107276D01*
X109593D01*
X109666Y107166D01*
X110278Y106757D01*
X111000Y106614D01*
X111722Y106757D01*
X112334Y107166D01*
X112743Y107778D01*
X112886Y108500D01*
X112743Y109222D01*
X112334Y109834D01*
X111722Y110243D01*
X111000Y110386D01*
X109741Y111414D01*
X109723Y111451D01*
Y114541D01*
X110036Y114765D01*
X111124Y115069D01*
X126588Y99604D01*
X126121Y98564D01*
X125932Y98281D01*
X125122Y98119D01*
X124378Y97622D01*
X123881Y96878D01*
X123805Y96500D01*
X126000D01*
Y96000D01*
X126500D01*
Y93805D01*
X126878Y93881D01*
X127421Y94244D01*
X128221Y94016D01*
X128821Y93653D01*
Y78169D01*
X128658Y78030D01*
X127421Y77549D01*
X127202Y77696D01*
X126549Y77825D01*
X122937Y81437D01*
X122507Y81725D01*
X122000Y81826D01*
X112529D01*
X111993Y83119D01*
X112937Y84063D01*
X113225Y84493D01*
X113326Y85000D01*
Y96161D01*
X113334Y96166D01*
X113743Y96778D01*
X113886Y97500D01*
X113743Y98222D01*
X113334Y98834D01*
X112722Y99243D01*
X112000Y99386D01*
X111278Y99243D01*
X110666Y98834D01*
X110257Y98222D01*
X110114Y97500D01*
X110257Y96778D01*
X110666Y96166D01*
X110675Y96161D01*
Y85549D01*
X107451Y82326D01*
X106798Y82196D01*
X106202Y81798D01*
X105804Y81202D01*
X105665Y80500D01*
X105804Y79798D01*
X106202Y79202D01*
X106798Y78804D01*
X107500Y78665D01*
X108202Y78804D01*
X108756Y79175D01*
X121451D01*
X124674Y75951D01*
X124804Y75298D01*
X125202Y74702D01*
X125798Y74304D01*
X126500Y74165D01*
X127202Y74304D01*
X127421Y74451D01*
X128658Y73970D01*
X128821Y73831D01*
Y66150D01*
X127421Y65132D01*
X127319Y65165D01*
X126847Y65165D01*
X125047D01*
Y62000D01*
Y58835D01*
X126847D01*
X127319Y58835D01*
X127421Y58868D01*
X128821Y57850D01*
Y43722D01*
X127058D01*
Y40816D01*
X124415D01*
Y43722D01*
X117215D01*
Y34648D01*
X124415D01*
Y37554D01*
X127058D01*
Y34648D01*
X134257D01*
Y43722D01*
X132084D01*
Y59235D01*
X132824D01*
Y64765D01*
X132084D01*
Y72129D01*
X133484Y72709D01*
X145346Y60847D01*
X145876Y60493D01*
X146500Y60369D01*
X148176D01*
Y59235D01*
X148916D01*
Y43722D01*
X146742D01*
Y34648D01*
X153943D01*
Y37554D01*
X156585D01*
Y34648D01*
X163785D01*
Y43722D01*
X156585D01*
Y40816D01*
X153943D01*
Y43722D01*
X152179D01*
Y57850D01*
X153579Y58868D01*
X153681Y58835D01*
X154153Y58835D01*
X155953D01*
Y62000D01*
Y65165D01*
X154153D01*
X153681Y65165D01*
X152447Y64765D01*
X152281D01*
X148176D01*
Y64597D01*
X146776Y64031D01*
X138838Y71969D01*
X139418Y73369D01*
X142676D01*
Y72235D01*
X147181D01*
X147419Y72235D01*
X148581D01*
X148819Y72235D01*
X153324D01*
Y73369D01*
X157676D01*
Y72333D01*
X161984D01*
X163000Y72333D01*
X164016Y72333D01*
X168324D01*
Y73369D01*
X172612D01*
X172778Y73257D01*
X173500Y73114D01*
X174222Y73257D01*
X174834Y73666D01*
X175243Y74278D01*
X175386Y75000D01*
X175243Y75722D01*
X174834Y76334D01*
X174222Y76743D01*
X173500Y76886D01*
X172778Y76743D01*
X172612Y76631D01*
X168324D01*
Y77667D01*
X164016D01*
X163000Y77667D01*
X161984Y77667D01*
X157676D01*
Y76631D01*
X153324D01*
Y77765D01*
X148819D01*
X148581Y77765D01*
X147419D01*
X147181Y77765D01*
X142676D01*
Y76631D01*
X139284D01*
X138660Y77255D01*
X138298Y77798D01*
X137702Y78196D01*
X137374Y78261D01*
Y79688D01*
X137722Y79757D01*
X138334Y80166D01*
X138743Y80778D01*
X138782Y80975D01*
X149653Y91847D01*
X150007Y92376D01*
X150131Y93000D01*
Y93062D01*
X150800Y94057D01*
X152200Y94043D01*
X152821Y93043D01*
Y91324D01*
X151735D01*
Y87053D01*
X151335Y85819D01*
X151335Y85347D01*
Y83547D01*
X157665D01*
Y85347D01*
X157665Y85819D01*
X157648Y85872D01*
X158205Y86639D01*
X159870Y86746D01*
X160333Y86282D01*
X160333Y84984D01*
Y80676D01*
X165667D01*
Y81441D01*
X168003D01*
X168278Y81257D01*
X169000Y81114D01*
X169722Y81257D01*
X170334Y81666D01*
X170743Y82278D01*
X170774Y82438D01*
X172208Y82985D01*
X188846Y66347D01*
X188048Y65165D01*
X187847Y65165D01*
X186047D01*
Y62000D01*
Y58835D01*
X187847D01*
X188319Y58835D01*
X188421Y58868D01*
X189821Y57850D01*
Y43722D01*
X188057D01*
Y40816D01*
X185415D01*
Y43722D01*
X178215D01*
Y34648D01*
X185415D01*
Y37554D01*
X188057D01*
Y34648D01*
X195257D01*
Y43722D01*
X193084D01*
Y59235D01*
X193824D01*
Y64389D01*
X195081Y65112D01*
X199346Y60847D01*
X199876Y60493D01*
X200500Y60369D01*
X209176D01*
Y59235D01*
X209916D01*
Y43722D01*
X207743D01*
Y34648D01*
X214943D01*
Y37554D01*
X217585D01*
Y34648D01*
X224785D01*
Y43722D01*
X217585D01*
Y40816D01*
X214943D01*
Y43722D01*
X213179D01*
Y57850D01*
X214579Y58868D01*
X214681Y58835D01*
X215153Y58835D01*
X216953D01*
Y62000D01*
Y65165D01*
X215153D01*
X214681Y65165D01*
X213447Y64765D01*
X213281D01*
X209176D01*
Y63631D01*
X201176D01*
X175131Y89676D01*
Y125500D01*
X175007Y126124D01*
X174653Y126654D01*
X170107Y131200D01*
X183898Y144991D01*
X226701D01*
X237971Y133722D01*
X237391Y132322D01*
X228597D01*
X228168Y132236D01*
X227804Y131993D01*
X227804Y131993D01*
X227271Y131460D01*
X225955D01*
X225683Y131700D01*
X224988Y132860D01*
X224995Y132898D01*
X224895Y133400D01*
X224899Y134239D01*
X225272Y134798D01*
X225304Y134957D01*
X221319D01*
X217334D01*
X217366Y134798D01*
X217739Y134239D01*
X217742Y133400D01*
X217642Y132898D01*
X217742Y132395D01*
X218027Y131968D01*
Y131268D01*
X217742Y130842D01*
X217642Y130339D01*
X217742Y129836D01*
X218027Y129409D01*
Y128709D01*
X217742Y128282D01*
X217642Y127779D01*
X217742Y127277D01*
X218027Y126850D01*
Y126150D01*
X217742Y125723D01*
X217642Y125221D01*
X217742Y124717D01*
X218027Y124291D01*
Y123591D01*
X217742Y123164D01*
X217642Y122661D01*
X217742Y122159D01*
X218027Y121732D01*
Y121032D01*
X217742Y120605D01*
X217642Y120102D01*
X217742Y119599D01*
X218027Y119173D01*
Y118473D01*
X217742Y118046D01*
X217642Y117543D01*
X217742Y117040D01*
X218027Y116614D01*
X218454Y116329D01*
X218957Y116229D01*
X223681D01*
X224184Y116329D01*
X224323Y116422D01*
X226704D01*
X227903Y115222D01*
X227859Y115000D01*
X228022Y114181D01*
X228040Y114154D01*
X227633Y113490D01*
X227114Y113019D01*
X226500Y113141D01*
X225681Y112978D01*
X224986Y112514D01*
X224860Y112326D01*
X216549D01*
X210394Y118481D01*
X209964Y118768D01*
X209457Y118869D01*
X208949Y118768D01*
X208795Y118665D01*
X203317D01*
X203045Y118905D01*
X202350Y120065D01*
X202358Y120102D01*
X202257Y120605D01*
X201973Y121032D01*
Y121732D01*
X202257Y122159D01*
X202358Y122661D01*
X202257Y123164D01*
X201973Y123591D01*
Y124291D01*
X202257Y124717D01*
X202358Y125221D01*
X202257Y125723D01*
X201973Y126150D01*
Y126850D01*
X202257Y127277D01*
X202358Y127779D01*
X202257Y128282D01*
X201973Y128709D01*
Y129409D01*
X202257Y129836D01*
X202358Y130339D01*
X202257Y130842D01*
X201973Y131268D01*
Y131968D01*
X202257Y132395D01*
X202358Y132898D01*
X202257Y133401D01*
X201973Y133827D01*
Y134527D01*
X202257Y134954D01*
X202358Y135457D01*
X202257Y135960D01*
X201973Y136386D01*
X201546Y136671D01*
X201043Y136771D01*
X196319D01*
X195863Y136680D01*
X191636D01*
X190858Y138001D01*
X190978Y138181D01*
X191141Y139000D01*
X190978Y139819D01*
X190514Y140514D01*
X189819Y140978D01*
X189000Y141141D01*
X188181Y140978D01*
X187486Y140514D01*
X187022Y139819D01*
X186859Y139000D01*
X187022Y138181D01*
X187486Y137486D01*
X187777Y137292D01*
Y137000D01*
X187870Y136532D01*
X188135Y136135D01*
X189678Y134591D01*
X190075Y134326D01*
X190543Y134233D01*
X193977D01*
X194232Y134045D01*
X194703Y133346D01*
X194052Y131985D01*
X194046Y131979D01*
X193026Y131813D01*
X192446Y132393D01*
X192082Y132636D01*
X191653Y132722D01*
X191653Y132722D01*
X188100D01*
X188100Y132722D01*
X187671Y132636D01*
X187307Y132393D01*
X187307Y132393D01*
X183107Y128193D01*
X182864Y127829D01*
X182778Y127400D01*
X182778Y127400D01*
Y115865D01*
X182107Y115193D01*
X181864Y114829D01*
X181778Y114400D01*
X181778Y114400D01*
Y109098D01*
X181746Y109077D01*
X181393Y108547D01*
X181269Y107923D01*
X181393Y107299D01*
X181746Y106770D01*
X188170Y100347D01*
X188699Y99993D01*
X189323Y99869D01*
X215824D01*
X249346Y66347D01*
X248548Y65165D01*
X248347Y65165D01*
X246547D01*
Y62000D01*
Y58835D01*
X248347D01*
X248819Y58835D01*
X248921Y58868D01*
X250321Y57850D01*
Y43722D01*
X248557D01*
Y40816D01*
X245915D01*
Y43722D01*
X238715D01*
Y34648D01*
X245915D01*
Y37554D01*
X248557D01*
Y34648D01*
X255757D01*
Y43722D01*
X253584D01*
Y59235D01*
X254324D01*
Y64765D01*
X253631D01*
Y66000D01*
X253507Y66624D01*
X253153Y67154D01*
X250571Y69736D01*
X251154Y71132D01*
X251291Y71160D01*
X251604Y71369D01*
X265324D01*
X270416Y66277D01*
Y64765D01*
X269676D01*
Y59235D01*
X270416D01*
Y43722D01*
X268243D01*
Y34648D01*
X275443D01*
Y37554D01*
X278085D01*
Y34648D01*
X285285D01*
Y43722D01*
X278085D01*
Y40816D01*
X275443D01*
Y43722D01*
X273679D01*
Y57850D01*
X275079Y58868D01*
X275181Y58835D01*
X275653Y58835D01*
X277453D01*
Y62000D01*
Y65165D01*
X275653D01*
X275181Y65165D01*
X275079Y65132D01*
X273679Y66150D01*
Y66953D01*
X273554Y67577D01*
X273201Y68106D01*
X267154Y74154D01*
X266624Y74507D01*
X266000Y74631D01*
X251000D01*
X250376Y74507D01*
X250063Y74298D01*
X249686D01*
X218730Y105254D01*
X218201Y105607D01*
X217577Y105731D01*
X191076D01*
X186653Y110153D01*
X186622Y110175D01*
Y118878D01*
X191177D01*
X191177Y118878D01*
X191606Y118964D01*
X191970Y119207D01*
X193538Y120775D01*
X194940Y120282D01*
X195012Y120140D01*
X195005Y120102D01*
X195105Y119599D01*
X195390Y119173D01*
Y118473D01*
X195105Y118046D01*
X195005Y117543D01*
X195105Y117040D01*
X195390Y116614D01*
X195816Y116329D01*
X196319Y116229D01*
X201043D01*
X201546Y116329D01*
X201685Y116422D01*
X208704D01*
X215063Y110063D01*
X215493Y109775D01*
X216000Y109675D01*
X224860D01*
X224986Y109486D01*
X225681Y109022D01*
X226500Y108859D01*
X227319Y109022D01*
X228014Y109486D01*
X228478Y110181D01*
X228641Y111000D01*
X228478Y111819D01*
X228460Y111846D01*
X228867Y112510D01*
X229386Y112981D01*
X230000Y112859D01*
X230819Y113022D01*
X231514Y113486D01*
X231978Y114181D01*
X232141Y115000D01*
X231978Y115819D01*
X231514Y116514D01*
X230819Y116978D01*
X230000Y117141D01*
X229822Y117106D01*
X228915Y118076D01*
X229461Y119394D01*
X233310D01*
X233331Y119361D01*
X287347Y65346D01*
X287876Y64993D01*
X288500Y64869D01*
X303776D01*
Y62500D01*
X306547D01*
Y62000D01*
X307047D01*
Y58835D01*
X309319D01*
Y58835D01*
X309421Y58888D01*
X310821Y58103D01*
Y43722D01*
X309057D01*
Y40816D01*
X306415D01*
Y43722D01*
X299215D01*
Y34648D01*
X306415D01*
Y37554D01*
X309057D01*
Y34648D01*
X316258D01*
Y43722D01*
X314084D01*
Y59235D01*
X314824D01*
Y64765D01*
X314084D01*
Y65328D01*
X313960Y65953D01*
X313606Y66482D01*
X314199Y67869D01*
X327324D01*
X329217Y65975D01*
X329676Y64765D01*
X329676D01*
Y59235D01*
X330416D01*
Y43722D01*
X328743D01*
Y34648D01*
X335943D01*
Y37554D01*
X338585D01*
Y34648D01*
X345785D01*
Y43722D01*
X338585D01*
Y40816D01*
X335943D01*
Y43722D01*
X333679D01*
Y57850D01*
X335079Y58868D01*
X335181Y58835D01*
X335653Y58835D01*
X337453D01*
Y62000D01*
Y65165D01*
X335653D01*
X335181Y65165D01*
X335031Y65117D01*
X334658Y65219D01*
X333513Y66095D01*
X333507Y66124D01*
X333154Y66654D01*
X329631Y70176D01*
Y99158D01*
X331031Y99738D01*
X346943Y83827D01*
X346934Y83815D01*
X346571Y82940D01*
X346448Y82000D01*
X346571Y81060D01*
X346934Y80185D01*
X347511Y79432D01*
X348263Y78855D01*
X349139Y78493D01*
X350079Y78369D01*
X353921D01*
X354861Y78493D01*
X355737Y78855D01*
X356489Y79432D01*
X357066Y80185D01*
X357429Y81060D01*
X357552Y82000D01*
X357429Y82940D01*
X357066Y83815D01*
X356489Y84568D01*
X355737Y85145D01*
X354861Y85507D01*
X353921Y85631D01*
X350079D01*
X349139Y85507D01*
X348845Y85386D01*
X344854Y89376D01*
X345395Y90684D01*
X346727D01*
X346934Y90184D01*
X347511Y89432D01*
X348263Y88855D01*
X349139Y88493D01*
X350079Y88369D01*
X353921D01*
X354861Y88493D01*
X355737Y88855D01*
X356489Y89432D01*
X357066Y90184D01*
X357429Y91060D01*
X357552Y92000D01*
X357429Y92940D01*
X357066Y93815D01*
X356489Y94568D01*
X355737Y95145D01*
X354861Y95507D01*
X353921Y95631D01*
X350079D01*
X349139Y95507D01*
X348263Y95145D01*
X347511Y94568D01*
X346934Y93815D01*
X346689Y93224D01*
X345007D01*
X331854Y106377D01*
X332434Y107776D01*
X355448D01*
X356410Y106814D01*
X355617Y105627D01*
X354965Y105897D01*
X353921Y106035D01*
X352500D01*
Y102500D01*
X357890D01*
X357818Y103044D01*
X357548Y103696D01*
X358735Y104489D01*
X360277Y102948D01*
Y56500D01*
X360370Y56032D01*
X360635Y55635D01*
X375523Y40747D01*
X375511Y40567D01*
X374934Y39816D01*
X374571Y38940D01*
X374448Y38000D01*
X374571Y37060D01*
X374934Y36184D01*
X375511Y35432D01*
X376263Y34855D01*
X377139Y34493D01*
X378079Y34369D01*
X381921D01*
X382861Y34493D01*
X383737Y34855D01*
X384489Y35432D01*
X385066Y36184D01*
X385429Y37060D01*
X385552Y38000D01*
X385429Y38940D01*
X385066Y39816D01*
X384489Y40567D01*
X383737Y41145D01*
X382861Y41507D01*
X381921Y41631D01*
X378079D01*
X378075Y41631D01*
X378026Y41705D01*
X376657Y43073D01*
X377120Y44385D01*
X377229Y44481D01*
X378079Y44369D01*
X381921D01*
X382861Y44493D01*
X383737Y44855D01*
X384489Y45432D01*
X385066Y46185D01*
X385429Y47060D01*
X385552Y48000D01*
X385429Y48940D01*
X385066Y49815D01*
X384489Y50568D01*
X383737Y51145D01*
X382861Y51507D01*
X381921Y51631D01*
X378079D01*
X378075Y51631D01*
X378026Y51705D01*
X377040Y52690D01*
X377694Y54016D01*
X378079Y53966D01*
X379500D01*
Y57500D01*
X373861D01*
X372769Y56961D01*
X365224Y64507D01*
Y84217D01*
X366517Y84753D01*
X370135Y81135D01*
X370532Y80870D01*
X371000Y80777D01*
X374689D01*
X374934Y80185D01*
X375511Y79432D01*
X376263Y78855D01*
X377139Y78493D01*
X378079Y78369D01*
X381921D01*
X382861Y78493D01*
X383737Y78855D01*
X384489Y79432D01*
X385066Y80185D01*
X385429Y81060D01*
X385552Y82000D01*
X385429Y82940D01*
X385066Y83815D01*
X384489Y84568D01*
X383737Y85145D01*
X382861Y85507D01*
X381921Y85631D01*
X378079D01*
X377139Y85507D01*
X376263Y85145D01*
X375511Y84568D01*
X374934Y83815D01*
X374689Y83223D01*
X371507D01*
X367224Y87507D01*
Y106000D01*
X367130Y106468D01*
X366865Y106865D01*
X351627Y122104D01*
X351626Y122104D01*
X343248Y130482D01*
X343784Y131776D01*
X344067D01*
Y134146D01*
X341000D01*
X337933D01*
Y132223D01*
X333067D01*
Y134146D01*
X330000D01*
X326933D01*
Y132223D01*
X324072D01*
X322978Y132963D01*
Y136722D01*
X319022D01*
Y136375D01*
X317270D01*
X316567Y137484D01*
X316567Y138350D01*
Y139854D01*
X310433D01*
X310433Y137777D01*
X309236Y136994D01*
X295365Y150865D01*
X294968Y151130D01*
X294500Y151224D01*
X255304D01*
X240069Y166459D01*
X240648Y167859D01*
X272953D01*
X273772Y168022D01*
X274467Y168486D01*
X285628Y179648D01*
X285807Y179574D01*
X287008Y179415D01*
X288209Y179574D01*
X289328Y180037D01*
X290289Y180774D01*
X291026Y181735D01*
X291100Y181914D01*
X321445D01*
X322264Y182077D01*
X322959Y182541D01*
X328360Y187942D01*
X328500Y187924D01*
X328640Y187942D01*
X349212Y167370D01*
X349907Y166906D01*
X350726Y166743D01*
X358420D01*
X359045Y165929D01*
X359859Y165304D01*
Y152537D01*
X358447D01*
Y143531D01*
X358447Y143463D01*
X358282Y142131D01*
X343667D01*
Y142824D01*
X338333D01*
Y141986D01*
X332667D01*
Y142824D01*
X327333D01*
Y141887D01*
X322978D01*
Y142037D01*
X319022D01*
Y138278D01*
X322978D01*
Y138625D01*
X326230D01*
X326933Y137516D01*
X326933Y136650D01*
Y135146D01*
X330000D01*
X333067D01*
Y136650D01*
X333067Y137516D01*
X333532Y138723D01*
X337468D01*
X337933Y137516D01*
X337933Y136650D01*
Y135146D01*
X341000D01*
X344067D01*
Y136650D01*
X344067Y137516D01*
X344181Y138869D01*
X369000D01*
X369624Y138993D01*
X370153Y139347D01*
X372153Y141347D01*
X372507Y141876D01*
X372631Y142500D01*
Y143463D01*
X374608D01*
Y152537D01*
X367502D01*
Y143463D01*
X367502D01*
X367337Y142131D01*
X365718D01*
X365553Y143463D01*
X365553Y143531D01*
Y152537D01*
X364141D01*
Y165304D01*
X364955Y165929D01*
X365619Y166794D01*
X365969Y167640D01*
X384235D01*
Y166676D01*
X389765D01*
Y171181D01*
X389765Y171419D01*
Y172581D01*
X389765Y172819D01*
Y177324D01*
X388631D01*
Y190904D01*
X389962D01*
Y196828D01*
X384038D01*
Y190904D01*
X385369D01*
Y177324D01*
X384235D01*
Y172819D01*
X384235Y172581D01*
Y171419D01*
X383203Y170291D01*
X365902D01*
X365619Y170973D01*
X364955Y171839D01*
X364089Y172503D01*
X363082Y172921D01*
X362000Y173063D01*
X360918Y172921D01*
X359910Y172503D01*
X359045Y171839D01*
X358420Y171025D01*
X351613D01*
X331668Y190970D01*
X331686Y191110D01*
X331578Y191935D01*
X331259Y192703D01*
X330753Y193363D01*
X330093Y193870D01*
X329325Y194188D01*
X328500Y194297D01*
X327675Y194188D01*
X326907Y193870D01*
X326247Y193363D01*
X325741Y192703D01*
X325422Y191935D01*
X325314Y191110D01*
X325332Y190970D01*
X320558Y186196D01*
X291100D01*
X291026Y186375D01*
X290289Y187336D01*
X289328Y188073D01*
X288209Y188537D01*
X287008Y188695D01*
X285807Y188537D01*
X284688Y188073D01*
X283727Y187336D01*
X282990Y186375D01*
X282526Y185256D01*
X282368Y184055D01*
X282526Y182854D01*
X282600Y182676D01*
X272066Y172141D01*
X183000D01*
Y250000D01*
X397500Y250000D01*
Y0D01*
D02*
G37*
G36*
X253276Y149790D02*
Y137541D01*
X253370Y137073D01*
X253635Y136676D01*
X254338Y135973D01*
X254735Y135708D01*
X255203Y135615D01*
X260524D01*
Y134780D01*
X267839D01*
Y135697D01*
X268525Y136169D01*
X269095Y136413D01*
X269681Y136022D01*
X270500Y135859D01*
X271319Y136022D01*
X272014Y136486D01*
X272478Y137181D01*
X272641Y138000D01*
X273500Y138859D01*
X274319Y139022D01*
X275014Y139486D01*
X275478Y140181D01*
X275641Y141000D01*
X275478Y141819D01*
X275014Y142514D01*
X274319Y142978D01*
X273500Y143141D01*
X272866Y143015D01*
X272618Y143181D01*
X272110Y143282D01*
X271603Y143181D01*
X271602Y143180D01*
X267439D01*
Y145903D01*
X260924D01*
Y145903D01*
X259548Y145963D01*
X259514Y146014D01*
X258819Y146478D01*
X258000Y146641D01*
X257181Y146478D01*
X257123Y146440D01*
X255724Y147188D01*
Y148776D01*
X293993D01*
X295630Y147139D01*
X295051Y145739D01*
X290076D01*
Y145903D01*
X283561D01*
Y143128D01*
Y140569D01*
Y138062D01*
X279272D01*
X278826Y137973D01*
X278819Y137978D01*
X278000Y138141D01*
X277181Y137978D01*
X276486Y137514D01*
X276022Y136819D01*
X275859Y136000D01*
X276022Y135181D01*
X276486Y134486D01*
X277181Y134022D01*
X278000Y133859D01*
X278106Y133880D01*
X279282Y133054D01*
X279395Y132818D01*
X279522Y132181D01*
X279986Y131486D01*
X280681Y131022D01*
X281500Y130859D01*
X282161Y130990D01*
X282556Y130891D01*
X283099Y130590D01*
X283561Y130168D01*
Y125215D01*
Y122656D01*
Y120097D01*
X290076D01*
Y120363D01*
X291841D01*
X291862Y120331D01*
X294369Y117824D01*
Y86676D01*
X289293Y81600D01*
X288681Y81478D01*
X287986Y81014D01*
X287522Y80319D01*
X287359Y79500D01*
X287522Y78681D01*
X287986Y77986D01*
X288681Y77522D01*
X289500Y77359D01*
X290319Y77522D01*
X291014Y77986D01*
X291106Y78123D01*
X291732Y78149D01*
X292657Y77978D01*
X292986Y77486D01*
X293681Y77022D01*
X294500Y76859D01*
X295319Y77022D01*
X296014Y77486D01*
X296478Y78181D01*
X296641Y79000D01*
X296586Y79279D01*
X301153Y83846D01*
X301507Y84376D01*
X301631Y85000D01*
Y118865D01*
X303031Y119445D01*
X318869Y103608D01*
Y75338D01*
X318522Y74819D01*
X318359Y74000D01*
X318522Y73181D01*
X318956Y72531D01*
X318903Y72257D01*
X318493Y71131D01*
X290176D01*
X243653Y117654D01*
X243621Y117675D01*
Y126092D01*
X245022Y126671D01*
X251362Y120331D01*
X251891Y119977D01*
X252516Y119853D01*
X253140Y119977D01*
X253669Y120331D01*
X253691Y120363D01*
X260924D01*
Y120097D01*
X267439D01*
Y122656D01*
Y125215D01*
Y127774D01*
Y132492D01*
X267839D01*
Y133780D01*
X260524D01*
Y132492D01*
X260924D01*
Y130283D01*
X256803D01*
X232124Y154962D01*
X232131Y155000D01*
X232007Y155624D01*
X231653Y156154D01*
X231124Y156507D01*
X230500Y156631D01*
X156000D01*
X155376Y156507D01*
X154847Y156154D01*
X154493Y155624D01*
X154369Y155000D01*
X154376Y154962D01*
X137207Y137793D01*
X136964Y137429D01*
X136878Y137000D01*
X136878Y137000D01*
Y134465D01*
X135199Y132785D01*
X134973Y132804D01*
X133919Y133270D01*
X133545Y134635D01*
X133757Y134954D01*
X133858Y135457D01*
X133757Y135960D01*
X133473Y136386D01*
X133046Y136671D01*
X132543Y136771D01*
X127819D01*
X127623Y136732D01*
X126224Y137475D01*
Y147993D01*
X140230Y162000D01*
X183000D01*
Y165376D01*
X185893D01*
X186927Y164343D01*
X186859Y164000D01*
X187022Y163181D01*
X187486Y162486D01*
X188181Y162022D01*
X189000Y161859D01*
X189819Y162022D01*
X190514Y162486D01*
X190978Y163181D01*
X191141Y164000D01*
X192162Y165376D01*
X237690D01*
X253276Y149790D01*
D02*
G37*
G36*
X112143Y162000D02*
X112679Y160707D01*
X94293Y142322D01*
X93000Y142857D01*
Y162000D01*
X112143D01*
D02*
G37*
G36*
X180591Y146298D02*
X166647Y132353D01*
X166625Y132322D01*
X160611D01*
X160182Y132236D01*
X159818Y131993D01*
X159818Y131993D01*
X159285Y131460D01*
X157455D01*
X157183Y131700D01*
X156488Y132860D01*
X156495Y132898D01*
X156395Y133400D01*
X156399Y134239D01*
X156772Y134798D01*
X156804Y134957D01*
X152819D01*
Y135457D01*
X152319D01*
Y137179D01*
X150466D01*
X150446Y137198D01*
X149778Y138471D01*
X158898Y147591D01*
X180055D01*
X180591Y146298D01*
D02*
G37*
G36*
X123776Y143717D02*
Y136160D01*
X123870Y135691D01*
X124135Y135294D01*
X124838Y134591D01*
X125235Y134326D01*
X125504Y134273D01*
X125823Y134020D01*
X125847Y133993D01*
X126505Y132898D01*
X126512Y132860D01*
X125817Y131700D01*
X125545Y131460D01*
X116339D01*
X116339Y131460D01*
X115909Y131375D01*
X115545Y131132D01*
X115545Y131132D01*
X111207Y126793D01*
X111124Y126668D01*
X110011Y126792D01*
X109723Y126901D01*
Y131493D01*
X122483Y144253D01*
X123776Y143717D01*
D02*
G37*
G36*
X138878Y131312D02*
Y126965D01*
X135863Y123950D01*
X134703Y124131D01*
X133858Y125221D01*
X133757Y125723D01*
X133473Y126150D01*
Y126850D01*
X133757Y127277D01*
X133858Y127779D01*
X133850Y127817D01*
X134152Y128683D01*
X134761Y129301D01*
X134768Y129302D01*
X135132Y129545D01*
X137478Y131892D01*
X138878Y131312D01*
D02*
G37*
G36*
X144369Y136303D02*
Y125000D01*
X144493Y124376D01*
X144846Y123846D01*
X145376Y123493D01*
X146000Y123369D01*
X146038Y123376D01*
X147475Y121939D01*
X147838Y121696D01*
X148268Y121611D01*
X148268Y121610D01*
X148491Y121380D01*
X149164Y120211D01*
X149143Y120102D01*
X149242Y119599D01*
X149527Y119173D01*
Y118473D01*
X149242Y118046D01*
X149143Y117543D01*
X149242Y117040D01*
X149527Y116614D01*
X149954Y116329D01*
X150457Y116229D01*
X155181D01*
X155684Y116329D01*
X155823Y116422D01*
X158815D01*
X159859Y115500D01*
X160022Y114681D01*
X160486Y113986D01*
X161181Y113522D01*
X162000Y113359D01*
X162819Y113522D01*
X163514Y113986D01*
X163978Y114681D01*
X164141Y115500D01*
X163978Y116319D01*
X163514Y117014D01*
X162819Y117478D01*
X162200Y117601D01*
X161612Y118282D01*
X162256Y119678D01*
X168869D01*
Y87000D01*
X168993Y86376D01*
X169094Y86224D01*
X169084Y86082D01*
X168683Y85063D01*
X168438Y84775D01*
X168278Y84743D01*
X168221Y84704D01*
X166657D01*
X165667Y85694D01*
X165667Y87016D01*
Y91324D01*
X160333D01*
Y90535D01*
X157265D01*
Y91324D01*
X156084D01*
Y94235D01*
X156824D01*
Y99765D01*
X152319D01*
X152081Y99765D01*
X150919D01*
X150681Y99765D01*
X146176D01*
Y94235D01*
X146176D01*
X146071Y92878D01*
X140051Y86858D01*
X139609Y86864D01*
X138408Y87195D01*
X138122Y87622D01*
X137378Y88119D01*
X137000Y88195D01*
Y86000D01*
X136000D01*
Y88525D01*
X134970Y89239D01*
Y98839D01*
X134846Y99463D01*
X134492Y99992D01*
X120742Y113742D01*
X120710Y113763D01*
Y116624D01*
X124747Y120660D01*
X126397Y120331D01*
X126512Y120140D01*
X126505Y120102D01*
X126605Y119599D01*
X126890Y119173D01*
Y118473D01*
X126605Y118046D01*
X126505Y117543D01*
X126605Y117040D01*
X126890Y116614D01*
X127316Y116329D01*
X127819Y116229D01*
X132543D01*
X133046Y116329D01*
X133185Y116422D01*
X135204D01*
X141063Y110563D01*
X141493Y110275D01*
X142000Y110175D01*
X156360D01*
X156486Y109986D01*
X157181Y109522D01*
X158000Y109359D01*
X158819Y109522D01*
X159514Y109986D01*
X159978Y110681D01*
X160141Y111500D01*
X159978Y112319D01*
X159514Y113014D01*
X158819Y113478D01*
X158000Y113641D01*
X157181Y113478D01*
X156486Y113014D01*
X156360Y112826D01*
X142549D01*
X136894Y118481D01*
X136464Y118768D01*
X135957Y118869D01*
X135450Y118768D01*
X134706Y119165D01*
X134196Y120718D01*
X134545Y121300D01*
X134817Y121540D01*
X136161D01*
X136161Y121540D01*
X136591Y121625D01*
X136954Y121868D01*
X140793Y125707D01*
X140793Y125707D01*
X141036Y126071D01*
X141122Y126500D01*
X141122Y126500D01*
Y135035D01*
X142969Y136882D01*
X144369Y136303D01*
D02*
G37*
G36*
X187812Y127746D02*
X187986Y127486D01*
X188681Y127022D01*
X189500Y126859D01*
X189615Y126882D01*
X190522Y125719D01*
X190479Y125502D01*
X190359Y124900D01*
X190522Y124081D01*
X190986Y123386D01*
X190938Y122074D01*
X190101Y121122D01*
X185500D01*
X185022Y122454D01*
Y126935D01*
X186123Y128037D01*
X186452Y128071D01*
X187812Y127746D01*
D02*
G37*
G36*
X241378Y127535D02*
Y117909D01*
X240988Y117630D01*
X239793Y117551D01*
X239736Y117571D01*
X235638Y121669D01*
X235109Y122022D01*
X234485Y122146D01*
X233861Y122022D01*
X233345Y121678D01*
X232118Y121779D01*
X231614Y123028D01*
X232193Y123607D01*
X232193Y123607D01*
X232436Y123971D01*
X232522Y124400D01*
X232522Y124400D01*
Y126824D01*
X232914Y127086D01*
X233378Y127781D01*
X233541Y128600D01*
X233525Y128678D01*
X234493Y130078D01*
X238835D01*
X241378Y127535D01*
D02*
G37*
G36*
X115482Y126095D02*
X115574Y126008D01*
X115986Y125391D01*
X116681Y124927D01*
X117500Y124764D01*
X118319Y124927D01*
X119014Y125391D01*
X119036Y125424D01*
X120318Y124916D01*
X120361Y124888D01*
X120522Y124081D01*
X120986Y123386D01*
X121681Y122922D01*
X121827Y122893D01*
X122318Y121404D01*
X118795Y117882D01*
X118552Y117518D01*
X118467Y117088D01*
X118467Y117088D01*
Y114738D01*
X117254Y113869D01*
X116901Y113907D01*
X113154Y117654D01*
X113122Y117675D01*
Y125494D01*
X114161Y126406D01*
X115482Y126095D01*
D02*
G37*
G36*
X319022Y132963D02*
X319777D01*
Y132500D01*
X319870Y132032D01*
X320135Y131635D01*
X321635Y130135D01*
X322032Y129870D01*
X322500Y129777D01*
X338355D01*
X338736Y129014D01*
X338894Y128376D01*
X338522Y127819D01*
X338359Y127000D01*
X338522Y126181D01*
X338986Y125486D01*
X339681Y125022D01*
X340500Y124859D01*
X340843Y124927D01*
X354253Y111517D01*
X353717Y110223D01*
X332007D01*
X311455Y130776D01*
X312035Y132176D01*
X316167D01*
Y133113D01*
X319022D01*
Y132963D01*
D02*
G37*
G36*
X326369Y100324D02*
Y71131D01*
X322507D01*
X322097Y72257D01*
X322044Y72531D01*
X322478Y73181D01*
X322641Y74000D01*
X322478Y74819D01*
X322131Y75338D01*
Y102582D01*
X323531Y103162D01*
X326369Y100324D01*
D02*
G37*
G36*
X375523Y50747D02*
X375511Y50568D01*
X374934Y49815D01*
X374571Y48940D01*
X374448Y48000D01*
X374559Y47151D01*
X374464Y47041D01*
X373152Y46578D01*
X362723Y57007D01*
Y61566D01*
X364124Y62146D01*
X375523Y50747D01*
D02*
G37*
%LPC*%
G36*
X377953Y244736D02*
X376292Y244572D01*
X374694Y244087D01*
X373222Y243300D01*
X371932Y242242D01*
X370873Y240951D01*
X370086Y239479D01*
X369601Y237882D01*
X369438Y236221D01*
X369601Y234559D01*
X370086Y232962D01*
X370873Y231490D01*
X371932Y230199D01*
X373222Y229140D01*
X374694Y228354D01*
X376292Y227869D01*
X377953Y227706D01*
X379614Y227869D01*
X381211Y228354D01*
X382683Y229140D01*
X383974Y230199D01*
X385033Y231490D01*
X385820Y232962D01*
X386304Y234559D01*
X386468Y236221D01*
X386304Y237882D01*
X385820Y239479D01*
X385033Y240951D01*
X383974Y242242D01*
X382683Y243300D01*
X381211Y244087D01*
X379614Y244572D01*
X377953Y244736D01*
D02*
G37*
G36*
X362500Y227633D02*
Y223616D01*
X366517D01*
X366426Y224302D01*
X365969Y225407D01*
X365240Y226357D01*
X364291Y227085D01*
X363186Y227542D01*
X362500Y227633D01*
D02*
G37*
G36*
X361500Y227633D02*
X360814Y227542D01*
X359709Y227085D01*
X358760Y226357D01*
X358031Y225407D01*
X357574Y224302D01*
X357483Y223616D01*
X361500D01*
Y227633D01*
D02*
G37*
G36*
X366517Y222616D02*
X362500D01*
Y218600D01*
X363186Y218690D01*
X364291Y219148D01*
X365240Y219876D01*
X365969Y220825D01*
X366426Y221930D01*
X366517Y222616D01*
D02*
G37*
G36*
X361500D02*
X357483D01*
X357574Y221930D01*
X358031Y220825D01*
X358760Y219876D01*
X359709Y219148D01*
X360814Y218690D01*
X361500Y218600D01*
Y222616D01*
D02*
G37*
G36*
X287508Y220922D02*
Y216445D01*
X291985D01*
X291879Y217250D01*
X291375Y218466D01*
X290574Y219511D01*
X289529Y220312D01*
X288313Y220816D01*
X287508Y220922D01*
D02*
G37*
G36*
X286508D02*
X285703Y220816D01*
X284486Y220312D01*
X283442Y219511D01*
X282640Y218466D01*
X282137Y217250D01*
X282031Y216445D01*
X286508D01*
Y220922D01*
D02*
G37*
G36*
X291985Y215445D02*
X287508D01*
Y210968D01*
X288313Y211074D01*
X289529Y211577D01*
X290574Y212379D01*
X291375Y213423D01*
X291879Y214640D01*
X291985Y215445D01*
D02*
G37*
G36*
X286508D02*
X282031D01*
X282137Y214640D01*
X282640Y213423D01*
X283442Y212379D01*
X284486Y211577D01*
X285703Y211074D01*
X286508Y210968D01*
Y215445D01*
D02*
G37*
G36*
X329000Y208414D02*
Y205390D01*
X332024D01*
X331967Y205819D01*
X331609Y206685D01*
X331038Y207428D01*
X330295Y207999D01*
X329429Y208357D01*
X329000Y208414D01*
D02*
G37*
G36*
X328000D02*
X327571Y208357D01*
X326705Y207999D01*
X325962Y207428D01*
X325391Y206685D01*
X325033Y205819D01*
X324976Y205390D01*
X328000D01*
Y208414D01*
D02*
G37*
G36*
X390362Y205496D02*
X387500D01*
Y202634D01*
X390362D01*
Y205496D01*
D02*
G37*
G36*
X386500D02*
X383638D01*
Y202634D01*
X386500D01*
Y205496D01*
D02*
G37*
G36*
X332024Y204390D02*
X329000D01*
Y201366D01*
X329429Y201422D01*
X330295Y201781D01*
X331038Y202351D01*
X331609Y203095D01*
X331967Y203961D01*
X332024Y204390D01*
D02*
G37*
G36*
X328000D02*
X324976D01*
X325033Y203961D01*
X325391Y203095D01*
X325962Y202351D01*
X326705Y201781D01*
X327571Y201422D01*
X328000Y201366D01*
Y204390D01*
D02*
G37*
G36*
X390362Y201634D02*
X387500D01*
Y198772D01*
X390362D01*
Y201634D01*
D02*
G37*
G36*
X386500D02*
X383638D01*
Y198772D01*
X386500D01*
Y201634D01*
D02*
G37*
G36*
X320000Y172526D02*
X318532Y172381D01*
X317120Y171953D01*
X315819Y171258D01*
X314678Y170322D01*
X313742Y169181D01*
X313047Y167880D01*
X312619Y166468D01*
X312474Y165000D01*
X312619Y163532D01*
X313047Y162120D01*
X313742Y160819D01*
X314678Y159678D01*
X315819Y158742D01*
X317120Y158047D01*
X318532Y157619D01*
X320000Y157474D01*
X321468Y157619D01*
X322880Y158047D01*
X324181Y158742D01*
X325322Y159678D01*
X326258Y160819D01*
X326953Y162120D01*
X327381Y163532D01*
X327526Y165000D01*
X327381Y166468D01*
X326953Y167880D01*
X326258Y169181D01*
X325322Y170322D01*
X324181Y171258D01*
X322880Y171953D01*
X321468Y172381D01*
X320000Y172526D01*
D02*
G37*
G36*
X384063Y152937D02*
X380610D01*
Y148500D01*
X384063D01*
Y152937D01*
D02*
G37*
G36*
X379610D02*
X376157D01*
Y148500D01*
X379610D01*
Y152937D01*
D02*
G37*
G36*
X384063Y147500D02*
X380610D01*
Y143063D01*
X384063D01*
Y147500D01*
D02*
G37*
G36*
X379610D02*
X376157D01*
Y143063D01*
X379610D01*
Y147500D01*
D02*
G37*
G36*
X216000Y143449D02*
Y141500D01*
X217950D01*
X217855Y141975D01*
X217302Y142802D01*
X216476Y143355D01*
X216000Y143449D01*
D02*
G37*
G36*
X215000D02*
X214525Y143355D01*
X213698Y142802D01*
X213145Y141975D01*
X213051Y141500D01*
X215000D01*
Y143449D01*
D02*
G37*
G36*
X316567Y143224D02*
X314000D01*
Y140854D01*
X316567D01*
Y143224D01*
D02*
G37*
G36*
X313000D02*
X310433D01*
Y140854D01*
X313000D01*
Y143224D01*
D02*
G37*
G36*
X217950Y140500D02*
X216000D01*
Y138550D01*
X216476Y138645D01*
X217302Y139198D01*
X217855Y140024D01*
X217950Y140500D01*
D02*
G37*
G36*
X215000D02*
X213051D01*
X213145Y140024D01*
X213698Y139198D01*
X214525Y138645D01*
X215000Y138550D01*
Y140500D01*
D02*
G37*
G36*
X223681Y137179D02*
X221819D01*
Y135957D01*
X225304D01*
X225272Y136116D01*
X224899Y136674D01*
X224340Y137048D01*
X223681Y137179D01*
D02*
G37*
G36*
X220819D02*
X218957D01*
X218298Y137048D01*
X217739Y136674D01*
X217366Y136116D01*
X217334Y135957D01*
X220819D01*
Y137179D01*
D02*
G37*
G36*
X379135Y127734D02*
X362975D01*
Y118660D01*
X379135D01*
Y127734D01*
D02*
G37*
G36*
X381921Y106035D02*
X380500D01*
Y102500D01*
X385890D01*
X385818Y103044D01*
X385415Y104017D01*
X384774Y104853D01*
X383939Y105494D01*
X382965Y105897D01*
X381921Y106035D01*
D02*
G37*
G36*
X379500D02*
X378079D01*
X377034Y105897D01*
X376062Y105494D01*
X375226Y104853D01*
X374585Y104017D01*
X374182Y103044D01*
X374110Y102500D01*
X379500D01*
Y106035D01*
D02*
G37*
G36*
X351500D02*
X350079D01*
X349035Y105897D01*
X348061Y105494D01*
X347226Y104853D01*
X346585Y104017D01*
X346182Y103044D01*
X346110Y102500D01*
X351500D01*
Y106035D01*
D02*
G37*
G36*
X385890Y101500D02*
X380500D01*
Y97966D01*
X381921D01*
X382965Y98103D01*
X383939Y98506D01*
X384774Y99147D01*
X385415Y99983D01*
X385818Y100956D01*
X385890Y101500D01*
D02*
G37*
G36*
X379500D02*
X374110D01*
X374182Y100956D01*
X374585Y99983D01*
X375226Y99147D01*
X376062Y98506D01*
X377034Y98103D01*
X378079Y97966D01*
X379500D01*
Y101500D01*
D02*
G37*
G36*
X357890D02*
X352500D01*
Y97966D01*
X353921D01*
X354965Y98103D01*
X355939Y98506D01*
X356774Y99147D01*
X357415Y99983D01*
X357818Y100956D01*
X357890Y101500D01*
D02*
G37*
G36*
X351500D02*
X346110D01*
X346182Y100956D01*
X346585Y99983D01*
X347226Y99147D01*
X348061Y98506D01*
X349035Y98103D01*
X350079Y97966D01*
X351500D01*
Y101500D01*
D02*
G37*
G36*
X125500Y95500D02*
X123805D01*
X123881Y95122D01*
X124378Y94378D01*
X125122Y93881D01*
X125500Y93805D01*
Y95500D01*
D02*
G37*
G36*
X381921Y95631D02*
X378079D01*
X377139Y95507D01*
X376263Y95145D01*
X375511Y94568D01*
X374934Y93815D01*
X374571Y92940D01*
X374448Y92000D01*
X374571Y91060D01*
X374934Y90184D01*
X375511Y89432D01*
X376263Y88855D01*
X377139Y88493D01*
X378079Y88369D01*
X381921D01*
X382861Y88493D01*
X383737Y88855D01*
X384489Y89432D01*
X385066Y90184D01*
X385429Y91060D01*
X385552Y92000D01*
X385429Y92940D01*
X385066Y93815D01*
X384489Y94568D01*
X383737Y95145D01*
X382861Y95507D01*
X381921Y95631D01*
D02*
G37*
G36*
X157665Y82547D02*
X155000D01*
Y80276D01*
X157665D01*
Y82547D01*
D02*
G37*
G36*
X154000D02*
X151335D01*
Y80276D01*
X154000D01*
Y82547D01*
D02*
G37*
G36*
X216000Y89052D02*
X215060Y88929D01*
X214184Y88566D01*
X213433Y87989D01*
X212855Y87237D01*
X212493Y86361D01*
X212369Y85421D01*
Y81579D01*
X212493Y80639D01*
X212855Y79763D01*
X213433Y79011D01*
X214184Y78434D01*
X215060Y78071D01*
X216000Y77948D01*
X216940Y78071D01*
X217815Y78434D01*
X218567Y79011D01*
X219145Y79763D01*
X219507Y80639D01*
X219631Y81579D01*
Y85421D01*
X219507Y86361D01*
X219145Y87237D01*
X218567Y87989D01*
X217815Y88566D01*
X216940Y88929D01*
X216000Y89052D01*
D02*
G37*
G36*
X206000D02*
X205060Y88929D01*
X204185Y88566D01*
X203432Y87989D01*
X202855Y87237D01*
X202493Y86361D01*
X202369Y85421D01*
Y81579D01*
X202493Y80639D01*
X202855Y79763D01*
X203432Y79011D01*
X204185Y78434D01*
X205060Y78071D01*
X206000Y77948D01*
X206940Y78071D01*
X207816Y78434D01*
X208568Y79011D01*
X209145Y79763D01*
X209507Y80639D01*
X209631Y81579D01*
Y85421D01*
X209507Y86361D01*
X209145Y87237D01*
X208568Y87989D01*
X207816Y88566D01*
X206940Y88929D01*
X206000Y89052D01*
D02*
G37*
G36*
X196000D02*
X195060Y88929D01*
X194185Y88566D01*
X193432Y87989D01*
X192855Y87237D01*
X192493Y86361D01*
X192369Y85421D01*
Y81579D01*
X192493Y80639D01*
X192855Y79763D01*
X193432Y79011D01*
X194185Y78434D01*
X195060Y78071D01*
X196000Y77948D01*
X196940Y78071D01*
X197816Y78434D01*
X198568Y79011D01*
X199145Y79763D01*
X199507Y80639D01*
X199631Y81579D01*
Y85421D01*
X199507Y86361D01*
X199145Y87237D01*
X198568Y87989D01*
X197816Y88566D01*
X196940Y88929D01*
X196000Y89052D01*
D02*
G37*
G36*
X338453Y65165D02*
Y62500D01*
X340724D01*
Y65165D01*
X338453D01*
D02*
G37*
G36*
X278453D02*
Y62500D01*
X280724D01*
Y65165D01*
X278453D01*
D02*
G37*
G36*
X217953D02*
Y62500D01*
X220224D01*
Y65165D01*
X217953D01*
D02*
G37*
G36*
X156953D02*
Y62500D01*
X159224D01*
Y65165D01*
X156953D01*
D02*
G37*
G36*
X245547D02*
X243276D01*
Y62500D01*
X245547D01*
Y65165D01*
D02*
G37*
G36*
X185047D02*
X182776D01*
Y62500D01*
X185047D01*
Y65165D01*
D02*
G37*
G36*
X124047D02*
X121776D01*
Y62500D01*
X124047D01*
Y65165D01*
D02*
G37*
G36*
X353039Y71024D02*
X351961D01*
X351162Y70919D01*
X350417Y70610D01*
X349778Y70120D01*
X349287Y69481D01*
X348979Y68736D01*
X348874Y67937D01*
X348979Y67138D01*
X349287Y66394D01*
X349778Y65754D01*
X350417Y65263D01*
X351162Y64955D01*
X351522Y64908D01*
Y63496D01*
X351057Y63434D01*
X350215Y63086D01*
X349493Y62531D01*
X348938Y61808D01*
X348589Y60966D01*
X348536Y60563D01*
X352500D01*
X356464D01*
X356411Y60966D01*
X356062Y61808D01*
X355507Y62531D01*
X354785Y63086D01*
X353943Y63434D01*
X353478Y63496D01*
Y64908D01*
X353838Y64955D01*
X354583Y65263D01*
X355222Y65754D01*
X355713Y66394D01*
X356021Y67138D01*
X356126Y67937D01*
X356021Y68736D01*
X355713Y69481D01*
X355222Y70120D01*
X354583Y70610D01*
X353838Y70919D01*
X353039Y71024D01*
D02*
G37*
G36*
X340724Y61500D02*
X338453D01*
Y58835D01*
X340724D01*
Y61500D01*
D02*
G37*
G36*
X306047D02*
X303776D01*
Y58835D01*
X306047D01*
Y61500D01*
D02*
G37*
G36*
X280724D02*
X278453D01*
Y58835D01*
X280724D01*
Y61500D01*
D02*
G37*
G36*
X220224D02*
X217953D01*
Y58835D01*
X220224D01*
Y61500D01*
D02*
G37*
G36*
X159224D02*
X156953D01*
Y58835D01*
X159224D01*
Y61500D01*
D02*
G37*
G36*
X245547D02*
X243276D01*
Y58835D01*
X245547D01*
Y61500D01*
D02*
G37*
G36*
X185047D02*
X182776D01*
Y58835D01*
X185047D01*
Y61500D01*
D02*
G37*
G36*
X124047D02*
X121776D01*
Y58835D01*
X124047D01*
Y61500D01*
D02*
G37*
G36*
X381921Y62034D02*
X380500D01*
Y58500D01*
X385890D01*
X385818Y59044D01*
X385415Y60017D01*
X384774Y60853D01*
X383939Y61494D01*
X382965Y61897D01*
X381921Y62034D01*
D02*
G37*
G36*
X379500D02*
X378079D01*
X377034Y61897D01*
X376062Y61494D01*
X375226Y60853D01*
X374585Y60017D01*
X374182Y59044D01*
X374110Y58500D01*
X379500D01*
Y62034D01*
D02*
G37*
G36*
X356464Y59563D02*
X353000D01*
Y56573D01*
X353039D01*
X353943Y56691D01*
X354785Y57040D01*
X355507Y57595D01*
X356062Y58318D01*
X356411Y59160D01*
X356464Y59563D01*
D02*
G37*
G36*
X352000D02*
X348536D01*
X348589Y59160D01*
X348938Y58318D01*
X349493Y57595D01*
X350215Y57040D01*
X351057Y56691D01*
X351961Y56573D01*
X352000D01*
Y59563D01*
D02*
G37*
G36*
X231500Y69026D02*
X230032Y68881D01*
X228620Y68453D01*
X227319Y67758D01*
X226178Y66822D01*
X225242Y65681D01*
X224547Y64380D01*
X224119Y62968D01*
X223974Y61500D01*
X224119Y60032D01*
X224547Y58620D01*
X225242Y57319D01*
X226178Y56178D01*
X227319Y55242D01*
X228620Y54547D01*
X230032Y54119D01*
X231500Y53974D01*
X232968Y54119D01*
X234380Y54547D01*
X235681Y55242D01*
X236822Y56178D01*
X237758Y57319D01*
X238453Y58620D01*
X238881Y60032D01*
X239026Y61500D01*
X238881Y62968D01*
X238453Y64380D01*
X237758Y65681D01*
X236822Y66822D01*
X235681Y67758D01*
X234380Y68453D01*
X232968Y68881D01*
X231500Y69026D01*
D02*
G37*
G36*
X385890Y57500D02*
X380500D01*
Y53966D01*
X381921D01*
X382965Y54103D01*
X383939Y54506D01*
X384774Y55147D01*
X385415Y55983D01*
X385818Y56956D01*
X385890Y57500D01*
D02*
G37*
G36*
X102581Y53765D02*
X101419D01*
X101181Y53765D01*
X96676D01*
Y52568D01*
X87915D01*
Y53246D01*
X83565D01*
Y48502D01*
X87915D01*
Y49306D01*
X96676D01*
Y48235D01*
X101181D01*
X101419Y48235D01*
X102581D01*
X103674Y47189D01*
Y39500D01*
X103775Y38993D01*
X104063Y38563D01*
X116063Y26563D01*
X116493Y26275D01*
X117000Y26175D01*
X290860D01*
X290986Y25986D01*
X291681Y25522D01*
X292500Y25359D01*
X293319Y25522D01*
X294014Y25986D01*
X294140Y26175D01*
X346000D01*
X346507Y26275D01*
X346937Y26563D01*
X347225Y26993D01*
X347325Y27500D01*
X347225Y28007D01*
X346937Y28437D01*
X346507Y28725D01*
X346000Y28826D01*
X294140D01*
X294014Y29014D01*
X293319Y29478D01*
X292500Y29641D01*
X291681Y29478D01*
X290986Y29014D01*
X290860Y28826D01*
X117549D01*
X106325Y40049D01*
Y48235D01*
X107324D01*
Y53765D01*
X102819D01*
X102581Y53765D01*
D02*
G37*
G36*
X80835Y53646D02*
X78760D01*
Y51374D01*
X80835D01*
Y53646D01*
D02*
G37*
G36*
X77760D02*
X75685D01*
Y51374D01*
X77760D01*
Y53646D01*
D02*
G37*
G36*
X16815Y51419D02*
X15631Y51263D01*
X14527Y50806D01*
X13579Y50078D01*
X12852Y49131D01*
X12651Y48647D01*
X11136D01*
X10936Y49131D01*
X10208Y50078D01*
X9261Y50806D01*
X8157Y51263D01*
X6972Y51419D01*
X5788Y51263D01*
X4684Y50806D01*
X3737Y50078D01*
X3009Y49131D01*
X2552Y48027D01*
X2396Y46843D01*
X2552Y45658D01*
X3009Y44554D01*
X3737Y43607D01*
X4684Y42880D01*
X5788Y42422D01*
X6972Y42266D01*
X8157Y42422D01*
X9261Y42880D01*
X10208Y43607D01*
X10936Y44554D01*
X11136Y45039D01*
X12651D01*
X12852Y44554D01*
X13579Y43607D01*
X14527Y42880D01*
X15631Y42422D01*
X16815Y42266D01*
X17999Y42422D01*
X19103Y42880D01*
X20051Y43607D01*
X20778Y44554D01*
X21235Y45658D01*
X21391Y46843D01*
X21235Y48027D01*
X20778Y49131D01*
X20051Y50078D01*
X19103Y50806D01*
X17999Y51263D01*
X16815Y51419D01*
D02*
G37*
G36*
X80835Y50374D02*
X78760D01*
Y48102D01*
X80835D01*
Y50374D01*
D02*
G37*
G36*
X77760D02*
X75685D01*
Y48102D01*
X77760D01*
Y50374D01*
D02*
G37*
G36*
X41037Y50442D02*
X31963D01*
Y43242D01*
X41037D01*
Y50442D01*
D02*
G37*
G36*
Y40600D02*
X31963D01*
Y33400D01*
X41037D01*
Y40600D01*
D02*
G37*
G36*
X358500Y46526D02*
X357032Y46381D01*
X355620Y45953D01*
X354319Y45258D01*
X353178Y44322D01*
X352242Y43181D01*
X351547Y41880D01*
X351119Y40468D01*
X350974Y39000D01*
X351119Y37532D01*
X351547Y36120D01*
X352242Y34819D01*
X353178Y33678D01*
X354319Y32742D01*
X355620Y32047D01*
X357032Y31619D01*
X358500Y31474D01*
X359968Y31619D01*
X361380Y32047D01*
X362681Y32742D01*
X363822Y33678D01*
X364758Y34819D01*
X365453Y36120D01*
X365881Y37532D01*
X366026Y39000D01*
X365881Y40468D01*
X365453Y41880D01*
X364758Y43181D01*
X363822Y44322D01*
X362681Y45258D01*
X361380Y45953D01*
X359968Y46381D01*
X358500Y46526D01*
D02*
G37*
G36*
X99921Y34534D02*
X98500D01*
Y31000D01*
X103890D01*
X103818Y31544D01*
X103415Y32517D01*
X102774Y33353D01*
X101938Y33994D01*
X100965Y34397D01*
X99921Y34534D01*
D02*
G37*
G36*
X97500D02*
X96079D01*
X95034Y34397D01*
X94061Y33994D01*
X93226Y33353D01*
X92585Y32517D01*
X92182Y31544D01*
X92110Y31000D01*
X97500D01*
Y34534D01*
D02*
G37*
G36*
X48500Y53641D02*
X47681Y53478D01*
X46986Y53014D01*
X46522Y52319D01*
X46359Y51500D01*
Y49000D01*
X46522Y48181D01*
X46986Y47486D01*
X63486Y30986D01*
X64181Y30522D01*
X65000Y30359D01*
X80000D01*
X80819Y30522D01*
X81514Y30986D01*
X83514Y32986D01*
X83978Y33681D01*
X84141Y34500D01*
X83978Y35319D01*
X83631Y35838D01*
Y40628D01*
X84175D01*
Y45372D01*
X79825D01*
Y40628D01*
X80369D01*
Y35897D01*
X79113Y34641D01*
X65887D01*
X50641Y49887D01*
Y51500D01*
X50478Y52319D01*
X50014Y53014D01*
X49319Y53478D01*
X48500Y53641D01*
D02*
G37*
G36*
X20815Y32094D02*
X17315D01*
Y27657D01*
X20815D01*
Y32094D01*
D02*
G37*
G36*
X16315D02*
X12815D01*
Y27657D01*
X16315D01*
Y32094D01*
D02*
G37*
G36*
X52500Y29449D02*
Y27500D01*
X54449D01*
X54355Y27975D01*
X53802Y28802D01*
X52975Y29355D01*
X52500Y29449D01*
D02*
G37*
G36*
X51500D02*
X51025Y29355D01*
X50198Y28802D01*
X49645Y27975D01*
X49551Y27500D01*
X51500D01*
Y29449D01*
D02*
G37*
G36*
X103890Y30000D02*
X98500D01*
Y26465D01*
X99921D01*
X100965Y26603D01*
X101938Y27006D01*
X102774Y27647D01*
X103415Y28483D01*
X103818Y29456D01*
X103890Y30000D01*
D02*
G37*
G36*
X97500D02*
X92110D01*
X92182Y29456D01*
X92585Y28483D01*
X93226Y27647D01*
X94061Y27006D01*
X95034Y26603D01*
X96079Y26465D01*
X97500D01*
Y30000D01*
D02*
G37*
G36*
X54449Y26500D02*
X52500D01*
Y24551D01*
X52975Y24645D01*
X53802Y25198D01*
X54355Y26024D01*
X54449Y26500D01*
D02*
G37*
G36*
X51500D02*
X49551D01*
X49645Y26024D01*
X50198Y25198D01*
X51025Y24645D01*
X51500Y24551D01*
Y26500D01*
D02*
G37*
G36*
X20815Y26658D02*
X17315D01*
Y22220D01*
X20815D01*
Y26658D01*
D02*
G37*
G36*
X16315D02*
X12815D01*
Y22220D01*
X16315D01*
Y26658D01*
D02*
G37*
G36*
X327437Y23500D02*
X323000D01*
Y20000D01*
X327437D01*
Y23500D01*
D02*
G37*
G36*
X266937D02*
X262500D01*
Y20000D01*
X266937D01*
Y23500D01*
D02*
G37*
G36*
X206437D02*
X202000D01*
Y20000D01*
X206437D01*
Y23500D01*
D02*
G37*
G36*
X145437D02*
X141000D01*
Y20000D01*
X145437D01*
Y23500D01*
D02*
G37*
G36*
X322000D02*
X317563D01*
Y20000D01*
X322000D01*
Y23500D01*
D02*
G37*
G36*
X261500D02*
X257063D01*
Y20000D01*
X261500D01*
Y23500D01*
D02*
G37*
G36*
X201000D02*
X196563D01*
Y20000D01*
X201000D01*
Y23500D01*
D02*
G37*
G36*
X140000D02*
X135563D01*
Y20000D01*
X140000D01*
Y23500D01*
D02*
G37*
G36*
X99921Y24131D02*
X96079D01*
X95139Y24007D01*
X94263Y23645D01*
X93511Y23067D01*
X92934Y22316D01*
X92571Y21440D01*
X92448Y20500D01*
X92571Y19560D01*
X92934Y18685D01*
X93511Y17932D01*
X94263Y17355D01*
X95139Y16993D01*
X96079Y16869D01*
X99921D01*
X100861Y16993D01*
X101737Y17355D01*
X102489Y17932D01*
X103066Y18685D01*
X103429Y19560D01*
X103552Y20500D01*
X103429Y21440D01*
X103066Y22316D01*
X102489Y23067D01*
X101737Y23645D01*
X100861Y24007D01*
X99921Y24131D01*
D02*
G37*
G36*
X327437Y19000D02*
X323000D01*
Y15500D01*
X327437D01*
Y19000D01*
D02*
G37*
G36*
X322000D02*
X317563D01*
Y15500D01*
X322000D01*
Y19000D01*
D02*
G37*
G36*
X266937D02*
X262500D01*
Y15500D01*
X266937D01*
Y19000D01*
D02*
G37*
G36*
X261500D02*
X257063D01*
Y15500D01*
X261500D01*
Y19000D01*
D02*
G37*
G36*
X206437D02*
X202000D01*
Y15500D01*
X206437D01*
Y19000D01*
D02*
G37*
G36*
X201000D02*
X196563D01*
Y15500D01*
X201000D01*
Y19000D01*
D02*
G37*
G36*
X145437D02*
X141000D01*
Y15500D01*
X145437D01*
Y19000D01*
D02*
G37*
G36*
X140000D02*
X135563D01*
Y15500D01*
X140000D01*
Y19000D01*
D02*
G37*
G36*
X41037Y20915D02*
X31963D01*
Y13715D01*
X41037D01*
Y20915D01*
D02*
G37*
G36*
X202000Y11949D02*
Y10000D01*
X203949D01*
X203855Y10475D01*
X203302Y11302D01*
X202476Y11855D01*
X202000Y11949D01*
D02*
G37*
G36*
X201000D02*
X200524Y11855D01*
X199698Y11302D01*
X199145Y10475D01*
X199050Y10000D01*
X201000D01*
Y11949D01*
D02*
G37*
G36*
X262500Y11450D02*
Y9500D01*
X264450D01*
X264355Y9975D01*
X263802Y10802D01*
X262976Y11355D01*
X262500Y11450D01*
D02*
G37*
G36*
X261500D02*
X261024Y11355D01*
X260198Y10802D01*
X259645Y9975D01*
X259550Y9500D01*
X261500D01*
Y11450D01*
D02*
G37*
G36*
X141000D02*
Y9500D01*
X142949D01*
X142855Y9975D01*
X142302Y10802D01*
X141475Y11355D01*
X141000Y11450D01*
D02*
G37*
G36*
X140000D02*
X139524Y11355D01*
X138698Y10802D01*
X138145Y9975D01*
X138050Y9500D01*
X140000D01*
Y11450D01*
D02*
G37*
G36*
X16815Y12049D02*
X15631Y11893D01*
X14527Y11435D01*
X13579Y10708D01*
X12852Y9760D01*
X12651Y9276D01*
X11136D01*
X10936Y9760D01*
X10208Y10708D01*
X9261Y11435D01*
X8157Y11893D01*
X6972Y12049D01*
X5788Y11893D01*
X4684Y11435D01*
X3737Y10708D01*
X3009Y9760D01*
X2552Y8657D01*
X2396Y7472D01*
X2552Y6288D01*
X3009Y5184D01*
X3737Y4237D01*
X4684Y3509D01*
X5788Y3052D01*
X6972Y2896D01*
X8157Y3052D01*
X9261Y3509D01*
X10208Y4237D01*
X10936Y5184D01*
X11136Y5668D01*
X12651D01*
X12852Y5184D01*
X13579Y4237D01*
X14527Y3509D01*
X15631Y3052D01*
X16815Y2896D01*
X17999Y3052D01*
X19103Y3509D01*
X20051Y4237D01*
X20778Y5184D01*
X21235Y6288D01*
X21391Y7472D01*
X21235Y8657D01*
X20778Y9760D01*
X20051Y10708D01*
X19103Y11435D01*
X17999Y11893D01*
X16815Y12049D01*
D02*
G37*
G36*
X377953Y26232D02*
X376292Y26068D01*
X374694Y25583D01*
X373222Y24796D01*
X371932Y23738D01*
X370873Y22447D01*
X370086Y20975D01*
X369601Y19378D01*
X369438Y17717D01*
X369601Y16055D01*
X370086Y14458D01*
X370873Y12986D01*
X371932Y11695D01*
X373222Y10637D01*
X374694Y9850D01*
X376292Y9365D01*
X377953Y9201D01*
X379614Y9365D01*
X381211Y9850D01*
X382683Y10637D01*
X383974Y11695D01*
X385033Y12986D01*
X385820Y14458D01*
X386304Y16055D01*
X386468Y17717D01*
X386304Y19378D01*
X385820Y20975D01*
X385033Y22447D01*
X383974Y23738D01*
X382683Y24796D01*
X381211Y25583D01*
X379614Y26068D01*
X377953Y26232D01*
D02*
G37*
G36*
X78740D02*
X77079Y26068D01*
X75482Y25583D01*
X74010Y24796D01*
X72719Y23738D01*
X71660Y22447D01*
X70873Y20975D01*
X70389Y19378D01*
X70225Y17717D01*
X70389Y16055D01*
X70873Y14458D01*
X71660Y12986D01*
X72719Y11695D01*
X74010Y10637D01*
X75482Y9850D01*
X77079Y9365D01*
X78740Y9201D01*
X80401Y9365D01*
X81999Y9850D01*
X83471Y10637D01*
X84761Y11695D01*
X85820Y12986D01*
X86607Y14458D01*
X87092Y16055D01*
X87255Y17717D01*
X87092Y19378D01*
X86607Y20975D01*
X85820Y22447D01*
X84761Y23738D01*
X83471Y24796D01*
X81999Y25583D01*
X80401Y26068D01*
X78740Y26232D01*
D02*
G37*
G36*
X323000Y10449D02*
Y8500D01*
X324950D01*
X324855Y8975D01*
X324302Y9802D01*
X323476Y10355D01*
X323000Y10449D01*
D02*
G37*
G36*
X322000D02*
X321525Y10355D01*
X320698Y9802D01*
X320145Y8975D01*
X320051Y8500D01*
X322000D01*
Y10449D01*
D02*
G37*
G36*
X203949Y9000D02*
X202000D01*
Y7051D01*
X202476Y7145D01*
X203302Y7698D01*
X203855Y8525D01*
X203949Y9000D01*
D02*
G37*
G36*
X201000D02*
X199050D01*
X199145Y8525D01*
X199698Y7698D01*
X200524Y7145D01*
X201000Y7051D01*
Y9000D01*
D02*
G37*
G36*
X99921Y14131D02*
X96079D01*
X95139Y14007D01*
X94263Y13645D01*
X93511Y13068D01*
X92934Y12315D01*
X92571Y11440D01*
X92448Y10500D01*
X92571Y9560D01*
X92934Y8685D01*
X93511Y7932D01*
X94263Y7355D01*
X95139Y6993D01*
X96079Y6869D01*
X99921D01*
X100861Y6993D01*
X101737Y7355D01*
X102489Y7932D01*
X103066Y8685D01*
X103429Y9560D01*
X103552Y10500D01*
X103429Y11440D01*
X103066Y12315D01*
X102489Y13068D01*
X101737Y13645D01*
X100861Y14007D01*
X99921Y14131D01*
D02*
G37*
G36*
X264450Y8500D02*
X262500D01*
Y6550D01*
X262976Y6645D01*
X263802Y7198D01*
X264355Y8025D01*
X264450Y8500D01*
D02*
G37*
G36*
X261500D02*
X259550D01*
X259645Y8025D01*
X260198Y7198D01*
X261024Y6645D01*
X261500Y6550D01*
Y8500D01*
D02*
G37*
G36*
X142949D02*
X141000D01*
Y6550D01*
X141475Y6645D01*
X142302Y7198D01*
X142855Y8025D01*
X142949Y8500D01*
D02*
G37*
G36*
X140000D02*
X138050D01*
X138145Y8025D01*
X138698Y7198D01*
X139524Y6645D01*
X140000Y6550D01*
Y8500D01*
D02*
G37*
G36*
X324950Y7500D02*
X323000D01*
Y5551D01*
X323476Y5645D01*
X324302Y6198D01*
X324855Y7025D01*
X324950Y7500D01*
D02*
G37*
G36*
X322000D02*
X320051D01*
X320145Y7025D01*
X320698Y6198D01*
X321525Y5645D01*
X322000Y5551D01*
Y7500D01*
D02*
G37*
G36*
X342185Y24076D02*
X341001Y23920D01*
X339897Y23463D01*
X338949Y22736D01*
X338222Y21788D01*
X337765Y20684D01*
X337609Y19500D01*
X337765Y18316D01*
X338222Y17212D01*
X338949Y16264D01*
X339897Y15537D01*
X340381Y15336D01*
Y13821D01*
X339897Y13621D01*
X338949Y12893D01*
X338222Y11946D01*
X337765Y10842D01*
X337609Y9657D01*
X337765Y8473D01*
X338222Y7369D01*
X338949Y6422D01*
X339897Y5694D01*
X341001Y5237D01*
X342185Y5081D01*
X343369Y5237D01*
X344473Y5694D01*
X345421Y6422D01*
X346148Y7369D01*
X346605Y8473D01*
X346761Y9657D01*
X346605Y10842D01*
X346148Y11946D01*
X345421Y12893D01*
X344473Y13621D01*
X343989Y13821D01*
Y15336D01*
X344473Y15537D01*
X345421Y16264D01*
X346148Y17212D01*
X346605Y18316D01*
X346761Y19500D01*
X346605Y20684D01*
X346148Y21788D01*
X345421Y22736D01*
X344473Y23463D01*
X343369Y23920D01*
X342185Y24076D01*
D02*
G37*
G36*
X302815D02*
X301631Y23920D01*
X300527Y23463D01*
X299579Y22736D01*
X298852Y21788D01*
X298395Y20684D01*
X298239Y19500D01*
X298395Y18316D01*
X298852Y17212D01*
X299579Y16264D01*
X300527Y15537D01*
X301011Y15336D01*
Y13821D01*
X300527Y13621D01*
X299579Y12893D01*
X298852Y11946D01*
X298395Y10842D01*
X298239Y9657D01*
X298395Y8473D01*
X298852Y7369D01*
X299579Y6422D01*
X300527Y5694D01*
X301631Y5237D01*
X302815Y5081D01*
X303999Y5237D01*
X305103Y5694D01*
X306051Y6422D01*
X306778Y7369D01*
X307235Y8473D01*
X307391Y9657D01*
X307235Y10842D01*
X306778Y11946D01*
X306051Y12893D01*
X305103Y13621D01*
X304619Y13821D01*
Y15336D01*
X305103Y15537D01*
X306051Y16264D01*
X306778Y17212D01*
X307235Y18316D01*
X307391Y19500D01*
X307235Y20684D01*
X306778Y21788D01*
X306051Y22736D01*
X305103Y23463D01*
X303999Y23920D01*
X302815Y24076D01*
D02*
G37*
G36*
X281685D02*
X280501Y23920D01*
X279397Y23463D01*
X278449Y22736D01*
X277722Y21788D01*
X277265Y20684D01*
X277109Y19500D01*
X277265Y18316D01*
X277722Y17212D01*
X278449Y16264D01*
X279397Y15537D01*
X279881Y15336D01*
Y13821D01*
X279397Y13621D01*
X278449Y12893D01*
X277722Y11946D01*
X277265Y10842D01*
X277109Y9657D01*
X277265Y8473D01*
X277722Y7369D01*
X278449Y6422D01*
X279397Y5694D01*
X280501Y5237D01*
X281685Y5081D01*
X282869Y5237D01*
X283973Y5694D01*
X284921Y6422D01*
X285648Y7369D01*
X286105Y8473D01*
X286261Y9657D01*
X286105Y10842D01*
X285648Y11946D01*
X284921Y12893D01*
X283973Y13621D01*
X283489Y13821D01*
Y15336D01*
X283973Y15537D01*
X284921Y16264D01*
X285648Y17212D01*
X286105Y18316D01*
X286261Y19500D01*
X286105Y20684D01*
X285648Y21788D01*
X284921Y22736D01*
X283973Y23463D01*
X282869Y23920D01*
X281685Y24076D01*
D02*
G37*
G36*
X242315D02*
X241131Y23920D01*
X240027Y23463D01*
X239079Y22736D01*
X238352Y21788D01*
X237895Y20684D01*
X237739Y19500D01*
X237895Y18316D01*
X238352Y17212D01*
X239079Y16264D01*
X240027Y15537D01*
X240511Y15336D01*
Y13821D01*
X240027Y13621D01*
X239079Y12893D01*
X238352Y11946D01*
X237895Y10842D01*
X237739Y9657D01*
X237895Y8473D01*
X238352Y7369D01*
X239079Y6422D01*
X240027Y5694D01*
X241131Y5237D01*
X242315Y5081D01*
X243499Y5237D01*
X244603Y5694D01*
X245551Y6422D01*
X246278Y7369D01*
X246735Y8473D01*
X246891Y9657D01*
X246735Y10842D01*
X246278Y11946D01*
X245551Y12893D01*
X244603Y13621D01*
X244119Y13821D01*
Y15336D01*
X244603Y15537D01*
X245551Y16264D01*
X246278Y17212D01*
X246735Y18316D01*
X246891Y19500D01*
X246735Y20684D01*
X246278Y21788D01*
X245551Y22736D01*
X244603Y23463D01*
X243499Y23920D01*
X242315Y24076D01*
D02*
G37*
G36*
X221185D02*
X220001Y23920D01*
X218897Y23463D01*
X217949Y22736D01*
X217222Y21788D01*
X216765Y20684D01*
X216609Y19500D01*
X216765Y18316D01*
X217222Y17212D01*
X217949Y16264D01*
X218897Y15537D01*
X219381Y15336D01*
Y13821D01*
X218897Y13621D01*
X217949Y12893D01*
X217222Y11946D01*
X216765Y10842D01*
X216609Y9657D01*
X216765Y8473D01*
X217222Y7369D01*
X217949Y6422D01*
X218897Y5694D01*
X220001Y5237D01*
X221185Y5081D01*
X222369Y5237D01*
X223473Y5694D01*
X224421Y6422D01*
X225148Y7369D01*
X225605Y8473D01*
X225761Y9657D01*
X225605Y10842D01*
X225148Y11946D01*
X224421Y12893D01*
X223473Y13621D01*
X222989Y13821D01*
Y15336D01*
X223473Y15537D01*
X224421Y16264D01*
X225148Y17212D01*
X225605Y18316D01*
X225761Y19500D01*
X225605Y20684D01*
X225148Y21788D01*
X224421Y22736D01*
X223473Y23463D01*
X222369Y23920D01*
X221185Y24076D01*
D02*
G37*
G36*
X181815D02*
X180631Y23920D01*
X179527Y23463D01*
X178579Y22736D01*
X177852Y21788D01*
X177395Y20684D01*
X177239Y19500D01*
X177395Y18316D01*
X177852Y17212D01*
X178579Y16264D01*
X179527Y15537D01*
X180011Y15336D01*
Y13821D01*
X179527Y13621D01*
X178579Y12893D01*
X177852Y11946D01*
X177395Y10842D01*
X177239Y9657D01*
X177395Y8473D01*
X177852Y7369D01*
X178579Y6422D01*
X179527Y5694D01*
X180631Y5237D01*
X181815Y5081D01*
X182999Y5237D01*
X184103Y5694D01*
X185051Y6422D01*
X185778Y7369D01*
X186235Y8473D01*
X186391Y9657D01*
X186235Y10842D01*
X185778Y11946D01*
X185051Y12893D01*
X184103Y13621D01*
X183619Y13821D01*
Y15336D01*
X184103Y15537D01*
X185051Y16264D01*
X185778Y17212D01*
X186235Y18316D01*
X186391Y19500D01*
X186235Y20684D01*
X185778Y21788D01*
X185051Y22736D01*
X184103Y23463D01*
X182999Y23920D01*
X181815Y24076D01*
D02*
G37*
G36*
X160185D02*
X159001Y23920D01*
X157897Y23463D01*
X156949Y22736D01*
X156222Y21788D01*
X155765Y20684D01*
X155609Y19500D01*
X155765Y18316D01*
X156222Y17212D01*
X156949Y16264D01*
X157897Y15537D01*
X158381Y15336D01*
Y13821D01*
X157897Y13621D01*
X156949Y12893D01*
X156222Y11946D01*
X155765Y10842D01*
X155609Y9657D01*
X155765Y8473D01*
X156222Y7369D01*
X156949Y6422D01*
X157897Y5694D01*
X159001Y5237D01*
X160185Y5081D01*
X161369Y5237D01*
X162473Y5694D01*
X163421Y6422D01*
X164148Y7369D01*
X164605Y8473D01*
X164761Y9657D01*
X164605Y10842D01*
X164148Y11946D01*
X163421Y12893D01*
X162473Y13621D01*
X161989Y13821D01*
Y15336D01*
X162473Y15537D01*
X163421Y16264D01*
X164148Y17212D01*
X164605Y18316D01*
X164761Y19500D01*
X164605Y20684D01*
X164148Y21788D01*
X163421Y22736D01*
X162473Y23463D01*
X161369Y23920D01*
X160185Y24076D01*
D02*
G37*
G36*
X120815D02*
X119631Y23920D01*
X118527Y23463D01*
X117579Y22736D01*
X116852Y21788D01*
X116395Y20684D01*
X116239Y19500D01*
X116395Y18316D01*
X116852Y17212D01*
X117579Y16264D01*
X118527Y15537D01*
X119011Y15336D01*
Y13821D01*
X118527Y13621D01*
X117579Y12893D01*
X116852Y11946D01*
X116395Y10842D01*
X116239Y9657D01*
X116395Y8473D01*
X116852Y7369D01*
X117579Y6422D01*
X118527Y5694D01*
X119631Y5237D01*
X120815Y5081D01*
X121999Y5237D01*
X123103Y5694D01*
X124051Y6422D01*
X124778Y7369D01*
X125235Y8473D01*
X125391Y9657D01*
X125235Y10842D01*
X124778Y11946D01*
X124051Y12893D01*
X123103Y13621D01*
X122619Y13821D01*
Y15336D01*
X123103Y15537D01*
X124051Y16264D01*
X124778Y17212D01*
X125235Y18316D01*
X125391Y19500D01*
X125235Y20684D01*
X124778Y21788D01*
X124051Y22736D01*
X123103Y23463D01*
X121999Y23920D01*
X120815Y24076D01*
D02*
G37*
G36*
X41037Y11072D02*
X31963D01*
Y3872D01*
X41037D01*
Y11072D01*
D02*
G37*
G36*
X243500Y156449D02*
Y154500D01*
X245449D01*
X245355Y154975D01*
X244802Y155802D01*
X243975Y156355D01*
X243500Y156449D01*
D02*
G37*
G36*
X242500D02*
X242024Y156355D01*
X241198Y155802D01*
X240645Y154975D01*
X240550Y154500D01*
X242500D01*
Y156449D01*
D02*
G37*
G36*
X245449Y153500D02*
X243500D01*
Y151550D01*
X243975Y151645D01*
X244802Y152198D01*
X245355Y153024D01*
X245449Y153500D01*
D02*
G37*
G36*
X242500D02*
X240550D01*
X240645Y153024D01*
X241198Y152198D01*
X242024Y151645D01*
X242500Y151550D01*
Y153500D01*
D02*
G37*
G36*
X278000Y105949D02*
Y104000D01*
X279949D01*
X279855Y104475D01*
X279302Y105302D01*
X278475Y105855D01*
X278000Y105949D01*
D02*
G37*
G36*
X277000D02*
X276524Y105855D01*
X275698Y105302D01*
X275145Y104475D01*
X275050Y104000D01*
X277000D01*
Y105949D01*
D02*
G37*
G36*
X279949Y103000D02*
X278000D01*
Y101050D01*
X278475Y101145D01*
X279302Y101698D01*
X279855Y102524D01*
X279949Y103000D01*
D02*
G37*
G36*
X277000D02*
X275050D01*
X275145Y102524D01*
X275698Y101698D01*
X276524Y101145D01*
X277000Y101050D01*
Y103000D01*
D02*
G37*
G36*
X166500Y145949D02*
Y144000D01*
X168449D01*
X168355Y144475D01*
X167802Y145302D01*
X166975Y145855D01*
X166500Y145949D01*
D02*
G37*
G36*
X165500D02*
X165024Y145855D01*
X164198Y145302D01*
X163645Y144475D01*
X163550Y144000D01*
X165500D01*
Y145949D01*
D02*
G37*
G36*
X168449Y143000D02*
X166500D01*
Y141051D01*
X166975Y141145D01*
X167802Y141698D01*
X168355Y142525D01*
X168449Y143000D01*
D02*
G37*
G36*
X165500D02*
X163550D01*
X163645Y142525D01*
X164198Y141698D01*
X165024Y141145D01*
X165500Y141051D01*
Y143000D01*
D02*
G37*
G36*
X155181Y137179D02*
X153319D01*
Y135957D01*
X156804D01*
X156772Y136116D01*
X156399Y136674D01*
X155840Y137048D01*
X155181Y137179D01*
D02*
G37*
G36*
X130500Y113195D02*
Y111500D01*
X132195D01*
X132120Y111878D01*
X131622Y112622D01*
X130878Y113119D01*
X130500Y113195D01*
D02*
G37*
G36*
X129500D02*
X129122Y113119D01*
X128378Y112622D01*
X127881Y111878D01*
X127805Y111500D01*
X129500D01*
Y113195D01*
D02*
G37*
G36*
X132195Y110500D02*
X130500D01*
Y108805D01*
X130878Y108880D01*
X131622Y109378D01*
X132120Y110122D01*
X132195Y110500D01*
D02*
G37*
G36*
X129500D02*
X127805D01*
X127881Y110122D01*
X128378Y109378D01*
X129122Y108880D01*
X129500Y108805D01*
Y110500D01*
D02*
G37*
%LPD*%
D10*
X154453Y89000D02*
X154500Y88953D01*
X148500Y96953D02*
X148547Y97000D01*
X198681Y117543D02*
X209457D01*
X221319D02*
X227457D01*
X130181D02*
X135957D01*
X152819D02*
X159957D01*
X130181Y130339D02*
X134339D01*
X138000Y134000D01*
Y137000D01*
X140000Y135500D02*
X156500Y152000D01*
X136161Y122661D02*
X140000Y126500D01*
Y135500D01*
X130181Y122661D02*
X136161D01*
X138000Y137000D02*
X156000Y155000D01*
X230500D02*
X256339Y129161D01*
X230500Y152000D02*
X255898Y126602D01*
X256339Y129161D02*
X264181D01*
X255898Y126602D02*
X264181D01*
X152748Y122732D02*
X152819Y122661D01*
X148268Y122732D02*
X152748D01*
X146000Y125000D02*
X148268Y122732D01*
X252516Y121484D02*
X264181D01*
X254457Y124043D02*
X264181D01*
X286819Y121484D02*
X293016D01*
X286819Y124043D02*
X296207D01*
X286819Y126602D02*
X286858Y126642D01*
X298142D01*
X298244Y126539D01*
X286819Y129161D02*
X299839D01*
X221319Y122661D02*
X221391Y122589D01*
X224794D01*
X226868Y120515D01*
X234485D01*
X221319Y130339D02*
X227736D01*
X228597Y131200D01*
X239300D01*
X242500Y128000D01*
X231400Y124400D02*
Y128600D01*
X225500Y124146D02*
Y124635D01*
X221319Y125221D02*
X221391Y125148D01*
X224987D01*
X225500Y124635D01*
X227246Y122400D02*
X229400D01*
X225500Y124146D02*
X227246Y122400D01*
X225721Y127779D02*
X227997Y125503D01*
Y125326D02*
X228323Y125000D01*
X227997Y125326D02*
Y125503D01*
X229400Y122400D02*
X231400Y124400D01*
X221319Y127779D02*
X225721D01*
X192748Y125148D02*
X198609D01*
X192500Y124900D02*
X192748Y125148D01*
X191262Y127779D02*
X198681D01*
X190041Y129000D02*
X191262Y127779D01*
X189500Y129000D02*
X190041D01*
X191653Y131600D02*
X192914Y130339D01*
X188100Y131600D02*
X191653D01*
X192914Y130339D02*
X198681D01*
X198609Y125148D02*
X198681Y125221D01*
X193838Y122661D02*
X198681D01*
X191177Y120000D02*
X193838Y122661D01*
X183900Y127400D02*
X188100Y131600D01*
X185500Y120000D02*
X191177D01*
X242500Y116500D02*
Y128000D01*
X182900Y114400D02*
X183900Y115400D01*
Y127400D01*
X182900Y107923D02*
Y114400D01*
X185500Y109000D02*
Y120000D01*
X160611Y131200D02*
X167800D01*
X160609Y120800D02*
X170500D01*
X152819Y130339D02*
X159749D01*
X160611Y131200D01*
X169500Y124323D02*
Y126500D01*
X167577Y122400D02*
X169500Y124323D01*
X167400Y128600D02*
X169500Y126500D01*
X164000Y128600D02*
X167400D01*
X152819Y122661D02*
X158747D01*
X160609Y120800D01*
X152819Y125221D02*
X160280D01*
X163100Y122400D01*
X167577D01*
X163500Y125000D02*
X166500D01*
X160793Y127707D02*
X163500Y125000D01*
X152891Y127707D02*
X160793D01*
X152819Y127779D02*
X152891Y127707D01*
X122500Y124900D02*
X122820Y125221D01*
X130181D01*
X119588Y117088D02*
X125161Y122661D01*
X130181D01*
X117500Y126906D02*
X117883Y127288D01*
X119229D01*
X119720Y127779D01*
X117500Y126906D02*
Y127000D01*
X119720Y127779D02*
X130181D01*
X112000Y126000D02*
X116339Y130339D01*
X130181D01*
X112000Y116500D02*
Y126000D01*
X119588Y112589D02*
Y117088D01*
D24*
X286819Y144516D02*
D03*
Y141957D02*
D03*
Y139398D02*
D03*
Y136839D02*
D03*
Y134280D02*
D03*
Y131720D02*
D03*
Y129161D02*
D03*
Y126602D02*
D03*
Y124043D02*
D03*
Y121484D02*
D03*
X264181D02*
D03*
Y124043D02*
D03*
Y126602D02*
D03*
Y129161D02*
D03*
Y131720D02*
D03*
Y134280D02*
D03*
Y136839D02*
D03*
Y139398D02*
D03*
Y141957D02*
D03*
Y144516D02*
D03*
D49*
X163000Y88854D02*
D03*
Y83146D02*
D03*
X341000Y134646D02*
D03*
Y140354D02*
D03*
X330000Y134646D02*
D03*
Y140354D02*
D03*
X313500D02*
D03*
Y134646D02*
D03*
D50*
X150547Y62000D02*
D03*
X156453D02*
D03*
X150953Y75000D02*
D03*
X145047D02*
D03*
X154453Y97000D02*
D03*
X148547D02*
D03*
X130453Y62000D02*
D03*
X124547D02*
D03*
X337953D02*
D03*
X332047D02*
D03*
X306547D02*
D03*
X312453D02*
D03*
X277953D02*
D03*
X272047D02*
D03*
X246047D02*
D03*
X251953D02*
D03*
X217453D02*
D03*
X211547D02*
D03*
X185547D02*
D03*
X191453D02*
D03*
X104953Y51000D02*
D03*
X99047D02*
D03*
D51*
X160146Y75000D02*
D03*
X165854D02*
D03*
D52*
X154500Y88953D02*
D03*
Y83047D02*
D03*
X387000Y169047D02*
D03*
Y174953D02*
D03*
D53*
X321000Y140157D02*
D03*
Y134843D02*
D03*
D54*
X387000Y202134D02*
D03*
Y193866D02*
D03*
D55*
X22000Y234500D02*
D03*
Y204500D02*
D03*
Y135000D02*
D03*
Y165000D02*
D03*
D56*
X198681Y135457D02*
D03*
Y132898D02*
D03*
Y130339D02*
D03*
Y127779D02*
D03*
Y125221D02*
D03*
Y122661D02*
D03*
Y120102D02*
D03*
Y117543D02*
D03*
X221319Y135457D02*
D03*
Y132898D02*
D03*
Y130339D02*
D03*
Y127779D02*
D03*
Y125221D02*
D03*
Y122661D02*
D03*
Y120102D02*
D03*
Y117543D02*
D03*
X130181Y135457D02*
D03*
Y132898D02*
D03*
Y130339D02*
D03*
Y127779D02*
D03*
Y125221D02*
D03*
Y122661D02*
D03*
Y120102D02*
D03*
Y117543D02*
D03*
X152819Y135457D02*
D03*
Y132898D02*
D03*
Y130339D02*
D03*
Y127779D02*
D03*
Y125221D02*
D03*
Y122661D02*
D03*
Y120102D02*
D03*
Y117543D02*
D03*
D57*
X380110Y148000D02*
D03*
X371055D02*
D03*
X362000D02*
D03*
D58*
X371055Y123197D02*
D03*
D59*
X85740Y50874D02*
D03*
X78260D02*
D03*
X82000Y43000D02*
D03*
D60*
X107500Y80500D02*
X122000D01*
X126500Y76000D01*
X78000Y145000D02*
X78500Y145500D01*
X112000Y85000D02*
Y97500D01*
X107500Y80500D02*
X112000Y85000D01*
X293856Y134000D02*
X294000D01*
X292500Y27500D02*
X346000D01*
X117000D02*
X292500D01*
X278000Y136000D02*
X278433D01*
X286732Y134192D02*
X286819Y134280D01*
X281500Y133000D02*
X281933D01*
X272110Y141957D02*
X273067Y141000D01*
X273500D01*
X268939Y139398D02*
X270336Y138000D01*
X270500D01*
X216000Y111000D02*
X226500D01*
X209457Y117543D02*
X216000Y111000D01*
X227457Y117543D02*
X230000Y115000D01*
X135957Y117543D02*
X142000Y111500D01*
X158000D01*
X159957Y117543D02*
X162000Y115500D01*
X104953Y51000D02*
X105000Y50953D01*
Y39500D02*
Y50953D01*
Y39500D02*
X117000Y27500D01*
X371000Y147945D02*
X371055Y148000D01*
X362082Y168966D02*
X386918D01*
D61*
X133338Y75161D02*
X146500Y62000D01*
X133338Y75161D02*
Y98839D01*
X146500Y62000D02*
X150547D01*
X82000Y34500D02*
Y43000D01*
X294500Y79000D02*
Y79500D01*
X165854Y75000D02*
X173500D01*
X163000Y83146D02*
X163073Y83073D01*
X168927D01*
X169000Y83000D01*
X150953Y75000D02*
X160146D01*
X137000Y76500D02*
X137108D01*
X138608Y75000D01*
X145047D01*
X154500Y88953D02*
X154549Y88903D01*
X162951D01*
X163000Y88854D01*
X154453Y89000D02*
Y97000D01*
X148500Y93000D02*
Y96953D01*
X137000Y81500D02*
X148500Y93000D01*
X119588Y112589D02*
X133338Y98839D01*
X387000Y174953D02*
Y193866D01*
X156000Y155000D02*
X230500D01*
X156500Y152000D02*
X230500D01*
X146000Y125000D02*
Y137000D01*
X158223Y149223D01*
X167800Y131200D02*
X183223Y146623D01*
X227377D01*
X158223Y149223D02*
X229277D01*
X227377Y146623D02*
X252516Y121484D01*
X229277Y149223D02*
X254457Y124043D01*
X294500Y79500D02*
X300000Y85000D01*
X296000Y86000D02*
Y118500D01*
X289500Y79500D02*
X296000Y86000D01*
X300000Y85000D02*
Y120250D01*
X293016Y121484D02*
X296000Y118500D01*
X296207Y124043D02*
X300000Y120250D01*
X289500Y69500D02*
X328000D01*
X242500Y116500D02*
X289500Y69500D01*
X312453Y62000D02*
Y65328D01*
Y39390D02*
Y62000D01*
X311281Y66500D02*
X312453Y65328D01*
X288500Y66500D02*
X311281D01*
X298244Y126539D02*
X320500Y104283D01*
Y74000D02*
Y104283D01*
X299839Y129161D02*
X302500Y126500D01*
X328000Y101000D01*
Y69500D02*
Y101000D01*
X234485Y120515D02*
X288500Y66500D01*
X328000Y69500D02*
X332000Y65500D01*
Y62047D02*
X332047Y62000D01*
X332000Y62047D02*
Y65500D01*
X189323Y101500D02*
X216500D01*
X182900Y107923D02*
X189323Y101500D01*
X272047Y62000D02*
Y66953D01*
X185500Y109000D02*
X190400Y104100D01*
X217577D01*
X249010Y72667D02*
X250667D01*
X251000Y73000D01*
X217577Y104100D02*
X249010Y72667D01*
X216500Y101500D02*
X252000Y66000D01*
X251000Y73000D02*
X266000D01*
X272047Y66953D01*
X252000Y62047D02*
Y66000D01*
X251953Y62000D02*
X252000Y62047D01*
X167800Y131200D02*
X173500Y125500D01*
Y89000D02*
Y125500D01*
Y89000D02*
X200500Y62000D01*
X170500Y87000D02*
Y120800D01*
Y87000D02*
X191500Y66000D01*
X112000Y116500D02*
X130453Y98047D01*
X200500Y62000D02*
X211547D01*
X191453D02*
X191500Y62047D01*
Y66000D01*
X130453Y62000D02*
Y98047D01*
X332047Y39480D02*
X332343Y39185D01*
X332047Y39480D02*
Y62000D01*
X312453Y39390D02*
X312657Y39185D01*
X271843D02*
X272047Y39390D01*
Y62000D01*
X251953Y39390D02*
X252157Y39185D01*
X251953Y39390D02*
Y62000D01*
X211343Y39185D02*
X211547Y39390D01*
Y62000D01*
X191453Y39390D02*
X191657Y39185D01*
X191453Y39390D02*
Y62000D01*
X150343Y39185D02*
X150547Y39390D01*
Y62000D01*
X130453Y39390D02*
X130657Y39185D01*
X130453Y39390D02*
Y62000D01*
X332343Y39185D02*
X342185D01*
X302815D02*
X312657D01*
X271843D02*
X281685D01*
X242315D02*
X252157D01*
X211343D02*
X221185D01*
X181815D02*
X191657D01*
X150343D02*
X160185D01*
X120815D02*
X130657D01*
X85740Y50874D02*
X85803Y50937D01*
X98984D01*
X99047Y51000D01*
X78130Y51004D02*
X78260Y50874D01*
X320902Y134744D02*
X321000Y134843D01*
X313598Y134744D02*
X320902D01*
X313500Y134646D02*
X313598Y134744D01*
X329902Y140256D02*
X330000Y140354D01*
X321098Y140256D02*
X329902D01*
X321000Y140157D02*
X321098Y140256D01*
X330000Y140354D02*
X341000D01*
X341146Y140500D01*
X369000D01*
X371000Y142500D01*
Y147945D01*
D62*
X48500Y49000D02*
X65000Y32500D01*
X48500Y49000D02*
Y51500D01*
X272953Y170000D02*
X287008Y184055D01*
X88000Y133000D02*
X125000Y170000D01*
X272953D01*
X78500Y75500D02*
X88000Y85000D01*
Y133000D01*
X23000Y60884D02*
X63884D01*
X78500Y75500D01*
X23000Y115116D02*
X48500Y89616D01*
X65000Y32500D02*
X80000D01*
X82000Y34500D01*
X48500Y75500D02*
Y89616D01*
X115533Y234467D02*
X115567Y234500D01*
X115533Y204534D02*
Y234467D01*
X115500Y204500D02*
X115533Y204534D01*
X362000Y148000D02*
Y168884D01*
X362082Y168966D01*
X386918D02*
X387000Y169047D01*
X328500Y191110D02*
X350726Y168884D01*
X362000D01*
X287008Y184055D02*
X321445D01*
X328500Y191110D01*
X115500Y174972D02*
X157675D01*
X161639Y178937D01*
X162992D01*
X135843Y234500D02*
X149555D01*
X162992Y221063D01*
X41500Y234500D02*
X55724D01*
X115567D02*
X135843D01*
X55724D02*
X76000D01*
D63*
X186400Y166600D02*
X189000Y164000D01*
X186400Y166600D02*
X238197D01*
X143100D02*
X186400D01*
X238197D02*
X254500Y150297D01*
X125000Y148500D02*
X143100Y166600D01*
X108500Y109500D02*
X109500Y108500D01*
X111000D01*
X108500Y132000D02*
X125000Y148500D01*
X108500Y109500D02*
Y132000D01*
X286819Y131720D02*
X291576D01*
X293856Y134000D01*
X189000Y137000D02*
X190543Y135457D01*
X189000Y137000D02*
Y139000D01*
X190543Y135457D02*
X198681D01*
X279272Y136839D02*
X286819D01*
X278433Y136000D02*
X279272Y136839D01*
X286732Y134192D02*
X286819Y134280D01*
X283125Y134192D02*
X286732D01*
X281933Y133000D02*
X283125Y134192D01*
X264181Y141957D02*
X272110D01*
X264181Y139398D02*
X268939D01*
X125000Y136160D02*
Y148500D01*
X366000Y87000D02*
Y106000D01*
X350761Y121239D02*
Y121239D01*
Y121239D02*
X366000Y106000D01*
X341000Y131000D02*
X350761Y121239D01*
X331500Y109000D02*
X355954D01*
X364000Y64000D02*
Y103500D01*
X361500Y56500D02*
Y103454D01*
X340500Y127000D02*
X364000Y103500D01*
X355954Y109000D02*
X361500Y103454D01*
X321000Y132500D02*
Y134843D01*
Y132500D02*
X322500Y131000D01*
X341000D01*
X371000Y82000D02*
X380000D01*
X366000Y87000D02*
X371000Y82000D01*
X254500Y150297D02*
X254797Y150000D01*
X255203Y136839D02*
X264181D01*
X254500Y137541D02*
X255203Y136839D01*
X254500Y137541D02*
Y150297D01*
X264173Y144508D02*
X264181Y144516D01*
X258008Y144508D02*
X264173D01*
X258000Y144500D02*
X258008Y144508D01*
X379378Y48000D02*
X380000D01*
X377160Y50217D02*
X379378Y48000D01*
X377160Y50217D02*
Y50840D01*
X364000Y64000D02*
X377160Y50840D01*
X286819Y144516D02*
X295984D01*
X331500Y109000D01*
X344500Y92000D02*
X352000D01*
X286819Y141957D02*
X294543D01*
X344500Y92000D01*
X294500Y150000D02*
X310000Y134500D01*
X254797Y150000D02*
X294500D01*
X310000Y134500D02*
X313354D01*
X313500Y134646D01*
X379378Y38000D02*
X380000D01*
X377160Y40217D02*
X379378Y38000D01*
X377160Y40217D02*
Y40840D01*
X361500Y56500D02*
X377160Y40840D01*
X350500Y82000D02*
X352000D01*
X293102Y139398D02*
X350500Y82000D01*
X286819Y139398D02*
X293102D01*
X125703Y135457D02*
X130181D01*
X125000Y136160D02*
X125703Y135457D01*
D64*
X48500Y176000D02*
Y227500D01*
X37500Y165000D02*
X48500Y176000D01*
X41500Y234500D02*
X48500Y227500D01*
X22000Y165000D02*
X37500D01*
X35500Y135000D02*
X45500Y145000D01*
X22000Y135000D02*
X35500D01*
X45500Y145000D02*
X78000D01*
X22000Y234500D02*
X41500D01*
X22000Y204500D02*
X40000D01*
D65*
X23000Y115116D02*
D03*
Y60884D02*
D03*
X362000Y223116D02*
D03*
Y168884D02*
D03*
D66*
X48500Y75500D02*
D03*
X78500D02*
D03*
X97500Y110000D02*
D03*
D67*
X78500Y115500D02*
D03*
Y145500D02*
D03*
X48500Y135500D02*
D03*
X6972Y46843D02*
D03*
X16815D02*
D03*
X6972Y7472D02*
D03*
X16815D02*
D03*
X342185Y19500D02*
D03*
Y9657D02*
D03*
X302815Y19500D02*
D03*
Y9657D02*
D03*
X281685Y19500D02*
D03*
Y9657D02*
D03*
X242315Y19500D02*
D03*
Y9657D02*
D03*
X221185Y19500D02*
D03*
Y9657D02*
D03*
X181815Y19500D02*
D03*
Y9657D02*
D03*
X160185Y19500D02*
D03*
Y9657D02*
D03*
X120815Y19500D02*
D03*
Y9657D02*
D03*
D68*
X352500Y60063D02*
D03*
Y67937D02*
D03*
D69*
X206000Y83500D02*
D03*
X216000D02*
D03*
X196000D02*
D03*
D70*
X98000Y20500D02*
D03*
Y30500D02*
D03*
Y10500D02*
D03*
X380000Y48000D02*
D03*
Y58000D02*
D03*
Y38000D02*
D03*
X352000Y92000D02*
D03*
Y102000D02*
D03*
Y82000D02*
D03*
X380000Y92000D02*
D03*
Y102000D02*
D03*
Y82000D02*
D03*
D71*
X16815Y27158D02*
D03*
D72*
X36500Y37000D02*
D03*
Y17315D02*
D03*
Y7472D02*
D03*
Y46843D02*
D03*
D73*
X302815Y39185D02*
D03*
X342185D02*
D03*
X332343D02*
D03*
X312657D02*
D03*
X242315D02*
D03*
X281685D02*
D03*
X271843D02*
D03*
X252157D02*
D03*
X181815D02*
D03*
X221185D02*
D03*
X211343D02*
D03*
X191657D02*
D03*
X120815D02*
D03*
X160185D02*
D03*
X150343D02*
D03*
X130657D02*
D03*
D74*
X322500Y19500D02*
D03*
X262000D02*
D03*
X201500D02*
D03*
X140500D02*
D03*
D75*
X162992Y221063D02*
D03*
Y178937D02*
D03*
X287008Y184055D02*
D03*
Y215945D02*
D03*
D76*
X328500Y204890D02*
D03*
Y191110D02*
D03*
D77*
X115567Y234500D02*
D03*
X76000D02*
D03*
X135843D02*
D03*
X55724D02*
D03*
D78*
X115500Y174972D02*
D03*
Y204500D02*
D03*
D79*
X320000Y165000D02*
D03*
X231500Y61500D02*
D03*
X358500Y39000D02*
D03*
D80*
X377953Y17717D02*
D03*
Y236221D02*
D03*
X78740Y181102D02*
D03*
Y17717D02*
D03*
D81*
X126500Y76000D02*
D03*
X137000Y76500D02*
D03*
X107500Y80500D02*
D03*
D82*
X48500Y51500D02*
D03*
X294500Y79000D02*
D03*
X289500Y79500D02*
D03*
X294000Y134000D02*
D03*
X292500Y27500D02*
D03*
X52000Y27000D02*
D03*
X140500Y9000D02*
D03*
X201500Y9500D02*
D03*
X262000Y9000D02*
D03*
X322500Y8000D02*
D03*
X277500Y103500D02*
D03*
X243000Y154000D02*
D03*
X215500Y141000D02*
D03*
X166000Y143500D02*
D03*
X189000Y164000D02*
D03*
Y139000D02*
D03*
X278000Y136000D02*
D03*
X281500Y133000D02*
D03*
X273500Y141000D02*
D03*
X270500Y138000D02*
D03*
X226500Y111000D02*
D03*
X230000Y115000D02*
D03*
X158000Y111500D02*
D03*
X162000Y115500D02*
D03*
X320500Y74000D02*
D03*
X231400Y128600D02*
D03*
X228323Y125000D02*
D03*
X192500Y124900D02*
D03*
X189500Y129000D02*
D03*
X166500Y125000D02*
D03*
X164000Y128600D02*
D03*
X122500Y124900D02*
D03*
X117500Y126906D02*
D03*
X340500Y127000D02*
D03*
X258000Y144500D02*
D03*
D83*
X130000Y111000D02*
D03*
X136500Y86000D02*
D03*
X126000Y96000D02*
D03*
X173500Y75000D02*
D03*
X169000Y83000D02*
D03*
X111000Y108500D02*
D03*
X112000Y97500D02*
D03*
X137000Y81500D02*
D03*
D84*
X40000Y204500D02*
D03*
M02*
