G04*
G04 #@! TF.GenerationSoftware,Altium Limited,Altium Designer,20.0.13 (296)*
G04*
G04 Layer_Color=32768*
%FSLAX25Y25*%
%MOIN*%
G70*
G01*
G75*
%ADD92C,0.00394*%
%ADD93C,0.00197*%
D92*
X134000Y96728D02*
Y100272D01*
X132228Y98500D02*
X135772D01*
X131500Y73032D02*
Y76968D01*
X129532Y75000D02*
X133468D01*
X161228Y86000D02*
X164772D01*
X163000Y84228D02*
Y87772D01*
X153500Y60031D02*
Y63968D01*
X151532Y62000D02*
X155468D01*
X163000Y73228D02*
Y76772D01*
X161228Y75000D02*
X164772D01*
X146031D02*
X149969D01*
X148000Y73032D02*
Y76968D01*
X93500Y97728D02*
Y101272D01*
X91728Y99500D02*
X95272D01*
X90500Y79031D02*
Y82968D01*
X88532Y81000D02*
X92469D01*
X91531Y91000D02*
X95468D01*
X93500Y89031D02*
Y92968D01*
X154500Y84031D02*
Y87968D01*
X152532Y86000D02*
X156468D01*
X149531Y97000D02*
X153469D01*
X151500Y95031D02*
Y98968D01*
X154532Y101000D02*
X158468D01*
X156500Y99032D02*
Y102969D01*
X176500Y96031D02*
Y99968D01*
X174531Y98000D02*
X178469D01*
X119500Y103228D02*
Y106772D01*
X117728Y105000D02*
X121272D01*
X119500Y111728D02*
Y115272D01*
X117728Y113500D02*
X121272D01*
X127500Y58728D02*
Y62272D01*
X125728Y60500D02*
X129272D01*
X112500Y56728D02*
Y60272D01*
X110728Y58500D02*
X114272D01*
X127500Y60031D02*
Y63968D01*
X125531Y62000D02*
X129469D01*
X118532Y67000D02*
X122468D01*
X120500Y65031D02*
Y68968D01*
X363228Y65000D02*
X366772D01*
X365000Y63228D02*
Y66772D01*
X189500Y98728D02*
Y102272D01*
X187728Y100500D02*
X191272D01*
X341000Y135728D02*
Y139272D01*
X339228Y137500D02*
X342772D01*
X330000Y135728D02*
Y139272D01*
X328228Y137500D02*
X331772D01*
X321000Y136516D02*
Y138484D01*
X320016Y137500D02*
X321984D01*
X313500Y135728D02*
Y139272D01*
X311728Y137500D02*
X315272D01*
X386016Y198000D02*
X387984D01*
X387000Y197016D02*
Y198984D01*
X364032Y92000D02*
X367969D01*
X366000Y90031D02*
Y93968D01*
X208032Y126500D02*
X211968D01*
X210000Y124531D02*
Y128469D01*
X139532Y126500D02*
X143468D01*
X141500Y124531D02*
Y128469D01*
X333032Y62000D02*
X336968D01*
X335000Y60031D02*
Y63968D01*
X307531Y62000D02*
X311469D01*
X309500Y60031D02*
Y63968D01*
X273031Y62000D02*
X276969D01*
X275000Y60031D02*
Y63968D01*
X247031Y62000D02*
X250969D01*
X249000Y60031D02*
Y63968D01*
X212531Y62000D02*
X216469D01*
X214500Y60031D02*
Y63968D01*
X186531Y62000D02*
X190469D01*
X188500Y60031D02*
Y63968D01*
X387000Y170031D02*
Y173969D01*
X385032Y172000D02*
X388968D01*
X82000Y44969D02*
Y48906D01*
X80032Y46937D02*
X83969D01*
X100031Y51000D02*
X103969D01*
X102000Y49031D02*
Y52969D01*
D93*
X127307Y94366D02*
X140693D01*
X127307Y102634D02*
X140693D01*
X127307Y94366D02*
Y102634D01*
X140693Y94366D02*
Y102634D01*
X127366Y81693D02*
X135634D01*
X127366Y68307D02*
X135634D01*
X127366D02*
Y81693D01*
X135634Y68307D02*
Y81693D01*
X167134Y79307D02*
Y92693D01*
X158866Y79307D02*
Y92693D01*
X167134D01*
X158866Y79307D02*
X167134D01*
X146807Y66134D02*
X160193D01*
X146807Y57866D02*
X160193D01*
X146807D02*
Y66134D01*
X160193Y57866D02*
Y66134D01*
X156307Y79134D02*
X169693D01*
X156307Y70866D02*
X169693D01*
X156307D02*
Y79134D01*
X169693Y70866D02*
Y79134D01*
X154693Y70866D02*
Y79134D01*
X141307Y70866D02*
Y79134D01*
Y70866D02*
X154693D01*
X141307Y79134D02*
X154693D01*
X86807Y103634D02*
X100193D01*
X86807Y95366D02*
X100193D01*
Y103634D01*
X86807Y95366D02*
Y103634D01*
X86366Y87693D02*
X94634D01*
X86366Y74307D02*
X94634D01*
X86366D02*
Y87693D01*
X94634Y74307D02*
Y87693D01*
X100193Y86866D02*
Y95134D01*
X86807Y86866D02*
Y95134D01*
X100193D01*
X86807Y86866D02*
X100193D01*
X150366Y92693D02*
X158634D01*
X150366Y79307D02*
X158634D01*
Y92693D01*
X150366Y79307D02*
Y92693D01*
X158193Y92866D02*
Y101134D01*
X144807Y92866D02*
Y101134D01*
Y92866D02*
X158193D01*
X144807Y101134D02*
X158193D01*
X163193Y96866D02*
Y105134D01*
X149807Y96866D02*
Y105134D01*
X163193D01*
X149807Y96866D02*
X163193D01*
X172366Y91307D02*
X180634D01*
X172366Y104693D02*
X180634D01*
Y91307D02*
Y104693D01*
X172366Y91307D02*
Y104693D01*
X112807Y100866D02*
X126193D01*
X112807Y109134D02*
X126193D01*
X112807Y100866D02*
Y109134D01*
X126193Y100866D02*
Y109134D01*
X112807Y109366D02*
X126193D01*
X112807Y117634D02*
X126193D01*
X112807Y109366D02*
Y117634D01*
X126193Y109366D02*
Y117634D01*
X120807Y56366D02*
X134193D01*
X120807Y64634D02*
X134193D01*
X120807Y56366D02*
Y64634D01*
X134193Y56366D02*
Y64634D01*
X105807Y62634D02*
X119193D01*
X105807Y54366D02*
X119193D01*
Y62634D01*
X105807Y54366D02*
Y62634D01*
X120807Y57866D02*
X134193D01*
X120807Y66134D02*
X134193D01*
Y57866D02*
Y66134D01*
X120807Y57866D02*
Y66134D01*
X127193Y62866D02*
Y71134D01*
X113807Y62866D02*
Y71134D01*
X127193D01*
X113807Y62866D02*
X127193D01*
X360866Y58307D02*
Y71693D01*
X369134Y58307D02*
Y71693D01*
X360866D02*
X369134D01*
X360866Y58307D02*
X369134D01*
X182807Y96366D02*
X196193D01*
X182807Y104634D02*
X196193D01*
X182807Y96366D02*
Y104634D01*
X196193Y96366D02*
Y104634D01*
X336866Y130807D02*
X345134D01*
X336866Y144193D02*
X345134D01*
X336866Y130807D02*
Y144193D01*
X345134Y130807D02*
Y144193D01*
X325866Y130807D02*
X334134D01*
X325866Y144193D02*
X334134D01*
X325866Y130807D02*
Y144193D01*
X334134Y130807D02*
Y144193D01*
X322969Y133169D02*
Y141831D01*
X319032Y133169D02*
X322969D01*
X319032D02*
Y141831D01*
X322969D01*
X309366Y144193D02*
X317634D01*
X309366Y130807D02*
X317634D01*
Y144193D01*
X309366Y130807D02*
Y144193D01*
X384244Y204890D02*
X389756D01*
Y191110D02*
Y204890D01*
X384244Y191110D02*
X389756D01*
X384244D02*
Y204890D01*
X359307Y87866D02*
Y96134D01*
X372693Y87866D02*
Y96134D01*
X359307Y87866D02*
X372693D01*
X359307Y96134D02*
X372693D01*
X194646Y115476D02*
Y137524D01*
X225354Y115476D02*
Y137524D01*
X194646D02*
X225354D01*
X194646Y115476D02*
X225354D01*
X126146D02*
Y137524D01*
X156854Y115476D02*
Y137524D01*
X126146D02*
X156854D01*
X126146Y115476D02*
X156854D01*
X341693Y57866D02*
Y66134D01*
X328307Y57866D02*
Y66134D01*
Y57866D02*
X341693D01*
X328307Y66134D02*
X341693D01*
X302807Y57866D02*
Y66134D01*
X316193Y57866D02*
Y66134D01*
X302807D02*
X316193D01*
X302807Y57866D02*
X316193D01*
X281693Y57866D02*
Y66134D01*
X268307Y57866D02*
Y66134D01*
Y57866D02*
X281693D01*
X268307Y66134D02*
X281693D01*
X242307Y57866D02*
Y66134D01*
X255693Y57866D02*
Y66134D01*
X242307D02*
X255693D01*
X242307Y57866D02*
X255693D01*
X221193Y57866D02*
Y66134D01*
X207807Y57866D02*
Y66134D01*
Y57866D02*
X221193D01*
X207807Y66134D02*
X221193D01*
X181807Y57866D02*
Y66134D01*
X195193Y57866D02*
Y66134D01*
X181807D02*
X195193D01*
X181807Y57866D02*
X195193D01*
X382866Y165307D02*
X391134D01*
X382866Y178693D02*
X391134D01*
X382866Y165307D02*
Y178693D01*
X391134Y165307D02*
Y178693D01*
X75858Y53039D02*
X88142D01*
X75858Y40835D02*
X88142D01*
Y53039D01*
X75858Y40835D02*
Y53039D01*
X108693Y46866D02*
Y55134D01*
X95307Y46866D02*
Y55134D01*
Y46866D02*
X108693D01*
X95307Y55134D02*
X108693D01*
M02*
