G04*
G04 #@! TF.GenerationSoftware,Altium Limited,Altium Designer,20.0.13 (296)*
G04*
G04 Layer_Color=32896*
%FSLAX25Y25*%
%MOIN*%
G70*
G01*
G75*
%ADD10C,0.01000*%
D10*
X113707Y90500D02*
G03*
X113707Y90500I-707J0D01*
G01*
X144000Y99500D02*
X144500Y99999D01*
X145499D01*
X145999Y99500D01*
Y97500D01*
X145499Y97000D01*
X144500D01*
X144000Y97500D01*
X141001Y99999D02*
X142000Y99500D01*
X143000Y98500D01*
Y97500D01*
X142500Y97000D01*
X141501D01*
X141001Y97500D01*
Y98000D01*
X141501Y98500D01*
X143000D01*
X136999Y83500D02*
Y86500D01*
X135499D01*
X135000Y86000D01*
Y85000D01*
X135499Y84500D01*
X136999D01*
X135999D02*
X135000Y83500D01*
X132001D02*
X134000D01*
X132001Y85500D01*
Y86000D01*
X132500Y86500D01*
X133500D01*
X134000Y86000D01*
X131001Y83500D02*
X130001D01*
X130501D01*
Y86500D01*
X131001Y86000D01*
X84250Y101000D02*
X84749Y101499D01*
X85749D01*
X86249Y101000D01*
Y99000D01*
X85749Y98501D01*
X84749D01*
X84250Y99000D01*
X83250Y98501D02*
X82250D01*
X82750D01*
Y101499D01*
X83250Y101000D01*
X80751Y98501D02*
X79751D01*
X80251D01*
Y101499D01*
X80751Y101000D01*
X101749Y78000D02*
Y80999D01*
X100249D01*
X99749Y80500D01*
Y79500D01*
X100249Y79000D01*
X101749D01*
X100749D02*
X99749Y78000D01*
X98750D02*
X97750D01*
X98250D01*
Y80999D01*
X98750Y80500D01*
X94751Y78000D02*
Y80999D01*
X96251Y79500D01*
X94251D01*
X86249Y90000D02*
Y93000D01*
X84749D01*
X84249Y92500D01*
Y91500D01*
X84749Y91000D01*
X86249D01*
X85249D02*
X84249Y90000D01*
X83250D02*
X82250D01*
X82750D01*
Y93000D01*
X83250Y92500D01*
X78751Y93000D02*
X80751D01*
Y91500D01*
X79751Y92000D01*
X79251D01*
X78751Y91500D01*
Y90500D01*
X79251Y90000D01*
X80251D01*
X80751Y90500D01*
X159749Y105000D02*
Y108000D01*
X158249D01*
X157749Y107500D01*
Y106500D01*
X158249Y106000D01*
X159749D01*
X158749D02*
X157749Y105000D01*
X156750D02*
X155750D01*
X156250D01*
Y108000D01*
X156750Y107500D01*
X152251Y108000D02*
X153251Y107500D01*
X154251Y106500D01*
Y105500D01*
X153751Y105000D01*
X152751D01*
X152251Y105500D01*
Y106000D01*
X152751Y106500D01*
X154251D01*
X173751Y90500D02*
Y87501D01*
X175251D01*
X175751Y88000D01*
Y89000D01*
X175251Y89500D01*
X173751D01*
X174751D02*
X175751Y90500D01*
X176750D02*
X177750D01*
X177250D01*
Y87501D01*
X176750Y88000D01*
X179249Y87501D02*
X181249D01*
Y88000D01*
X179249Y90000D01*
Y90500D01*
X109499Y93499D02*
Y91000D01*
X108999Y90500D01*
X108000D01*
X107500Y91000D01*
Y93499D01*
X106500D02*
X104501D01*
Y93000D01*
X106500Y91000D01*
Y90500D01*
X108500Y106000D02*
X109000Y106500D01*
X109999D01*
X110499Y106000D01*
Y104000D01*
X109999Y103500D01*
X109000D01*
X108500Y104000D01*
X107500Y106000D02*
X107000Y106500D01*
X106001D01*
X105501Y106000D01*
Y105500D01*
X106001Y105000D01*
X105501Y104500D01*
Y104000D01*
X106001Y103500D01*
X107000D01*
X107500Y104000D01*
Y104500D01*
X107000Y105000D01*
X107500Y105500D01*
Y106000D01*
X107000Y105000D02*
X106001D01*
X110000Y114500D02*
X110500Y114999D01*
X111499D01*
X111999Y114500D01*
Y112500D01*
X111499Y112001D01*
X110500D01*
X110000Y112500D01*
X109000Y114999D02*
X107001D01*
Y114500D01*
X109000Y112500D01*
Y112001D01*
X129249Y56500D02*
X129749Y56999D01*
X130749D01*
X131249Y56500D01*
Y54500D01*
X130749Y54001D01*
X129749D01*
X129249Y54500D01*
X128250Y54001D02*
X127250D01*
X127750D01*
Y56999D01*
X128250Y56500D01*
X125751D02*
X125251Y56999D01*
X124251D01*
X123751Y56500D01*
Y54500D01*
X124251Y54001D01*
X125251D01*
X125751Y54500D01*
Y56500D01*
X113000Y54500D02*
X113500Y55000D01*
X114499D01*
X114999Y54500D01*
Y52500D01*
X114499Y52000D01*
X113500D01*
X113000Y52500D01*
X112000D02*
X111500Y52000D01*
X110501D01*
X110001Y52500D01*
Y54500D01*
X110501Y55000D01*
X111500D01*
X112000Y54500D01*
Y54000D01*
X111500Y53500D01*
X110001D01*
X124249Y71000D02*
Y74000D01*
X122749D01*
X122249Y73500D01*
Y72500D01*
X122749Y72000D01*
X124249D01*
X123249D02*
X122249Y71000D01*
X121250D02*
X120250D01*
X120750D01*
Y74000D01*
X121250Y73500D01*
X118751D02*
X118251Y74000D01*
X117251D01*
X116751Y73500D01*
Y73000D01*
X117251Y72500D01*
X117751D01*
X117251D01*
X116751Y72000D01*
Y71500D01*
X117251Y71000D01*
X118251D01*
X118751Y71500D01*
X367747Y79798D02*
X368747Y80798D01*
X370746D01*
X371746Y79798D01*
Y75800D01*
X370746Y74800D01*
X368747D01*
X367747Y75800D01*
X361749Y80798D02*
X365748D01*
Y77799D01*
X363748Y78799D01*
X362749D01*
X361749Y77799D01*
Y75800D01*
X362749Y74800D01*
X364748D01*
X365748Y75800D01*
X194701Y112698D02*
X195701Y113698D01*
X197700D01*
X198700Y112698D01*
Y108700D01*
X197700Y107700D01*
X195701D01*
X194701Y108700D01*
X192702Y107700D02*
X190703D01*
X191702D01*
Y113698D01*
X192702Y112698D01*
X183705Y107700D02*
X187704D01*
X183705Y111699D01*
Y112698D01*
X184704Y113698D01*
X186704D01*
X187704Y112698D01*
X370200Y99200D02*
Y105198D01*
X367201D01*
X366201Y104198D01*
Y102199D01*
X367201Y101199D01*
X370200D01*
X368201D02*
X366201Y99200D01*
X361203D02*
Y105198D01*
X364202Y102199D01*
X360203D01*
M02*
