G04*
G04 #@! TF.GenerationSoftware,Altium Limited,Altium Designer,20.0.13 (296)*
G04*
G04 Layer_Color=16711935*
%FSLAX25Y25*%
%MOIN*%
G70*
G01*
G75*
%ADD92C,0.00394*%
D92*
X206653Y132996D02*
G03*
X206653Y132996I-1969J0D01*
G01*
X138154D02*
G03*
X138154Y132996I-1969J0D01*
G01*
X130654Y96728D02*
X137346D01*
X130654Y100272D02*
X137346D01*
X130654Y96728D02*
Y100272D01*
X137346Y96728D02*
Y100272D01*
X129532Y78543D02*
X133468D01*
X129532Y71457D02*
X133468D01*
X129532D02*
Y78543D01*
X133468Y71457D02*
Y78543D01*
X164772Y82653D02*
Y89346D01*
X161228Y82653D02*
Y89346D01*
X164772D01*
X161228Y82653D02*
X164772D01*
X149957Y63968D02*
X157043D01*
X149957Y60031D02*
X157043D01*
X149957D02*
Y63968D01*
X157043Y60031D02*
Y63968D01*
X159653Y76772D02*
X166347D01*
X159653Y73228D02*
X166347D01*
X159653D02*
Y76772D01*
X166347Y73228D02*
Y76772D01*
X151543Y73032D02*
Y76968D01*
X144457Y73032D02*
Y76968D01*
Y73032D02*
X151543D01*
X144457Y76968D02*
X151543D01*
X90153Y101272D02*
X96846D01*
X90153Y97728D02*
X96846D01*
Y101272D01*
X90153Y97728D02*
Y101272D01*
X88532Y84543D02*
X92469D01*
X88532Y77457D02*
X92469D01*
X88532D02*
Y84543D01*
X92469Y77457D02*
Y84543D01*
X97043Y89031D02*
Y92968D01*
X89957Y89031D02*
Y92968D01*
X97043D01*
X89957Y89031D02*
X97043D01*
X152532Y89543D02*
X156468D01*
X152532Y82457D02*
X156468D01*
Y89543D01*
X152532Y82457D02*
Y89543D01*
X155043Y95031D02*
Y98968D01*
X147957Y95031D02*
Y98968D01*
Y95031D02*
X155043D01*
X147957Y98968D02*
X155043D01*
X160043Y99032D02*
Y102969D01*
X152957Y99032D02*
Y102969D01*
X160043D01*
X152957Y99032D02*
X160043D01*
X174531Y94457D02*
X178469D01*
X174531Y101543D02*
X178469D01*
Y94457D02*
Y101543D01*
X174531Y94457D02*
Y101543D01*
X116154Y103228D02*
X122846D01*
X116154Y106772D02*
X122846D01*
X116154Y103228D02*
Y106772D01*
X122846Y103228D02*
Y106772D01*
X116154Y111728D02*
X122846D01*
X116154Y115272D02*
X122846D01*
X116154Y111728D02*
Y115272D01*
X122846Y111728D02*
Y115272D01*
X124153Y58728D02*
X130847D01*
X124153Y62272D02*
X130847D01*
X124153Y58728D02*
Y62272D01*
X130847Y58728D02*
Y62272D01*
X109153Y60272D02*
X115847D01*
X109153Y56728D02*
X115847D01*
Y60272D01*
X109153Y56728D02*
Y60272D01*
X123957Y60031D02*
X131043D01*
X123957Y63968D02*
X131043D01*
Y60031D02*
Y63968D01*
X123957Y60031D02*
Y63968D01*
X124043Y65031D02*
Y68968D01*
X116957Y65031D02*
Y68968D01*
X124043D01*
X116957Y65031D02*
X124043D01*
X363228Y61654D02*
Y68347D01*
X366772Y61654D02*
Y68347D01*
X363228D02*
X366772D01*
X363228Y61654D02*
X366772D01*
X186153Y98728D02*
X192847D01*
X186153Y102272D02*
X192847D01*
X186153Y98728D02*
Y102272D01*
X192847Y98728D02*
Y102272D01*
X339228Y134153D02*
X342772D01*
X339228Y140847D02*
X342772D01*
X339228Y134153D02*
Y140847D01*
X342772Y134153D02*
Y140847D01*
X328228Y134153D02*
X331772D01*
X328228Y140847D02*
X331772D01*
X328228Y134153D02*
Y140847D01*
X331772Y134153D02*
Y140847D01*
X322575Y134350D02*
Y140650D01*
X319425D02*
X322575D01*
X319425Y134350D02*
Y140650D01*
Y134350D02*
X322575D01*
X311728Y140847D02*
X315272D01*
X311728Y134153D02*
X315272D01*
Y140847D01*
X311728Y134153D02*
Y140847D01*
X384539Y201937D02*
X389461D01*
Y194063D02*
Y201937D01*
X384539Y194063D02*
X389461D01*
X384539D02*
Y197016D01*
Y194063D02*
Y201937D01*
X362457Y90031D02*
Y93968D01*
X369543Y90031D02*
Y93968D01*
X362457Y90031D02*
X369543D01*
X362457Y93968D02*
X369543D01*
X201142Y116461D02*
Y136539D01*
X218858Y116461D02*
Y136539D01*
X201142D02*
X218858D01*
X201142Y116461D02*
X218858D01*
X132642D02*
Y136539D01*
X150358Y116461D02*
Y136539D01*
X132642D02*
X150358D01*
X132642Y116461D02*
X150358D01*
X338543Y60031D02*
Y63968D01*
X331457Y60031D02*
Y63968D01*
Y60031D02*
X338543D01*
X331457Y63968D02*
X338543D01*
X305957Y60031D02*
Y63968D01*
X313043Y60031D02*
Y63968D01*
X305957D02*
X313043D01*
X305957Y60031D02*
X313043D01*
X278543Y60031D02*
Y63968D01*
X271457Y60031D02*
Y63968D01*
Y60031D02*
X278543D01*
X271457Y63968D02*
X278543D01*
X245457Y60031D02*
Y63968D01*
X252543Y60031D02*
Y63968D01*
X245457D02*
X252543D01*
X245457Y60031D02*
X252543D01*
X218043Y60031D02*
Y63968D01*
X210957Y60031D02*
Y63968D01*
Y60031D02*
X218043D01*
X210957Y63968D02*
X218043D01*
X184957Y60031D02*
Y63968D01*
X192043Y60031D02*
Y63968D01*
X184957D02*
X192043D01*
X184957Y60031D02*
X192043D01*
X385032Y168457D02*
X388968D01*
X385032Y175543D02*
X388968D01*
X385032Y168457D02*
Y175543D01*
X388968Y168457D02*
Y175543D01*
X76252Y49496D02*
X87748D01*
X76252Y44378D02*
X87748D01*
Y49496D01*
X76252Y44378D02*
Y49496D01*
X105543Y49031D02*
Y52969D01*
X98457Y49031D02*
Y52969D01*
Y49031D02*
X105543D01*
X98457Y52969D02*
X105543D01*
M02*
