M48
;GenerationSoftware,Autodesk,EAGLE,9.0.0*%
;CreationDate,2019-06-24T11:27:18Z*%
FMAT,2
ICI,OFF
METRIC,TZ,000.000
T6C0.350
T5C0.400
T4C0.711
T3C0.813
T2C0.914
T1C1.300
%
G90
M71
T1
X51806Y52276
X45306Y52276
T2
X49184Y35372
X51724Y35372
X54264Y35372
X49184Y40122
X51724Y40122
X54264Y40122
X49184Y43602
X51724Y43602
X49184Y30876
X77216Y44450
X77216Y41910
X77216Y39370
X54264Y43602
X54264Y30876
X51724Y30876
X41564Y59704
X39024Y59704
X36484Y59704
X40132Y63754
X40132Y66294
X64262Y27686
X66802Y27686
X66802Y22860
X64262Y22860
T3
X56642Y54610
X61468Y54610
X73125Y54438
X68299Y54438
T4
X35334Y28810
X42954Y28810
X42954Y31350
X42954Y33890
X42954Y36430
X41294Y18562
X43834Y18562
X46374Y18562
X48914Y18562
X48914Y26182
X46374Y26182
X43834Y26182
X41294Y26182
X52724Y18554
X55264Y18554
X57804Y18554
X60344Y18554
X60344Y26174
X57804Y26174
X55264Y26174
X52724Y26174
X35412Y47606
X35412Y45066
X35412Y42526
X35412Y39986
X43032Y39986
X43032Y42526
X43032Y45066
X43032Y47606
X35334Y36430
X35334Y33890
X35334Y31350
T5
X45720Y68072
X65278Y62484
X62738Y46228
T6
X56896Y39116
X67818Y31750
X72898Y46228
X68834Y33020
X58166Y38100
X49276Y57404
X36322Y51562
M30