G04 EAGLE Gerber X2 export*
%TF.Part,Single*%
%TF.FileFunction,Paste,Top*%
%TF.FilePolarity,Positive*%
%TF.GenerationSoftware,Autodesk,EAGLE,9.0.0*%
%TF.CreationDate,2019-06-24T11:27:18Z*%
G75*
%MOMM*%
%FSLAX34Y34*%
%LPD*%
%AMOC8*
5,1,8,0,0,1.08239X$1,22.5*%
G01*
%ADD10R,1.200000X0.800000*%
%ADD11R,0.800000X1.200000*%
%ADD12R,1.219000X2.235000*%
%ADD13R,3.600000X2.200000*%
%ADD14R,1.100000X1.000000*%
%ADD15R,0.250000X0.850000*%
%ADD16R,0.850000X0.250000*%
%ADD17R,1.000000X1.100000*%


D10*
X443740Y662960D03*
X443740Y644960D03*
D11*
X637560Y631480D03*
X619560Y631480D03*
D10*
X466540Y663060D03*
X466540Y645060D03*
X575020Y662960D03*
X575020Y644960D03*
X597880Y662960D03*
X597880Y644960D03*
D12*
X543970Y662970D03*
X520860Y662970D03*
X497750Y662970D03*
D13*
X520860Y600990D03*
D14*
X637060Y661960D03*
X620060Y661960D03*
D15*
X688380Y448600D03*
X683380Y448600D03*
X678380Y448600D03*
X673380Y448600D03*
X668380Y448600D03*
X663380Y448600D03*
X658380Y448600D03*
X653380Y448600D03*
X648380Y448600D03*
X643380Y448600D03*
X638380Y448600D03*
X633380Y448600D03*
D16*
X621380Y436600D03*
X621380Y431600D03*
X621380Y426600D03*
X621380Y421600D03*
X621380Y416600D03*
X621380Y411600D03*
X621380Y406600D03*
X621380Y401600D03*
X621380Y396600D03*
X621380Y391600D03*
X621380Y386600D03*
X621380Y381600D03*
D15*
X633380Y369600D03*
X638380Y369600D03*
X643380Y369600D03*
X648380Y369600D03*
X653380Y369600D03*
X658380Y369600D03*
X663380Y369600D03*
X668380Y369600D03*
X673380Y369600D03*
X678380Y369600D03*
X683380Y369600D03*
X688380Y369600D03*
D16*
X700380Y381600D03*
X700380Y386600D03*
X700380Y391600D03*
X700380Y396600D03*
X700380Y401600D03*
X700380Y406600D03*
X700380Y411600D03*
X700380Y416600D03*
X700380Y421600D03*
X700380Y426600D03*
X700380Y431600D03*
X700380Y436600D03*
D17*
X736600Y400440D03*
X736600Y417440D03*
D10*
X614680Y600820D03*
X614680Y582820D03*
X566420Y600820D03*
X566420Y582820D03*
X683450Y583020D03*
X683450Y601020D03*
X731710Y582270D03*
X731710Y600270D03*
D17*
X517800Y572880D03*
X517800Y555880D03*
D11*
X516800Y488480D03*
X498800Y488480D03*
D17*
X325600Y402480D03*
X325600Y419480D03*
X325680Y288180D03*
X325680Y305180D03*
D14*
X486520Y158120D03*
X469520Y158120D03*
X600820Y158200D03*
X583820Y158200D03*
M02*
