G04*
G04 #@! TF.GenerationSoftware,Altium Limited,Altium Designer,20.0.13 (296)*
G04*
G04 Layer_Physical_Order=1*
G04 Layer_Color=255*
%FSLAX25Y25*%
%MOIN*%
G70*
G01*
G75*
%ADD10C,0.01000*%
%ADD22R,0.03150X0.06000*%
%ADD23R,0.06000X0.03150*%
%ADD24R,0.04331X0.03543*%
%ADD25C,0.02000*%
%ADD26C,0.01500*%
%ADD27O,0.09843X0.06000*%
%ADD28C,0.06000*%
%ADD29C,0.07000*%
%ADD30O,0.04921X0.06000*%
%ADD31C,0.02800*%
%ADD32C,0.13780*%
D10*
X265177Y52627D02*
G03*
X263601Y50876I2823J-4127D01*
G01*
X272854Y118000D02*
Y121543D01*
X345689Y104445D02*
X357102D01*
X359158Y106500D01*
X371000D01*
X376000Y101500D01*
X358345Y96500D02*
X371000D01*
X346764Y96071D02*
X357915D01*
X358345Y96500D01*
X345689Y94996D02*
X346764Y96071D01*
X371000Y96500D02*
X376000Y91500D01*
X345689Y85547D02*
X357654D01*
X358606Y86500D01*
X371000D01*
X376000Y81500D01*
X345689Y76098D02*
X357929D01*
X358331Y76500D01*
X371000D01*
X376000Y71500D01*
X268046Y124590D02*
X269808D01*
X272500Y139000D02*
X277500Y144000D01*
X262500Y130136D02*
X268046Y124590D01*
X272500Y130965D02*
Y139000D01*
X262500Y130136D02*
Y139000D01*
X272500Y130965D02*
X281516Y121949D01*
X269808Y124590D02*
X272854Y121543D01*
X262500Y139000D02*
X267500Y144000D01*
X282500Y130965D02*
X290177Y123287D01*
X281516Y117043D02*
Y121949D01*
X282500Y139000D02*
X287500Y144000D01*
X282500Y130965D02*
Y139000D01*
X290177Y117043D02*
Y123287D01*
X292500Y139000D02*
X297500Y144000D01*
X292500Y129464D02*
Y139000D01*
Y129464D02*
X298839Y123126D01*
Y117043D02*
Y123126D01*
X302500Y128964D02*
Y139000D01*
Y128964D02*
X307500Y123965D01*
Y117043D02*
Y123965D01*
X302500Y139000D02*
X307500Y144000D01*
X316161Y117043D02*
Y125803D01*
X312500Y129464D02*
X316161Y125803D01*
X312500Y129464D02*
Y139000D01*
X317500Y144000D01*
X324823Y117043D02*
Y126646D01*
X322500Y128969D02*
X324823Y126646D01*
X322500Y128969D02*
Y139000D01*
X327500Y144000D01*
X333484Y117043D02*
Y127315D01*
X332500Y128299D02*
X333484Y127315D01*
X332500Y128299D02*
Y139000D01*
X337500Y144000D01*
X345689Y71374D02*
X345815Y71500D01*
X265177Y52627D02*
X270525Y57975D01*
X265177Y52627D02*
X265177Y52627D01*
X270525Y57975D02*
X270743D01*
X263000Y43500D02*
Y49764D01*
X263601Y50876D01*
X270743Y57975D02*
X272854Y60086D01*
Y63500D01*
X258000Y38500D02*
X263000Y43500D01*
X273000Y51035D02*
X281516Y59551D01*
X273000Y43500D02*
Y51035D01*
X281516Y59551D02*
Y63500D01*
X268000Y38500D02*
X273000Y43500D01*
X283000D02*
Y51864D01*
X288136Y57000D01*
X288177D02*
X290177Y59000D01*
X278000Y38500D02*
X283000Y43500D01*
X290177Y59000D02*
Y63500D01*
X288136Y57000D02*
X288177D01*
X298839Y58374D02*
Y63500D01*
X293000Y52535D02*
X298839Y58374D01*
X293000Y43500D02*
Y52535D01*
X288000Y38500D02*
X293000Y43500D01*
X307500Y57535D02*
Y63500D01*
X303000Y53035D02*
X307500Y57535D01*
X303000Y43500D02*
Y53035D01*
X298000Y38500D02*
X303000Y43500D01*
X316161Y55697D02*
Y63500D01*
X313000Y52535D02*
X316161Y55697D01*
X313000Y43500D02*
Y52535D01*
X308000Y38500D02*
X313000Y43500D01*
X324823Y52394D02*
Y63500D01*
X323000Y50571D02*
X324823Y52394D01*
X323000Y43500D02*
Y50571D01*
X318000Y38500D02*
X323000Y43500D01*
X333484Y51055D02*
Y63500D01*
X333000Y50571D02*
X333484Y51055D01*
X333000Y43500D02*
Y50571D01*
X328000Y38500D02*
X333000Y43500D01*
X337815Y48685D02*
X338000Y48500D01*
D22*
X316161Y63500D02*
D03*
X320492D02*
D03*
X268524D02*
D03*
X272854D02*
D03*
X281516D02*
D03*
X290177D02*
D03*
X294508D02*
D03*
X298839D02*
D03*
X303169D02*
D03*
X307500D02*
D03*
X311831D02*
D03*
X324823D02*
D03*
X329153D02*
D03*
X337815D02*
D03*
X277185D02*
D03*
X285846D02*
D03*
X333484D02*
D03*
X316161Y117043D02*
D03*
X320492D02*
D03*
X268524D02*
D03*
X272854D02*
D03*
X281516D02*
D03*
X290177D02*
D03*
X294508D02*
D03*
X298839D02*
D03*
X303169D02*
D03*
X307500D02*
D03*
X311831D02*
D03*
X324823D02*
D03*
X329153D02*
D03*
X337815D02*
D03*
X277185D02*
D03*
X285846D02*
D03*
X333484D02*
D03*
D23*
X345689Y85547D02*
D03*
Y109169D02*
D03*
Y104445D02*
D03*
Y99721D02*
D03*
Y94996D02*
D03*
Y90272D02*
D03*
Y71374D02*
D03*
Y76098D02*
D03*
Y80823D02*
D03*
D24*
X231000Y75047D02*
D03*
Y80953D02*
D03*
X239500D02*
D03*
Y75047D02*
D03*
D25*
X231000Y80953D02*
Y87000D01*
X267500Y110500D02*
X268500Y111500D01*
X263500Y110500D02*
X267500D01*
X273000Y110000D02*
Y117854D01*
X272854Y118000D02*
X273000Y117854D01*
X269500Y106500D02*
X273000Y110000D01*
X235000Y129000D02*
X236921D01*
X259421Y106500D01*
X269500D01*
X235000Y109000D02*
X236921D01*
X245921Y100000D01*
X278000D01*
X285846Y107846D01*
X236000Y119000D02*
X251500Y103500D01*
X274500D02*
X281516Y110516D01*
X251500Y103500D02*
X274500D01*
X285846Y107846D02*
Y117043D01*
X235000Y119000D02*
X236000D01*
X281516Y110516D02*
Y117043D01*
X258457Y124043D02*
X265480Y117020D01*
X268500D01*
X258457Y124043D02*
Y133043D01*
X257500Y134000D02*
X258457Y133043D01*
X268672Y127500D02*
X270500D01*
X267500Y128672D02*
Y134000D01*
Y128672D02*
X268672Y127500D01*
X270500D02*
X277000Y121000D01*
Y117228D02*
X277185Y117043D01*
X277000Y117228D02*
Y121000D01*
X285500Y117390D02*
X285846Y117043D01*
X285500Y117390D02*
Y121500D01*
X277000Y130000D02*
X285500Y121500D01*
X277000Y133500D02*
X277500Y134000D01*
X277000Y130000D02*
Y133500D01*
X294508Y117043D02*
Y122492D01*
X287500Y129500D02*
X294508Y122492D01*
X287500Y129500D02*
Y134000D01*
X297500Y128000D02*
Y134000D01*
X303169Y117043D02*
Y122331D01*
X297500Y128000D02*
X303169Y122331D01*
X307500Y127500D02*
Y134000D01*
X311831Y117043D02*
Y123169D01*
X307500Y127500D02*
X311831Y123169D01*
X317000Y133500D02*
X317500Y134000D01*
X317000Y128500D02*
Y133500D01*
X320492Y117043D02*
Y125008D01*
X317000Y128500D02*
X320492Y125008D01*
X327500Y129000D02*
Y134000D01*
Y129000D02*
X329153Y127347D01*
Y117043D02*
Y127347D01*
X337657Y117201D02*
X337815Y117043D01*
X337657Y117201D02*
Y133843D01*
X337500Y134000D02*
X337657Y133843D01*
X365500Y112000D02*
X366000Y111500D01*
X360500Y112000D02*
X365500D01*
X357669Y109169D02*
X360500Y112000D01*
X345689Y109169D02*
X357669D01*
X345689Y99721D02*
X357000D01*
X358780Y101500D02*
X366000D01*
X357000Y99721D02*
X358780Y101500D01*
X353772Y90272D02*
X355000Y91500D01*
X366000D01*
X345689Y90272D02*
X353772D01*
X365500Y81000D02*
X366000Y81500D01*
X345866Y81000D02*
X365500D01*
X345689Y80823D02*
X345866Y81000D01*
X345815Y71500D02*
X366000D01*
X268524Y59509D02*
Y63500D01*
X258000Y48500D02*
Y48985D01*
X264141Y55127D02*
X268524Y59509D01*
X264020Y55127D02*
X264141D01*
X270500Y52071D02*
X276610Y58181D01*
X258000Y48985D02*
X261373Y52359D01*
Y52480D02*
X264020Y55127D01*
X268000Y48500D02*
X270500Y52071D01*
X261373Y52359D02*
Y52480D01*
X276610Y62925D02*
X277185Y63500D01*
X276610Y58181D02*
Y62925D01*
X285846Y58672D02*
Y63500D01*
X284675Y57500D02*
X285846Y58672D01*
X283000Y57500D02*
X284675D01*
X278000Y52500D02*
X283000Y57500D01*
X278000Y48500D02*
Y52500D01*
X289172Y54500D02*
X290000D01*
X288000Y53328D02*
X289172Y54500D01*
X288000Y48500D02*
Y53328D01*
X290000Y54500D02*
X294500Y59000D01*
Y63492D02*
X294508Y63500D01*
X294500Y59000D02*
Y63492D01*
X298000Y48500D02*
Y54000D01*
X302594Y62925D02*
X303169Y63500D01*
X302594Y58595D02*
Y62925D01*
X298000Y54000D02*
X302594Y58595D01*
X308000Y48500D02*
Y54500D01*
X311831Y58331D02*
Y63500D01*
X308000Y54500D02*
X311831Y58331D01*
X318000Y48500D02*
Y54000D01*
X320492Y56492D02*
Y63500D01*
X318000Y54000D02*
X320492Y56492D01*
X328000Y48500D02*
X328500Y49000D01*
Y56000D01*
X329153Y56653D02*
Y63500D01*
X328500Y56000D02*
X329153Y56653D01*
X337815Y48685D02*
Y63500D01*
X329153D02*
Y70846D01*
X319047Y80953D02*
X329153Y70846D01*
X239500Y80953D02*
X319047D01*
X230563Y41000D02*
Y46063D01*
X242000Y57500D01*
X239500Y70500D02*
X242000Y68000D01*
Y57500D02*
Y68000D01*
X239500Y70500D02*
Y75047D01*
X238437Y40461D02*
Y41000D01*
X232476Y34500D02*
X238437Y40461D01*
X228000Y34500D02*
X232476D01*
X221000Y41500D02*
X228000Y34500D01*
X221000Y41500D02*
Y69500D01*
X226547Y75047D02*
X231000D01*
X221000Y69500D02*
X226547Y75047D01*
X238437Y41000D02*
Y41539D01*
X268500Y111500D02*
Y117020D01*
D26*
X239500Y80953D02*
X239547Y81000D01*
D27*
X235000Y119000D02*
D03*
Y129000D02*
D03*
Y109000D02*
D03*
D28*
Y95000D02*
D03*
D29*
X337500Y144000D02*
D03*
Y134000D02*
D03*
X327500Y144000D02*
D03*
Y134000D02*
D03*
X317500Y144000D02*
D03*
Y134000D02*
D03*
X307500Y144000D02*
D03*
Y134000D02*
D03*
X297500Y144000D02*
D03*
Y134000D02*
D03*
X287500Y144000D02*
D03*
Y134000D02*
D03*
X277500Y144000D02*
D03*
Y134000D02*
D03*
X267500Y144000D02*
D03*
Y134000D02*
D03*
X257500Y144000D02*
D03*
Y134000D02*
D03*
X258000Y38500D02*
D03*
Y48500D02*
D03*
X268000Y38500D02*
D03*
Y48500D02*
D03*
X278000Y38500D02*
D03*
Y48500D02*
D03*
X288000Y38500D02*
D03*
Y48500D02*
D03*
X298000Y38500D02*
D03*
Y48500D02*
D03*
X308000Y38500D02*
D03*
Y48500D02*
D03*
X318000Y38500D02*
D03*
Y48500D02*
D03*
X328000Y38500D02*
D03*
Y48500D02*
D03*
X338000Y38500D02*
D03*
Y48500D02*
D03*
X366000Y111500D02*
D03*
X376000D02*
D03*
X366000Y101500D02*
D03*
X376000D02*
D03*
X366000Y91500D02*
D03*
X376000D02*
D03*
X366000Y81500D02*
D03*
X376000D02*
D03*
X366000Y71500D02*
D03*
X376000D02*
D03*
D30*
X230563Y41000D02*
D03*
X238437D02*
D03*
D31*
X231000Y87000D02*
D03*
X263500Y110500D02*
D03*
D32*
X358500Y39000D02*
D03*
X320000Y165000D02*
D03*
X231500Y61500D02*
D03*
M02*
