G04*
G04 #@! TF.GenerationSoftware,Altium Limited,Altium Designer,20.0.13 (296)*
G04*
G04 Layer_Color=16711935*
%FSLAX25Y25*%
%MOIN*%
G70*
G01*
G75*
%ADD16O,0.10642X0.06800*%
%ADD17C,0.06800*%
%ADD18C,0.07800*%
%ADD19O,0.05721X0.06800*%
%ADD20C,0.03600*%
%ADD21C,0.14580*%
D16*
X235000Y119000D02*
D03*
Y129000D02*
D03*
Y109000D02*
D03*
D17*
Y95000D02*
D03*
D18*
X337500Y144000D02*
D03*
Y134000D02*
D03*
X327500Y144000D02*
D03*
Y134000D02*
D03*
X317500Y144000D02*
D03*
Y134000D02*
D03*
X307500Y144000D02*
D03*
Y134000D02*
D03*
X297500Y144000D02*
D03*
Y134000D02*
D03*
X287500Y144000D02*
D03*
Y134000D02*
D03*
X277500Y144000D02*
D03*
Y134000D02*
D03*
X267500Y144000D02*
D03*
Y134000D02*
D03*
X257500Y144000D02*
D03*
Y134000D02*
D03*
X258000Y38500D02*
D03*
Y48500D02*
D03*
X268000Y38500D02*
D03*
Y48500D02*
D03*
X278000Y38500D02*
D03*
Y48500D02*
D03*
X288000Y38500D02*
D03*
Y48500D02*
D03*
X298000Y38500D02*
D03*
Y48500D02*
D03*
X308000Y38500D02*
D03*
Y48500D02*
D03*
X318000Y38500D02*
D03*
Y48500D02*
D03*
X328000Y38500D02*
D03*
Y48500D02*
D03*
X338000Y38500D02*
D03*
Y48500D02*
D03*
X366000Y111500D02*
D03*
X376000D02*
D03*
X366000Y101500D02*
D03*
X376000D02*
D03*
X366000Y91500D02*
D03*
X376000D02*
D03*
X366000Y81500D02*
D03*
X376000D02*
D03*
X366000Y71500D02*
D03*
X376000D02*
D03*
D19*
X230563Y41000D02*
D03*
X238437D02*
D03*
D20*
X231000Y87000D02*
D03*
X263500Y110500D02*
D03*
D21*
X358500Y39000D02*
D03*
X320000Y165000D02*
D03*
X231500Y61500D02*
D03*
M02*
