G04*
G04 #@! TF.GenerationSoftware,Altium Limited,Altium Designer,20.0.13 (296)*
G04*
G04 Layer_Physical_Order=2*
G04 Layer_Color=16711680*
%FSLAX25Y25*%
%MOIN*%
G70*
G01*
G75*
%ADD10C,0.01000*%
%ADD25C,0.02000*%
%ADD27O,0.09843X0.06000*%
%ADD28C,0.06000*%
%ADD29C,0.07000*%
%ADD30O,0.04921X0.06000*%
%ADD31C,0.02800*%
%ADD32C,0.13780*%
D10*
X313000Y43500D02*
Y51500D01*
X309500Y55000D02*
X313000Y51500D01*
Y43500D02*
X318000Y38500D01*
D25*
X235000Y95000D02*
X267500Y127500D01*
Y134000D01*
X240000Y87000D02*
X263500Y110500D01*
X231000Y87000D02*
X240000D01*
X256140Y55000D02*
X309500D01*
X238437Y41539D02*
X254898Y58000D01*
X328500D01*
X249070Y47930D02*
X256140Y55000D01*
X328500Y58000D02*
X338000Y48500D01*
X240000Y35500D02*
X249070Y44570D01*
Y47930D01*
X230563Y40461D02*
Y41000D01*
Y40461D02*
X235524Y35500D01*
X240000D01*
X238437Y41000D02*
Y41539D01*
D27*
X235000Y119000D02*
D03*
Y129000D02*
D03*
Y109000D02*
D03*
D28*
Y95000D02*
D03*
D29*
X337500Y144000D02*
D03*
Y134000D02*
D03*
X327500Y144000D02*
D03*
Y134000D02*
D03*
X317500Y144000D02*
D03*
Y134000D02*
D03*
X307500Y144000D02*
D03*
Y134000D02*
D03*
X297500Y144000D02*
D03*
Y134000D02*
D03*
X287500Y144000D02*
D03*
Y134000D02*
D03*
X277500Y144000D02*
D03*
Y134000D02*
D03*
X267500Y144000D02*
D03*
Y134000D02*
D03*
X257500Y144000D02*
D03*
Y134000D02*
D03*
X258000Y38500D02*
D03*
Y48500D02*
D03*
X268000Y38500D02*
D03*
Y48500D02*
D03*
X278000Y38500D02*
D03*
Y48500D02*
D03*
X288000Y38500D02*
D03*
Y48500D02*
D03*
X298000Y38500D02*
D03*
Y48500D02*
D03*
X308000Y38500D02*
D03*
Y48500D02*
D03*
X318000Y38500D02*
D03*
Y48500D02*
D03*
X328000Y38500D02*
D03*
Y48500D02*
D03*
X338000Y38500D02*
D03*
Y48500D02*
D03*
X366000Y111500D02*
D03*
X376000D02*
D03*
X366000Y101500D02*
D03*
X376000D02*
D03*
X366000Y91500D02*
D03*
X376000D02*
D03*
X366000Y81500D02*
D03*
X376000D02*
D03*
X366000Y71500D02*
D03*
X376000D02*
D03*
D30*
X230563Y41000D02*
D03*
X238437D02*
D03*
D31*
X231000Y87000D02*
D03*
X263500Y110500D02*
D03*
D32*
X358500Y39000D02*
D03*
X320000Y165000D02*
D03*
X231500Y61500D02*
D03*
M02*
