M48
;Layer_Color=9474304
;FILE_FORMAT=2:5
INCH,LZ
;TYPE=PLATED
T1F00S00C0.01400
T2F00S00C0.03000
T3F00S00C0.03346
T4F00S00C0.03937
T5F00S00C0.04000
T6F00S00C0.12598
%
T01
X0231Y0087
X02635Y01105
T02
X0238437Y0041
T03
X0230563Y0041
T04
X0235Y0095
Y0109
Y0119
Y0129
T05
X0258Y00385
Y00485
X0268
Y00385
X0278
Y00485
X0288
Y00385
X0298
Y00485
X0308
Y00385
X03075Y0134
Y0144
X02975
Y0134
X02875
Y0144
X02775
Y0134
X02675
Y0144
X02575
Y0134
X03175
X03275
X03375
Y0144
X03275
X03175
X0366Y01115
X0376
Y01015
X0366
Y00915
X0376
Y00815
X0366
Y00715
X0376
X0338Y00485
X0328
X0318
Y00385
X0328
X0338
T06
X02315Y00615
X03585Y0039
X032Y0165
M30
