G04*
G04 #@! TF.GenerationSoftware,Altium Limited,Altium Designer,20.0.13 (296)*
G04*
G04 Layer_Color=255*
%FSLAX25Y25*%
%MOIN*%
G70*
G01*
G75*
%ADD22R,0.03150X0.06000*%
%ADD23R,0.06000X0.03150*%
%ADD24R,0.04331X0.03543*%
%ADD27O,0.09843X0.06000*%
%ADD28C,0.06000*%
%ADD29C,0.07000*%
%ADD30O,0.04921X0.06000*%
D22*
X316161Y63500D02*
D03*
X320492D02*
D03*
X268524D02*
D03*
X272854D02*
D03*
X281516D02*
D03*
X290177D02*
D03*
X294508D02*
D03*
X298839D02*
D03*
X303169D02*
D03*
X307500D02*
D03*
X311831D02*
D03*
X324823D02*
D03*
X329153D02*
D03*
X337815D02*
D03*
X277185D02*
D03*
X285846D02*
D03*
X333484D02*
D03*
X316161Y117043D02*
D03*
X320492D02*
D03*
X268524D02*
D03*
X272854D02*
D03*
X281516D02*
D03*
X290177D02*
D03*
X294508D02*
D03*
X298839D02*
D03*
X303169D02*
D03*
X307500D02*
D03*
X311831D02*
D03*
X324823D02*
D03*
X329153D02*
D03*
X337815D02*
D03*
X277185D02*
D03*
X285846D02*
D03*
X333484D02*
D03*
D23*
X345689Y85547D02*
D03*
Y109169D02*
D03*
Y104445D02*
D03*
Y99721D02*
D03*
Y94996D02*
D03*
Y90272D02*
D03*
Y71374D02*
D03*
Y76098D02*
D03*
Y80823D02*
D03*
D24*
X231000Y75047D02*
D03*
Y80953D02*
D03*
X239500D02*
D03*
Y75047D02*
D03*
D27*
X235000Y119000D02*
D03*
Y129000D02*
D03*
Y109000D02*
D03*
D28*
Y95000D02*
D03*
D29*
X337500Y144000D02*
D03*
Y134000D02*
D03*
X327500Y144000D02*
D03*
Y134000D02*
D03*
X317500Y144000D02*
D03*
Y134000D02*
D03*
X307500Y144000D02*
D03*
Y134000D02*
D03*
X297500Y144000D02*
D03*
Y134000D02*
D03*
X287500Y144000D02*
D03*
Y134000D02*
D03*
X277500Y144000D02*
D03*
Y134000D02*
D03*
X267500Y144000D02*
D03*
Y134000D02*
D03*
X257500Y144000D02*
D03*
Y134000D02*
D03*
X258000Y38500D02*
D03*
Y48500D02*
D03*
X268000Y38500D02*
D03*
Y48500D02*
D03*
X278000Y38500D02*
D03*
Y48500D02*
D03*
X288000Y38500D02*
D03*
Y48500D02*
D03*
X298000Y38500D02*
D03*
Y48500D02*
D03*
X308000Y38500D02*
D03*
Y48500D02*
D03*
X318000Y38500D02*
D03*
Y48500D02*
D03*
X328000Y38500D02*
D03*
Y48500D02*
D03*
X338000Y38500D02*
D03*
Y48500D02*
D03*
X366000Y111500D02*
D03*
X376000D02*
D03*
X366000Y101500D02*
D03*
X376000D02*
D03*
X366000Y91500D02*
D03*
X376000D02*
D03*
X366000Y81500D02*
D03*
X376000D02*
D03*
X366000Y71500D02*
D03*
X376000D02*
D03*
D30*
X230563Y41000D02*
D03*
X238437D02*
D03*
M02*
