G04*
G04 #@! TF.GenerationSoftware,Altium Limited,Altium Designer,20.0.13 (296)*
G04*
G04 Layer_Color=255*
%FSLAX25Y25*%
%MOIN*%
G70*
G01*
G75*
%ADD27O,0.09843X0.06000*%
%ADD28C,0.06000*%
%ADD29C,0.07000*%
%ADD30O,0.04921X0.06000*%
D27*
X235000Y119000D02*
D03*
Y129000D02*
D03*
Y109000D02*
D03*
D28*
Y95000D02*
D03*
D29*
X337500Y144000D02*
D03*
Y134000D02*
D03*
X327500Y144000D02*
D03*
Y134000D02*
D03*
X317500Y144000D02*
D03*
Y134000D02*
D03*
X307500Y144000D02*
D03*
Y134000D02*
D03*
X297500Y144000D02*
D03*
Y134000D02*
D03*
X287500Y144000D02*
D03*
Y134000D02*
D03*
X277500Y144000D02*
D03*
Y134000D02*
D03*
X267500Y144000D02*
D03*
Y134000D02*
D03*
X257500Y144000D02*
D03*
Y134000D02*
D03*
X258000Y38500D02*
D03*
Y48500D02*
D03*
X268000Y38500D02*
D03*
Y48500D02*
D03*
X278000Y38500D02*
D03*
Y48500D02*
D03*
X288000Y38500D02*
D03*
Y48500D02*
D03*
X298000Y38500D02*
D03*
Y48500D02*
D03*
X308000Y38500D02*
D03*
Y48500D02*
D03*
X318000Y38500D02*
D03*
Y48500D02*
D03*
X328000Y38500D02*
D03*
Y48500D02*
D03*
X338000Y38500D02*
D03*
Y48500D02*
D03*
X366000Y111500D02*
D03*
X376000D02*
D03*
X366000Y101500D02*
D03*
X376000D02*
D03*
X366000Y91500D02*
D03*
X376000D02*
D03*
X366000Y81500D02*
D03*
X376000D02*
D03*
X366000Y71500D02*
D03*
X376000D02*
D03*
D30*
X230563Y41000D02*
D03*
X238437D02*
D03*
M02*
