G04*
G04 #@! TF.GenerationSoftware,Altium Limited,Altium Designer,20.0.13 (296)*
G04*
G04 Layer_Color=8388736*
%FSLAX25Y25*%
%MOIN*%
G70*
G01*
G75*
%ADD13R,0.03950X0.06800*%
%ADD14R,0.06800X0.03950*%
%ADD15R,0.05131X0.04343*%
%ADD16O,0.10642X0.06800*%
%ADD17C,0.06800*%
%ADD18C,0.07800*%
%ADD19O,0.05721X0.06800*%
%ADD20C,0.03600*%
%ADD21C,0.14580*%
D13*
X316161Y63500D02*
D03*
X320492D02*
D03*
X268524D02*
D03*
X272854D02*
D03*
X281516D02*
D03*
X290177D02*
D03*
X294508D02*
D03*
X298839D02*
D03*
X303169D02*
D03*
X307500D02*
D03*
X311831D02*
D03*
X324823D02*
D03*
X329153D02*
D03*
X337815D02*
D03*
X277185D02*
D03*
X285846D02*
D03*
X333484D02*
D03*
X316161Y117043D02*
D03*
X320492D02*
D03*
X268524D02*
D03*
X272854D02*
D03*
X281516D02*
D03*
X290177D02*
D03*
X294508D02*
D03*
X298839D02*
D03*
X303169D02*
D03*
X307500D02*
D03*
X311831D02*
D03*
X324823D02*
D03*
X329153D02*
D03*
X337815D02*
D03*
X277185D02*
D03*
X285846D02*
D03*
X333484D02*
D03*
D14*
X345689Y85547D02*
D03*
Y109169D02*
D03*
Y104445D02*
D03*
Y99721D02*
D03*
Y94996D02*
D03*
Y90272D02*
D03*
Y71374D02*
D03*
Y76098D02*
D03*
Y80823D02*
D03*
D15*
X231000Y75047D02*
D03*
Y80953D02*
D03*
X239500D02*
D03*
Y75047D02*
D03*
D16*
X235000Y119000D02*
D03*
Y129000D02*
D03*
Y109000D02*
D03*
D17*
Y95000D02*
D03*
D18*
X337500Y144000D02*
D03*
Y134000D02*
D03*
X327500Y144000D02*
D03*
Y134000D02*
D03*
X317500Y144000D02*
D03*
Y134000D02*
D03*
X307500Y144000D02*
D03*
Y134000D02*
D03*
X297500Y144000D02*
D03*
Y134000D02*
D03*
X287500Y144000D02*
D03*
Y134000D02*
D03*
X277500Y144000D02*
D03*
Y134000D02*
D03*
X267500Y144000D02*
D03*
Y134000D02*
D03*
X257500Y144000D02*
D03*
Y134000D02*
D03*
X258000Y38500D02*
D03*
Y48500D02*
D03*
X268000Y38500D02*
D03*
Y48500D02*
D03*
X278000Y38500D02*
D03*
Y48500D02*
D03*
X288000Y38500D02*
D03*
Y48500D02*
D03*
X298000Y38500D02*
D03*
Y48500D02*
D03*
X308000Y38500D02*
D03*
Y48500D02*
D03*
X318000Y38500D02*
D03*
Y48500D02*
D03*
X328000Y38500D02*
D03*
Y48500D02*
D03*
X338000Y38500D02*
D03*
Y48500D02*
D03*
X366000Y111500D02*
D03*
X376000D02*
D03*
X366000Y101500D02*
D03*
X376000D02*
D03*
X366000Y91500D02*
D03*
X376000D02*
D03*
X366000Y81500D02*
D03*
X376000D02*
D03*
X366000Y71500D02*
D03*
X376000D02*
D03*
D19*
X230563Y41000D02*
D03*
X238437D02*
D03*
D20*
X231000Y87000D02*
D03*
X263500Y110500D02*
D03*
D21*
X358500Y39000D02*
D03*
X320000Y165000D02*
D03*
X231500Y61500D02*
D03*
M02*
